<svg width="279" height="112" viewBox="0 0 279 112" fill="none" xmlns="http://www.w3.org/2000/svg">
<path d="M48.7826 88.6255C48.7826 88.6255 48.7371 88.58 48.7143 88.5572C48.6916 88.5269 48.6688 88.5117 48.6461 88.4889C48.6233 88.4662 48.6006 88.4434 48.5778 88.4206C48.5551 88.3979 48.5323 88.3751 48.5096 88.3524C48.4868 88.322 48.4641 88.3068 48.4413 88.2841C48.4186 88.2537 48.3958 88.2385 48.3731 88.2158C48.3503 88.193 48.3276 88.1703 48.3048 88.1475C48.2821 88.1172 48.2593 88.102 48.2366 88.0792C48.2138 88.0489 48.1911 88.0337 48.1683 88.0109C48.1456 87.9806 48.1228 87.9654 48.1001 87.9427C48.0773 87.9199 48.0546 87.8971 48.0318 87.8744C48.0091 87.844 47.9863 87.8288 47.9636 87.8061C47.9408 87.7757 47.9181 87.7606 47.8953 87.7378C47.8726 87.715 47.8498 87.6923 47.8271 87.6695C47.8043 87.6392 47.7816 87.624 47.7588 87.6012C47.7361 87.5709 47.7133 87.5557 47.6906 87.5329C47.6678 87.5026 47.6451 87.4874 47.6223 87.4647C47.5996 87.4419 47.5768 87.4191 47.5541 87.3964C47.5313 87.366 47.5086 87.3509 47.4858 87.3281C47.4631 87.2977 47.4403 87.2826 47.4176 87.2598C47.3948 87.237 47.3721 87.2143 47.3493 87.1915C47.3266 87.1688 47.3038 87.146 47.2811 87.1232C47.2583 87.0929 47.2356 87.0777 47.2128 87.055C47.1901 87.0246 47.1673 87.0094 47.1446 86.9867C47.1218 86.9639 47.0991 86.9411 47.0763 86.9184C47.0536 86.888 47.0308 86.8729 47.0081 86.8501C46.9853 86.8198 46.9626 86.8046 46.9398 86.7818C46.9171 86.7591 46.8943 86.7363 46.8716 86.7135C46.8488 86.6908 46.8261 86.668 46.8033 86.6452C46.7806 86.6149 46.7579 86.5997 46.7351 86.577C46.7123 86.5466 46.6896 86.5314 46.6669 86.5087C46.6441 86.4859 46.6214 86.4632 46.5986 86.4404C46.5759 86.41 46.5531 86.3949 46.5304 86.3721C46.5076 86.3418 46.4849 86.3266 46.4621 86.3038C46.4394 86.2811 46.4166 86.2583 46.3939 86.2355C46.3711 86.2128 46.3484 86.19 46.3256 86.1673C46.3029 86.1369 46.2801 86.1217 46.2574 86.099C46.2346 86.0686 46.2119 86.0535 46.1891 86.0307C46.1664 86.0079 46.1436 85.9852 46.1209 85.9624C46.0981 85.9321 46.0754 85.9169 46.0526 85.8941C46.0299 85.8638 46.0071 85.8486 45.9844 85.8258C45.9616 85.7955 45.9389 85.7803 45.9161 85.7575C45.8934 85.7348 45.8706 85.712 45.8479 85.6893C45.8251 85.6589 45.8024 85.6437 45.7796 85.621C45.7569 85.5906 45.7341 85.5755 45.7114 85.5527C45.6886 85.5299 45.6659 85.5072 45.6431 85.4844C45.6204 85.4541 45.5976 85.4389 45.5749 85.4161C45.5521 85.3858 45.5294 85.3706 45.5066 85.3478C45.4839 85.3175 45.4611 85.3023 45.4384 85.2796C45.4156 85.2568 45.3929 85.234 45.3701 85.2113C45.3474 85.1809 45.3246 85.1658 45.3019 85.143C45.2791 85.1126 45.2564 85.0975 45.2336 85.0747C45.2109 85.0519 45.1881 85.0292 45.1654 85.0064C44.7635 84.4981 44.0582 84.4222 43.2089 84.8623C40.3349 86.3797 35.4058 88.8076 27.9971 88.8076C23.1211 88.8076 19.284 87.6923 16.3493 85.6665C13.6649 81.8122 12.4364 76.5164 12.4364 70.1356C12.4364 56.5774 18.6243 45.5836 29.6578 45.5836C36.2552 45.5836 41.9425 50.9325 41.9425 50.9325L43.5653 52.3286C44.1492 52.9128 44.7256 52.7914 45.1426 52.3513L48.7977 47.4121C49.3816 46.9341 49.3665 46.2588 49.0025 45.9098L48.9418 45.8491C48.9418 45.8491 48.9418 45.8491 48.9418 45.8416L48.8811 45.7809C48.8811 45.7809 48.8811 45.7809 48.8811 45.7733L48.8205 45.7126C48.8205 45.7126 48.8205 45.7126 48.8205 45.705L48.7598 45.6443C48.7598 45.6443 48.7598 45.6443 48.7598 45.6367L48.6991 45.576C48.6991 45.576 48.6991 45.576 48.6991 45.5684L48.6385 45.5077C48.6385 45.5077 48.6385 45.5077 48.6385 45.5001L48.5778 45.4394C48.5778 45.4394 48.5778 45.4394 48.5778 45.4319L48.5171 45.3712C48.5171 45.3712 48.5171 45.3712 48.5171 45.3636L48.4565 45.3029C48.4565 45.3029 48.4565 45.3029 48.4565 45.2953L48.3958 45.2346C48.3958 45.2346 48.3958 45.2346 48.3958 45.227L48.3351 45.1663C48.3351 45.1663 48.3351 45.1663 48.3351 45.1587L48.2745 45.098C48.2745 45.098 48.2745 45.098 48.2745 45.0904L48.2138 45.0297C48.2138 45.0297 48.2138 45.0297 48.2138 45.0221L48.1532 44.9614C48.1532 44.9614 48.1532 44.9614 48.1532 44.9539L48.0925 44.8932C48.0925 44.8932 48.0925 44.8932 48.0925 44.8856L48.0318 44.8249C48.0318 44.8249 48.0318 44.8249 48.0318 44.8173L47.9712 44.7566C47.9712 44.7566 47.9712 44.7566 47.9712 44.749L47.9105 44.6883C47.9105 44.6883 47.9105 44.6883 47.9105 44.6807L47.8498 44.62C47.8498 44.62 47.8498 44.62 47.8498 44.6124L47.7892 44.5517C47.7892 44.5517 47.7892 44.5517 47.7892 44.5442L47.7285 44.4835C47.7285 44.4835 47.7285 44.4835 47.7285 44.4759L47.6678 44.4152C47.6678 44.4152 47.6678 44.4152 47.6678 44.4076L47.6072 44.3469C47.6072 44.3469 47.6072 44.3469 47.6072 44.3393L47.5465 44.2786C47.5465 44.2786 47.5465 44.2786 47.5465 44.271L47.4858 44.2103C47.4858 44.2103 47.4858 44.2103 47.4858 44.2027L47.4252 44.142C47.4252 44.142 47.4252 44.142 47.4252 44.1344L47.3645 44.0738C47.3645 44.0738 47.3645 44.0738 47.3645 44.0662L47.3038 44.0055C47.3038 44.0055 47.3038 44.0055 47.3038 43.9979L47.2432 43.9372C47.2432 43.9372 47.2432 43.9372 47.2432 43.9296L47.1825 43.8689C47.1825 43.8689 47.1825 43.8689 47.1825 43.8613L47.1218 43.8006C47.1218 43.8006 47.1218 43.8006 47.1218 43.793L47.0612 43.7323C47.0612 43.7323 47.0612 43.7323 47.0612 43.7247L47.0005 43.664C47.0005 43.664 47.0005 43.664 47.0005 43.6565L46.9398 43.5958C46.9398 43.5958 46.9398 43.5958 46.9398 43.5882L46.8792 43.5275C46.8792 43.5275 46.8792 43.5275 46.8792 43.5199L46.8185 43.4592C46.8185 43.4592 46.8185 43.4592 46.8185 43.4516L46.7578 43.3909C46.7578 43.3909 46.7578 43.3909 46.7578 43.3833L46.6972 43.3226C46.6972 43.3226 46.6972 43.3226 46.6972 43.315L46.6365 43.2543C46.6365 43.2543 46.6365 43.2543 46.6365 43.2468L46.5759 43.1861C46.5759 43.1861 46.5759 43.1861 46.5759 43.1785L46.5152 43.1178C46.5152 43.1178 46.5152 43.1178 46.5152 43.1102L46.4545 43.0495C46.4545 43.0495 46.4545 43.0495 46.4545 43.0419L46.3939 42.9812C46.3939 42.9812 46.3939 42.9812 46.3939 42.9736L46.3332 42.9129C46.3332 42.9129 46.3332 42.9129 46.3332 42.9053L46.2725 42.8446C46.2725 42.8446 46.2725 42.8446 46.2725 42.837L46.2119 42.7763C46.2119 42.7763 46.2119 42.7763 46.2119 42.7688L46.1512 42.7081C46.1512 42.7081 46.1512 42.7081 46.1512 42.7005L46.0905 42.6398C46.0905 42.6398 46.0905 42.6398 46.0905 42.6322L46.0299 42.5715C46.0299 42.5715 46.0299 42.5715 46.0299 42.5639L45.9692 42.5032C45.9692 42.5032 45.9692 42.5032 45.9692 42.4956L45.9085 42.4349C45.9085 42.4349 45.9085 42.4349 45.9085 42.4273L45.8479 42.3666C45.8479 42.3666 45.8479 42.3666 45.8479 42.3591L45.7872 42.2984C45.7872 42.2984 45.7872 42.2984 45.7872 42.2908L45.7265 42.2301C45.7265 42.2301 45.7265 42.2301 45.7265 42.2225L45.6659 42.1618C45.6659 42.1618 45.6659 42.1618 45.6659 42.1542L43.2165 39.8401C42.8753 39.4835 42.3065 39.4684 41.9501 39.8098L40.5472 41.0844C40.0012 41.661 40.2136 41.2134 36.6116 38.96C33.1081 36.7749 28.6417 35.4851 24.0159 36.0086C11.4279 37.4502 2.17639 48.9978 2.17639 66.5317C2.17639 76.2584 4.785 83.4055 9.35765 88.1247C9.3804 88.1475 9.40315 88.1703 9.4259 88.193C9.44865 88.2158 9.4714 88.2386 9.49415 88.2613C9.5169 88.2841 9.53965 88.3068 9.5624 88.3296C9.58515 88.3524 9.6079 88.3751 9.63065 88.3979C9.6534 88.4206 9.67615 88.4434 9.6989 88.4662C9.72165 88.4889 9.7444 88.5117 9.76714 88.5345C9.78989 88.5572 9.81264 88.58 9.83539 88.6027C9.85814 88.6255 9.88089 88.6483 9.90364 88.671C9.92639 88.6938 9.94914 88.7165 9.97189 88.7393C9.99464 88.7621 10.0174 88.7848 10.0401 88.8076C10.0629 88.8303 10.0856 88.8531 10.1084 88.8759C10.1311 88.8986 10.1539 88.9214 10.1766 88.9442C10.1994 88.9669 10.2221 88.9897 10.2449 89.0124C10.2676 89.0352 10.2904 89.058 10.3131 89.0807C10.3359 89.1035 10.3586 89.1262 10.3814 89.149C10.4041 89.1718 10.4269 89.1945 10.4496 89.2173C10.4724 89.2401 10.4951 89.2628 10.5179 89.2856C10.5406 89.3083 10.5634 89.3311 10.5861 89.3539C10.6089 89.3766 10.6316 89.3994 10.6544 89.4221C10.6771 89.4449 10.6999 89.4677 10.7226 89.4904C10.7454 89.5132 10.7681 89.536 10.7909 89.5587C10.8136 89.5815 10.8364 89.6042 10.8591 89.627C10.8819 89.6498 10.9046 89.6725 10.9274 89.6953C10.9501 89.718 10.9729 89.7408 10.9956 89.7636C11.0184 89.7863 11.0411 89.8091 11.0639 89.8319C11.0866 89.8546 11.1094 89.8774 11.1321 89.9001C11.1549 89.9229 11.1776 89.9457 11.2004 89.9684C11.2231 89.9912 11.2459 90.0139 11.2686 90.0367C11.2914 90.0595 11.3141 90.0822 11.3369 90.105C11.3596 90.1278 11.3824 90.1505 11.4051 90.1733C11.4279 90.196 11.4506 90.2188 11.4734 90.2416C11.4961 90.2643 11.5189 90.2871 11.5416 90.3098C11.5644 90.3326 11.5871 90.3554 11.6099 90.3781C11.6326 90.4009 11.6554 90.4236 11.6781 90.4464C11.7009 90.4692 11.7236 90.4919 11.7464 90.5147C11.7691 90.5375 11.7919 90.5602 11.8146 90.583C11.8373 90.6057 11.8601 90.6285 11.8828 90.6513C11.9056 90.674 11.9283 90.6968 11.9511 90.7195C11.9738 90.7423 11.9966 90.7651 12.0193 90.7878C12.0421 90.8106 12.0648 90.8334 12.0876 90.8561C12.1103 90.8789 12.1331 90.9016 12.1558 90.9244C12.1786 90.9472 12.2013 90.9699 12.2241 90.9927C12.2468 91.0154 12.2696 91.0382 12.2923 91.061C12.3151 91.0837 12.3378 91.1065 12.3606 91.1293C12.3833 91.152 12.4061 91.1748 12.4288 91.1975C12.4516 91.2203 12.4743 91.2431 12.4971 91.2658C12.5198 91.2886 12.5426 91.3113 12.5653 91.3341C12.5881 91.3569 12.6108 91.3796 12.6336 91.4024C12.6563 91.4252 12.6791 91.4479 12.7018 91.4707C12.7246 91.4934 12.7473 91.5162 12.7701 91.539C12.7928 91.5617 12.8156 91.5845 12.8383 91.6072C12.8611 91.63 12.8838 91.6528 12.9066 91.6755C12.9293 91.6983 12.9521 91.7211 12.9748 91.7438C12.9976 91.7666 13.0203 91.7893 13.0431 91.8121C17.5854 96.5465 24.0918 98.8454 31.9176 98.8454C41.0098 98.8454 46.3484 95.9699 48.6612 94.5359C49.6167 93.9744 49.776 93.6558 49.776 92.6239V90.1505C49.776 89.5056 49.6091 89.0428 49.3361 88.7393C49.3134 88.7165 49.2906 88.6938 49.2679 88.671L48.7826 88.6255Z" fill="#C9E8F9"/>
<path d="M94.2437 81.9185C94.2437 81.9185 94.1982 81.8653 94.1755 81.8502C94.1527 81.8274 94.13 81.7971 94.1072 81.7819C94.0844 81.7591 94.0617 81.7288 94.039 81.7136C94.0162 81.6908 93.9935 81.6605 93.9707 81.6453C93.948 81.6226 93.9252 81.5922 93.9025 81.577C93.8797 81.5543 93.857 81.5239 93.8342 81.5088C93.8115 81.486 93.7963 81.4556 93.766 81.4405C93.7432 81.4177 93.7205 81.3874 93.6977 81.3722C93.675 81.3494 93.6522 81.3191 93.6295 81.3039C93.6067 81.2811 93.584 81.2508 93.5612 81.2356C93.5385 81.2129 93.5157 81.1825 93.493 81.1673C93.4702 81.1446 93.4475 81.1142 93.4247 81.099C93.402 81.0763 93.3792 81.0459 93.3565 81.0308C93.3337 81.008 93.3186 80.9776 93.2882 80.9625C93.2655 80.9397 93.2427 80.9094 93.22 80.8942C93.1972 80.8714 93.1745 80.8411 93.1517 80.8259C93.129 80.8031 93.1062 80.7728 93.0835 80.7576C93.0607 80.7349 93.038 80.7045 93.0152 80.6893C92.9925 80.6666 92.9697 80.6362 92.947 80.6211C92.9242 80.5983 92.9015 80.5679 92.8787 80.5528C92.856 80.53 92.8408 80.4997 92.8105 80.4845C92.7877 80.4617 92.765 80.4314 92.7422 80.4162C92.7195 80.3934 92.6967 80.3631 92.674 80.3479C92.6512 80.3252 92.6285 80.2948 92.6057 80.2796C92.583 80.2569 92.5602 80.2265 92.5375 80.2113C92.5147 80.1886 92.492 80.1582 92.4692 80.1431C92.4465 80.1203 92.4237 80.09 92.401 80.0748C92.3782 80.052 92.3555 80.0217 92.3327 80.0065C92.31 79.9837 92.2872 79.9534 92.2645 79.9382C92.2417 79.9155 92.219 79.8851 92.1962 79.8699C92.1735 79.8472 92.1507 79.8168 92.128 79.8016C92.1052 79.7789 92.0825 79.7485 92.0597 79.7334C92.037 79.7106 92.0142 79.6802 91.9915 79.6651C91.9687 79.6423 91.946 79.612 91.9232 79.5968C91.9005 79.574 91.8777 79.5437 91.855 79.5285C91.8322 79.5057 91.8095 79.4754 91.7868 79.4602C91.764 79.4375 91.7412 79.4071 91.7185 79.3919C91.6958 79.3692 91.673 79.3388 91.6503 79.3237C91.6275 79.3009 91.6123 79.2705 91.582 79.2554C91.5593 79.2326 91.5365 79.2023 91.5138 79.1871C91.491 79.1643 91.4683 79.134 91.4455 79.1188C91.4228 79.096 91.4 79.0657 91.3773 79.0505C91.3545 79.0278 91.3318 78.9974 91.309 78.9822C91.2863 78.9595 91.2635 78.9291 91.2408 78.9139C91.218 78.8912 91.1953 78.8608 91.1725 78.8457C91.1498 78.8229 91.1346 78.7926 91.1043 78.7774C91.0815 78.7546 91.0588 78.7243 91.036 78.7091C91.0133 78.6863 90.9905 78.656 90.9678 78.6408C90.945 78.618 90.9223 78.5877 90.8995 78.5725C90.8768 78.5498 90.854 78.5194 90.8313 78.5042C90.8085 78.4815 90.7858 78.4511 90.763 78.436C90.7403 78.4132 90.7175 78.3828 90.6948 78.3677C90.672 78.3449 90.6569 78.3146 90.6265 78.2994C90.4521 78.1325 90.1791 78.049 89.7317 78.049H87.4188C86.3041 78.049 85.9856 78.3677 85.8264 79.3237L85.1894 85.7044C84.6282 88.8986 84.0747 89.2932 80.0859 89.2932H69.4695V48.755C69.4695 45.8036 70.0306 45.3256 72.1843 45.3256H74.2545C75.2934 45.3256 75.5284 45.1663 75.5284 44.1269V41.7293C75.5284 41.1375 75.4374 40.7961 75.2099 40.6064C75.1872 40.5837 75.1644 40.5609 75.1417 40.5381C75.1189 40.5154 75.0962 40.4926 75.0734 40.4699C75.0507 40.4471 75.0279 40.4243 75.0052 40.4016C74.9825 40.3788 74.9597 40.3561 74.9369 40.3333C74.9142 40.3105 74.8915 40.2878 74.8687 40.265C74.846 40.2422 74.8232 40.2195 74.8005 40.1967C74.7777 40.174 74.755 40.1512 74.7322 40.1284C74.7095 40.1057 74.6867 40.0829 74.664 40.0602C74.6412 40.0374 74.6185 40.0146 74.5957 39.9919C74.573 39.9691 74.5502 39.9463 74.5275 39.9236C74.5047 39.9008 74.482 39.8781 74.4592 39.8553C74.4365 39.8325 74.4137 39.8098 74.391 39.787C74.3682 39.7643 74.3455 39.7415 74.3227 39.7187C74.3 39.696 74.2772 39.6732 74.2545 39.6504C74.2317 39.6277 74.209 39.6049 74.1862 39.5822C74.1635 39.5594 74.1407 39.5366 74.118 39.5139C74.0952 39.4911 74.0725 39.4684 74.0497 39.4456C74.027 39.4228 74.0042 39.4001 73.9815 39.3773C73.9587 39.3545 73.936 39.3318 73.9132 39.309C73.8905 39.2863 73.8677 39.2635 73.845 39.2407C73.8222 39.218 73.7995 39.1952 73.7767 39.1725C73.754 39.1497 73.7312 39.1269 73.7085 39.1042C73.6857 39.0814 73.663 39.0586 73.6402 39.0359C73.6175 39.0131 73.5947 38.9904 73.572 38.9676C73.5492 38.9448 73.5265 38.9221 73.5037 38.8993C73.481 38.8766 73.4582 38.8538 73.4355 38.831C73.4127 38.8083 73.39 38.7855 73.3672 38.7627C73.3445 38.74 73.3217 38.7172 73.299 38.6945C73.2762 38.6717 73.2535 38.6489 73.2307 38.6262C73.208 38.6034 73.1852 38.5807 73.1625 38.5579C73.1397 38.5351 73.117 38.5124 73.0942 38.4896C73.0715 38.4668 73.0487 38.4441 73.026 38.4213C73.0032 38.3986 72.9805 38.3758 72.9577 38.353C72.935 38.3303 72.9122 38.3075 72.8895 38.2848C72.8667 38.262 72.844 38.2392 72.8212 38.2165C72.7985 38.1937 72.7757 38.171 72.753 38.1482C72.7302 38.1254 72.7075 38.1027 72.6847 38.0799C72.662 38.0571 72.6392 38.0344 72.6165 38.0116C72.5938 37.9889 72.571 37.9661 72.5482 37.9433C72.5255 37.9206 72.5028 37.8978 72.48 37.8751C72.4573 37.8523 72.4345 37.8295 72.4118 37.8068C72.389 37.784 72.3663 37.7612 72.3435 37.7385C72.3208 37.7157 72.298 37.693 72.2753 37.6702C72.2525 37.6474 72.2298 37.6247 72.207 37.6019C72.1843 37.5792 72.1615 37.5564 72.1388 37.5336C72.116 37.5109 72.0933 37.4881 72.0705 37.4653C72.0478 37.4426 72.025 37.4198 72.0023 37.3971C71.9795 37.3743 71.9568 37.3515 71.934 37.3288C71.9113 37.306 71.8885 37.2833 71.8658 37.2605C71.843 37.2377 71.8203 37.215 71.7975 37.1922C71.7748 37.1694 71.752 37.1467 71.7293 37.1239C71.7065 37.1012 71.6838 37.0784 71.661 37.0556C71.6383 37.0329 71.6155 37.0101 71.5928 36.9874C71.57 36.9646 71.5473 36.9418 71.5245 36.9191C71.3274 36.6915 71.0013 36.6232 70.5008 36.6232H54.2349C53.2794 36.6232 52.9609 36.866 52.9609 37.9813V40.3788C52.9609 40.9175 53.0292 41.221 53.2415 41.3803C53.2642 41.4031 53.287 41.4258 53.3097 41.4486C53.3325 41.4714 53.3552 41.4941 53.378 41.5169C53.4007 41.5396 53.4235 41.5624 53.4462 41.5852C53.469 41.6079 53.4917 41.6307 53.5145 41.6535C53.5372 41.6762 53.56 41.7066 53.5827 41.7217C53.6055 41.7445 53.6282 41.7673 53.651 41.79C53.6737 41.8128 53.6965 41.8355 53.7192 41.8583C53.742 41.8811 53.7647 41.9114 53.7875 41.9266C53.8102 41.9494 53.833 41.9721 53.8557 41.9949C53.8785 42.0176 53.9012 42.0404 53.924 42.0632C53.9467 42.0859 53.9695 42.1087 53.9922 42.1314C54.015 42.1542 54.0377 42.1846 54.0605 42.1997C54.0832 42.2225 54.106 42.2452 54.1287 42.268C54.1515 42.2908 54.1742 42.3135 54.197 42.3363C54.2197 42.3591 54.2425 42.3894 54.2652 42.4046C54.288 42.4273 54.3107 42.4501 54.3335 42.4729C54.3562 42.4956 54.379 42.5184 54.4017 42.5411C54.4245 42.5639 54.4472 42.5867 54.47 42.6094C54.4927 42.6322 54.5155 42.6625 54.5382 42.6777C54.561 42.7005 54.5837 42.7232 54.6065 42.746C54.6292 42.7688 54.652 42.7915 54.6747 42.8143C54.6975 42.837 54.7202 42.8598 54.743 42.8826C54.7657 42.9053 54.7885 42.9281 54.8112 42.9509C54.834 42.9736 54.8567 42.9964 54.8795 43.0191C54.9022 43.0419 54.925 43.0647 54.9477 43.0874C54.9705 43.1102 54.9932 43.1405 55.016 43.1557C55.0387 43.1785 55.0615 43.2012 55.0842 43.224C55.107 43.2468 55.1297 43.2695 55.1525 43.2923C55.1752 43.315 55.198 43.3378 55.2207 43.3606C55.2435 43.3833 55.2662 43.4061 55.289 43.4288C55.3117 43.4516 55.3345 43.4744 55.3572 43.4971C55.38 43.5199 55.4027 43.5427 55.4254 43.5654C55.4482 43.5882 55.471 43.6109 55.4937 43.6337C55.5165 43.6565 55.5392 43.6792 55.5619 43.702C55.5847 43.7247 55.6074 43.7475 55.6302 43.7703C55.6529 43.793 55.6757 43.8158 55.6984 43.8386C55.7212 43.8613 55.7439 43.8841 55.7667 43.9068C55.7894 43.9296 55.8122 43.9524 55.8349 43.9751C55.8577 43.9979 55.8804 44.0206 55.9032 44.0434C55.9259 44.0662 55.9487 44.0965 55.9714 44.1117C55.9942 44.1344 56.0169 44.1572 56.0397 44.18C56.0624 44.2027 56.0852 44.2255 56.1079 44.2483C56.1307 44.271 56.1534 44.2938 56.1762 44.3165C56.1989 44.3393 56.2217 44.3697 56.2444 44.3848C56.2672 44.4076 56.2899 44.4303 56.3127 44.4531C56.3354 44.4759 56.3582 44.4986 56.3809 44.5214C56.4037 44.5442 56.4264 44.5745 56.4492 44.5897C56.4719 44.6124 56.4947 44.6352 56.5174 44.658C56.5402 44.6807 56.5629 44.7035 56.5857 44.7262C56.6084 44.749 56.6312 44.7718 56.6539 44.7945C56.6767 44.8173 56.6994 44.8476 56.7222 44.8628C56.7449 44.8856 56.7677 44.9083 56.7904 44.9311C56.8132 44.9539 56.8359 44.9766 56.8587 44.9994C56.8814 45.0221 56.9042 45.0449 56.9269 45.0677C57.1089 45.2725 57.435 45.3256 57.9961 45.3256H58.9668V85.7803C58.9668 88.8152 58.0871 89.2097 54.0226 89.2097C53.3022 89.2097 52.9078 89.6118 52.9078 90.6437V92.8743C52.9078 93.413 53.0216 93.7317 53.2415 93.9213C53.2642 93.9441 53.287 93.9669 53.3097 93.9896C53.3325 94.0124 53.3552 94.0351 53.378 94.0579C53.4007 94.0807 53.4235 94.1034 53.4462 94.1262C53.469 94.1489 53.4917 94.1717 53.5145 94.1945C53.5372 94.2172 53.56 94.24 53.5827 94.2627C53.6055 94.2855 53.6282 94.3083 53.651 94.331C53.6737 94.3538 53.6965 94.3766 53.7192 94.3993C53.742 94.4221 53.7647 94.4448 53.7875 94.4676C53.8102 94.4904 53.833 94.5131 53.8557 94.5359C53.8785 94.5587 53.9012 94.5814 53.924 94.6042C53.9467 94.6269 53.9695 94.6497 53.9922 94.6725C54.015 94.6952 54.0377 94.718 54.0605 94.7407C54.0832 94.7635 54.106 94.7863 54.1287 94.809C54.1515 94.8318 54.1742 94.8545 54.197 94.8773C54.2197 94.9001 54.2425 94.9228 54.2652 94.9456C54.288 94.9683 54.3107 94.9911 54.3335 95.0139C54.3562 95.0366 54.379 95.0594 54.4017 95.0822C54.4245 95.1049 54.4472 95.1277 54.47 95.1504C54.4927 95.1732 54.5155 95.196 54.5382 95.2187C54.561 95.2415 54.5837 95.2642 54.6065 95.287C54.6292 95.3098 54.652 95.3325 54.6747 95.3553C54.6975 95.3781 54.7202 95.4008 54.743 95.4236C54.7657 95.4463 54.7885 95.4691 54.8112 95.4919C54.834 95.5146 54.8567 95.5374 54.8795 95.5601C54.9022 95.5829 54.925 95.6057 54.9477 95.6284C54.9705 95.6512 54.9932 95.674 55.016 95.6967C55.0387 95.7195 55.0615 95.7422 55.0842 95.765C55.107 95.7878 55.1297 95.8105 55.1525 95.8333C55.1752 95.856 55.198 95.8788 55.2207 95.9016C55.2435 95.9243 55.2662 95.9471 55.289 95.9699C55.3117 95.9926 55.3345 96.0154 55.3572 96.0381C55.38 96.0609 55.4027 96.0837 55.4254 96.1064C55.4482 96.1292 55.471 96.152 55.4937 96.1747C55.5165 96.1975 55.5392 96.2202 55.5619 96.243C55.5847 96.2658 55.6074 96.2885 55.6302 96.3113C55.6529 96.334 55.6757 96.3568 55.6984 96.3796C55.7212 96.4023 55.7439 96.4251 55.7667 96.4479C55.7894 96.4706 55.8122 96.4934 55.8349 96.5161C55.8577 96.5389 55.8804 96.5617 55.9032 96.5844C55.9259 96.6072 55.9487 96.6299 55.9714 96.6527C55.9942 96.6755 56.0169 96.6982 56.0397 96.721C56.0624 96.7438 56.0852 96.7665 56.1079 96.7893C56.1307 96.812 56.1534 96.8348 56.1762 96.8576C56.1989 96.8803 56.2217 96.9031 56.2444 96.9258C56.2672 96.9486 56.2899 96.9714 56.3127 96.9941C56.3354 97.0169 56.3582 97.0396 56.3809 97.0624C56.4037 97.0852 56.4264 97.1079 56.4492 97.1307C56.4719 97.1535 56.4947 97.1762 56.5174 97.199C56.5402 97.2217 56.5629 97.2445 56.5857 97.2673C56.6084 97.29 56.6312 97.3128 56.6539 97.3355C56.6767 97.3583 56.6994 97.3811 56.7222 97.4038C56.7449 97.4266 56.7677 97.4493 56.7904 97.4721C56.8132 97.4949 56.8359 97.5176 56.8587 97.5404C56.8814 97.5632 56.9042 97.5859 56.9269 97.6087C57.1317 97.8363 57.4653 97.9122 57.9355 97.9122H91.3393C92.856 97.9122 93.4095 97.7528 93.5688 95.7574L94.6077 83.231C94.6608 82.5861 94.6077 82.184 94.3195 81.9792C94.2968 81.9564 94.274 81.926 94.2513 81.9109L94.2437 81.9185Z" fill="#C9E8F9"/>
<path d="M120.148 40.4774C120.148 40.4774 120.102 40.4319 120.079 40.4092C120.057 40.3864 120.034 40.3636 120.011 40.3409C119.988 40.3181 119.966 40.2954 119.943 40.2726C119.92 40.2498 119.897 40.2271 119.875 40.2043C119.852 40.1815 119.829 40.1588 119.806 40.136C119.784 40.1133 119.761 40.0905 119.738 40.0677C119.715 40.045 119.693 40.0222 119.67 39.9995C119.647 39.9767 119.624 39.9539 119.602 39.9312C119.579 39.9084 119.556 39.8856 119.533 39.8629C119.511 39.8401 119.488 39.8174 119.465 39.7946C119.442 39.7718 119.42 39.7491 119.397 39.7263C119.374 39.7036 119.351 39.6808 119.329 39.658C119.306 39.6353 119.283 39.6125 119.26 39.5897C119.238 39.567 119.215 39.5442 119.192 39.5215C119.169 39.4987 119.147 39.4759 119.124 39.4532C119.101 39.4304 119.078 39.4077 119.056 39.3849C119.033 39.3621 119.01 39.3394 118.987 39.3166C118.965 39.2938 118.942 39.2711 118.919 39.2483C118.896 39.2256 118.874 39.2028 118.851 39.18C118.828 39.1573 118.805 39.1345 118.783 39.1118C118.76 39.089 118.737 39.0662 118.714 39.0435C118.692 39.0207 118.669 38.9979 118.646 38.9752C118.623 38.9524 118.601 38.9297 118.578 38.9069C118.555 38.8841 118.532 38.8614 118.51 38.8386C118.487 38.8159 118.464 38.7931 118.441 38.7703C118.419 38.7476 118.396 38.7248 118.373 38.702C118.351 38.6793 118.328 38.6565 118.305 38.6338C118.282 38.611 118.26 38.5882 118.237 38.5655C118.214 38.5427 118.191 38.52 118.169 38.4972C118.146 38.4744 118.123 38.4517 118.1 38.4289C118.078 38.4062 118.055 38.3834 118.032 38.3606C118.009 38.3379 117.987 38.3151 117.964 38.2923C117.941 38.2696 117.918 38.2468 117.896 38.2241C117.873 38.2013 117.85 38.1785 117.827 38.1558C117.805 38.133 117.782 38.1103 117.759 38.0875C117.736 38.0647 117.714 38.042 117.691 38.0192C117.668 37.9964 117.645 37.9737 117.623 37.9509C117.6 37.9282 117.577 37.9054 117.554 37.8826C117.532 37.8599 117.509 37.8371 117.486 37.8144C117.463 37.7916 117.441 37.7688 117.418 37.7461C117.395 37.7233 117.372 37.7005 117.35 37.6778C117.327 37.655 117.304 37.6323 117.281 37.6095C117.259 37.5867 117.236 37.564 117.213 37.5412C117.19 37.5185 117.168 37.4957 117.145 37.4729C117.122 37.4502 117.099 37.4274 117.077 37.4046C117.054 37.3819 117.031 37.3591 117.008 37.3364C116.986 37.3136 116.963 37.2908 116.94 37.2681C116.917 37.2453 116.895 37.2226 116.872 37.1998C116.849 37.177 116.826 37.1543 116.804 37.1315C116.781 37.1087 116.758 37.086 116.735 37.0632C116.713 37.0405 116.69 37.0177 116.667 36.9949C116.644 36.9722 116.622 36.9494 116.599 36.9267C116.576 36.9039 116.553 36.8811 116.531 36.8584C116.341 36.6383 116.038 36.5625 115.583 36.5625H99.2333C98.2778 36.5625 97.9594 36.8053 97.9594 37.9206V40.3181C97.9594 40.8568 98.0276 41.1603 98.2399 41.3196C98.2627 41.3424 98.2854 41.3651 98.3082 41.3879C98.3309 41.4107 98.3537 41.4334 98.3764 41.4562C98.3992 41.4789 98.4219 41.5017 98.4447 41.5245C98.4674 41.5472 98.4902 41.57 98.5129 41.5928C98.5357 41.6155 98.5584 41.6383 98.5812 41.661C98.6039 41.6838 98.6267 41.7066 98.6494 41.7293C98.6722 41.7521 98.6949 41.7748 98.7177 41.7976C98.7404 41.8204 98.7632 41.8431 98.7859 41.8659C98.8087 41.8887 98.8314 41.9114 98.8542 41.9342C98.8769 41.9569 98.8997 41.9797 98.9224 42.0025C98.9452 42.0252 98.9679 42.048 98.9907 42.0707C99.0134 42.0935 99.0362 42.1163 99.0589 42.139C99.0817 42.1618 99.1044 42.1921 99.1272 42.2073C99.1499 42.2301 99.1727 42.2528 99.1954 42.2756C99.2182 42.2984 99.2409 42.3211 99.2637 42.3439C99.2864 42.3666 99.3092 42.3894 99.3319 42.4122C99.3547 42.4349 99.3774 42.4577 99.4002 42.4805C99.4229 42.5032 99.4457 42.526 99.4684 42.5487C99.4912 42.5715 99.5139 42.5943 99.5367 42.617C99.5594 42.6398 99.5822 42.6701 99.6049 42.6853C99.6277 42.7081 99.6504 42.7308 99.6732 42.7536C99.6959 42.7763 99.7187 42.7991 99.7414 42.8219C99.7641 42.8446 99.7869 42.8674 99.8096 42.8902C99.8324 42.9129 99.8552 42.9357 99.8779 42.9584C99.9007 42.9812 99.9234 43.004 99.9461 43.0267C99.9689 43.0495 99.9916 43.0722 100.014 43.095C100.037 43.1178 100.06 43.1405 100.083 43.1633C100.105 43.1861 100.128 43.2088 100.151 43.2316C100.174 43.2543 100.196 43.2771 100.219 43.2999C100.242 43.3226 100.265 43.3454 100.287 43.3681C100.31 43.3909 100.333 43.4137 100.356 43.4364C100.378 43.4592 100.401 43.482 100.424 43.5047C100.447 43.5275 100.469 43.5502 100.492 43.573C100.515 43.5958 100.538 43.6185 100.56 43.6413C100.583 43.664 100.606 43.6868 100.629 43.7096C100.651 43.7323 100.674 43.7551 100.697 43.7779C100.72 43.8006 100.742 43.8234 100.765 43.8461C100.788 43.8689 100.811 43.8917 100.833 43.9144C100.856 43.9372 100.879 43.9599 100.902 43.9827C100.924 44.0055 100.947 44.0282 100.97 44.051C100.993 44.0738 101.015 44.0965 101.038 44.1193C101.061 44.142 101.084 44.1648 101.106 44.1876C101.129 44.2103 101.152 44.2331 101.175 44.2558C101.197 44.2786 101.22 44.3014 101.243 44.3241C101.266 44.3469 101.288 44.3772 101.311 44.3924C101.334 44.4152 101.357 44.4379 101.379 44.4607C101.402 44.4835 101.425 44.5062 101.448 44.529C101.47 44.5517 101.493 44.5745 101.516 44.5973C101.539 44.62 101.561 44.6428 101.584 44.6655C101.607 44.6883 101.63 44.7111 101.652 44.7338C101.675 44.7566 101.698 44.7794 101.721 44.8021C101.743 44.8249 101.766 44.8552 101.789 44.8704C101.812 44.8932 101.834 44.9159 101.857 44.9387C101.88 44.9614 101.903 44.9842 101.925 45.007C102.107 45.2118 102.433 45.2649 102.995 45.2649H103.965V85.7196C103.965 88.5952 103.245 89.149 101.091 89.149H99.1802C98.2248 89.149 97.9821 89.4677 97.9821 90.3478V92.8971C97.9821 93.4054 98.0579 93.7013 98.2703 93.8758C98.293 93.8986 98.3158 93.9213 98.3385 93.9441C98.3613 93.9669 98.384 93.9896 98.4068 94.0124C98.4295 94.0351 98.4523 94.0579 98.475 94.0807C98.4978 94.1034 98.5205 94.1262 98.5433 94.1489C98.566 94.1717 98.5888 94.1945 98.6115 94.2172C98.6343 94.24 98.657 94.2627 98.6798 94.2855C98.7025 94.3083 98.7253 94.331 98.748 94.3538C98.7708 94.3766 98.7935 94.3993 98.8163 94.4221C98.839 94.4448 98.8617 94.4676 98.8845 94.4904C98.9072 94.5131 98.93 94.5359 98.9528 94.5586C98.9755 94.5814 98.9983 94.6042 99.021 94.6269C99.0438 94.6497 99.0665 94.6725 99.0892 94.6952C99.112 94.718 99.1347 94.7407 99.1575 94.7635C99.1802 94.7863 99.203 94.809 99.2258 94.8318C99.2485 94.8545 99.2712 94.8773 99.294 94.9001C99.3167 94.9228 99.3395 94.9456 99.3622 94.9683C99.385 94.9911 99.4077 95.0139 99.4305 95.0366C99.4532 95.0594 99.476 95.0822 99.4987 95.1049C99.5215 95.1277 99.5442 95.1504 99.567 95.1732C99.5897 95.196 99.6125 95.2187 99.6352 95.2415C99.658 95.2642 99.6807 95.287 99.7035 95.3098C99.7262 95.3325 99.749 95.3553 99.7717 95.3781C99.7945 95.4008 99.8172 95.4236 99.84 95.4463C99.8627 95.4691 99.8855 95.4919 99.9082 95.5146C99.931 95.5374 99.9537 95.5602 99.9765 95.5829C99.9992 95.6057 100.022 95.6284 100.045 95.6512C100.067 95.674 100.09 95.6967 100.113 95.7195C100.136 95.7422 100.158 95.765 100.181 95.7878C100.204 95.8105 100.227 95.8333 100.249 95.856C100.272 95.8788 100.295 95.9016 100.318 95.9243C100.34 95.9471 100.363 95.9699 100.386 95.9926C100.409 96.0154 100.431 96.0381 100.454 96.0609C100.477 96.0837 100.5 96.1064 100.522 96.1292C100.545 96.1519 100.568 96.1747 100.591 96.1975C100.613 96.2202 100.636 96.243 100.659 96.2658C100.682 96.2885 100.704 96.3113 100.727 96.334C100.75 96.3568 100.773 96.3796 100.795 96.4023C100.818 96.4251 100.841 96.4479 100.864 96.4706C100.886 96.4934 100.909 96.5161 100.932 96.5389C100.955 96.5617 100.977 96.5844 101 96.6072C101.023 96.6299 101.046 96.6527 101.068 96.6755C101.091 96.6982 101.114 96.721 101.137 96.7438C101.159 96.7665 101.182 96.7893 101.205 96.812C101.228 96.8348 101.25 96.8576 101.273 96.8803C101.296 96.9031 101.319 96.9258 101.341 96.9486C101.364 96.9714 101.387 96.9941 101.41 97.0169C101.432 97.0396 101.455 97.0624 101.478 97.0852C101.501 97.1079 101.523 97.1307 101.546 97.1535C101.569 97.1762 101.592 97.199 101.614 97.2217C101.637 97.2445 101.66 97.2673 101.683 97.29C101.705 97.3128 101.728 97.3355 101.751 97.3583C101.774 97.3811 101.796 97.4038 101.819 97.4266C101.842 97.4494 101.865 97.4721 101.887 97.4949C101.91 97.5176 101.933 97.5404 101.956 97.5632C102.13 97.768 102.426 97.8515 102.934 97.8515H119.359C120.239 97.8515 120.474 97.4494 120.474 96.5768V94.02C120.474 93.542 120.443 93.2537 120.254 93.0943C120.231 93.0716 120.208 93.0488 120.186 93.026C120.163 93.0033 120.14 92.9805 120.117 92.9578C120.095 92.935 120.072 92.9122 120.049 92.8895C120.026 92.8667 120.004 92.8439 119.981 92.8212C119.958 92.7984 119.935 92.7757 119.913 92.7529C119.89 92.7301 119.867 92.7074 119.844 92.6846C119.822 92.6619 119.799 92.6391 119.776 92.6163C119.753 92.5936 119.731 92.5708 119.708 92.5481C119.685 92.5253 119.662 92.5025 119.64 92.4798C119.617 92.457 119.594 92.4342 119.571 92.4115C119.549 92.3887 119.526 92.366 119.503 92.3432C119.48 92.3204 119.458 92.2977 119.435 92.2749C119.412 92.2522 119.389 92.2294 119.367 92.2066C119.344 92.1839 119.321 92.1611 119.298 92.1383C119.276 92.1156 119.253 92.0928 119.23 92.0701C119.207 92.0473 119.185 92.0245 119.162 92.0018C119.139 91.979 119.116 91.9562 119.094 91.9335C119.071 91.9107 119.048 91.888 119.025 91.8652C119.003 91.8424 118.98 91.8197 118.957 91.7969C118.934 91.7742 118.912 91.7514 118.889 91.7286C118.866 91.7059 118.843 91.6831 118.821 91.6604C118.798 91.6376 118.775 91.6148 118.752 91.5921C118.73 91.5693 118.707 91.5466 118.684 91.5238C118.661 91.501 118.639 91.4783 118.616 91.4555C118.593 91.4327 118.57 91.41 118.548 91.3872C118.525 91.3645 118.502 91.3417 118.479 91.3189C118.457 91.2962 118.434 91.2734 118.411 91.2506C118.388 91.2279 118.366 91.2051 118.343 91.1824C118.32 91.1596 118.297 91.1368 118.275 91.1141C118.252 91.0913 118.229 91.0686 118.206 91.0458C118.184 91.023 118.161 91.0003 118.138 90.9775C118.115 90.9548 118.093 90.932 118.07 90.9092C118.047 90.8865 118.024 90.8637 118.002 90.841C117.979 90.8182 117.956 90.7954 117.933 90.7727C117.911 90.7499 117.888 90.7271 117.865 90.7044C117.842 90.6816 117.82 90.6589 117.797 90.6361C117.774 90.6133 117.751 90.5906 117.729 90.5678C117.706 90.5451 117.683 90.5223 117.66 90.4995C117.638 90.4768 117.615 90.454 117.592 90.4312C117.569 90.4085 117.547 90.3857 117.524 90.363C117.501 90.3402 117.478 90.3174 117.456 90.2947C117.433 90.2719 117.41 90.2491 117.387 90.2264C117.365 90.2036 117.342 90.1809 117.319 90.1581C117.296 90.1353 117.274 90.1126 117.251 90.0898C117.228 90.0671 117.205 90.0443 117.183 90.0215C117.16 89.9988 117.137 89.976 117.114 89.9532C117.092 89.9305 117.069 89.9077 117.046 89.885C117.023 89.8622 117.001 89.8394 116.978 89.8167C116.955 89.7939 116.932 89.7712 116.91 89.7484C116.887 89.7256 116.864 89.7029 116.841 89.6801C116.819 89.6573 116.796 89.6346 116.773 89.6118C116.75 89.5891 116.728 89.5663 116.705 89.5435C116.682 89.5208 116.659 89.498 116.637 89.4753C116.614 89.4525 116.591 89.4297 116.568 89.407C116.424 89.2173 116.151 89.149 115.605 89.149H114.476V48.6943C114.476 45.7429 115.037 45.2649 117.183 45.2649H119.336C120.292 45.2649 120.534 45.1056 120.534 44.0662V41.6686C120.534 41.0692 120.436 40.7278 120.224 40.5381C120.201 40.5154 120.178 40.4926 120.155 40.4699L120.148 40.4774Z" fill="#C9E8F9"/>
<path d="M179.008 105.348C179.008 105.348 178.963 105.294 178.94 105.279C178.917 105.257 178.895 105.226 178.872 105.211C178.849 105.188 178.826 105.158 178.804 105.143C178.781 105.12 178.758 105.09 178.735 105.074C178.713 105.052 178.69 105.021 178.667 105.006C178.644 104.983 178.622 104.953 178.599 104.938C178.576 104.915 178.553 104.885 178.531 104.87C178.508 104.847 178.485 104.816 178.462 104.801C178.44 104.779 178.417 104.748 178.394 104.733C178.371 104.71 178.349 104.68 178.326 104.665C178.303 104.642 178.28 104.612 178.258 104.596C178.235 104.574 178.212 104.543 178.189 104.528C178.167 104.505 178.144 104.475 178.121 104.46C178.098 104.437 178.076 104.407 178.053 104.392C178.03 104.369 178.007 104.338 177.985 104.323C177.962 104.301 177.939 104.27 177.916 104.255C177.894 104.232 177.871 104.202 177.848 104.187C177.825 104.164 177.803 104.134 177.78 104.118C177.757 104.096 177.734 104.065 177.712 104.05C177.689 104.027 177.666 103.997 177.643 103.982C177.621 103.959 177.598 103.929 177.575 103.914C177.552 103.891 177.53 103.86 177.507 103.845C177.484 103.823 177.461 103.792 177.439 103.777C177.416 103.754 177.393 103.724 177.37 103.709C177.348 103.686 177.325 103.656 177.302 103.64C177.279 103.618 177.257 103.587 177.234 103.572C177.211 103.549 177.188 103.519 177.166 103.504C177.143 103.481 177.12 103.451 177.097 103.436C177.075 103.413 177.052 103.383 177.029 103.367C177.006 103.345 176.984 103.314 176.961 103.299C176.938 103.276 176.915 103.246 176.893 103.231C176.87 103.208 176.847 103.178 176.824 103.162C176.802 103.14 176.779 103.109 176.756 103.094C176.733 103.071 176.711 103.041 176.688 103.026C176.665 103.003 176.642 102.973 176.62 102.958C176.597 102.935 176.574 102.905 176.551 102.889C176.529 102.867 176.506 102.836 176.483 102.821C176.46 102.798 176.438 102.768 176.415 102.753C176.392 102.73 176.369 102.7 176.347 102.684C176.324 102.662 176.301 102.631 176.278 102.616C176.256 102.593 176.233 102.563 176.21 102.548C176.187 102.525 176.165 102.495 176.142 102.48C176.119 102.457 176.096 102.427 176.074 102.411C176.051 102.389 176.028 102.358 176.005 102.343C175.983 102.32 175.96 102.29 175.937 102.275C175.914 102.252 175.892 102.222 175.869 102.206C175.846 102.184 175.823 102.153 175.801 102.138C175.778 102.115 175.755 102.085 175.732 102.07C175.71 102.047 175.687 102.017 175.664 102.002C175.641 101.979 175.619 101.949 175.596 101.933C175.573 101.911 175.55 101.88 175.528 101.865C175.505 101.842 175.482 101.812 175.459 101.797C175.437 101.774 175.414 101.744 175.391 101.729C175.239 101.539 174.959 101.562 174.428 101.744C173.473 101.986 172.676 102.146 171.713 102.146C170.417 102.146 169.453 101.782 168.604 101.205C168.589 101.19 168.574 101.175 168.566 101.167C168.544 101.144 168.521 101.122 168.498 101.099C168.475 101.076 168.453 101.053 168.43 101.03C168.407 101.008 168.384 100.985 168.362 100.962C168.339 100.939 168.316 100.917 168.293 100.894C168.271 100.871 168.248 100.848 168.225 100.826C168.202 100.803 168.18 100.78 168.157 100.757C168.134 100.735 168.111 100.712 168.089 100.689C168.066 100.666 168.043 100.644 168.02 100.621C167.998 100.598 167.975 100.575 167.952 100.552C167.929 100.53 167.907 100.507 167.884 100.484C167.861 100.461 167.838 100.439 167.816 100.416C167.793 100.393 167.77 100.37 167.747 100.348C167.725 100.325 167.702 100.302 167.679 100.279C167.656 100.257 167.634 100.234 167.611 100.211C167.588 100.188 167.565 100.166 167.543 100.143C167.52 100.12 167.497 100.097 167.474 100.075C167.452 100.052 167.429 100.029 167.406 100.006C167.383 99.9835 167.361 99.9607 167.338 99.9379C167.315 99.9152 167.292 99.8924 167.27 99.8697C167.247 99.8469 167.224 99.8241 167.201 99.8014C167.179 99.7786 167.156 99.7558 167.133 99.7331C167.11 99.7103 167.088 99.6876 167.065 99.6648C167.042 99.642 167.019 99.6193 166.997 99.5965C166.974 99.5738 166.951 99.551 166.928 99.5282C166.906 99.5055 166.883 99.4827 166.86 99.4599C166.837 99.4372 166.815 99.4144 166.792 99.3917C166.769 99.3689 166.746 99.3461 166.724 99.3234C166.701 99.3006 166.678 99.2779 166.655 99.2551C166.633 99.2323 166.61 99.2096 166.587 99.1868C166.564 99.164 166.542 99.1413 166.519 99.1185C166.496 99.0958 166.473 99.073 166.451 99.0502C166.428 99.0275 166.405 99.0047 166.382 98.982C166.36 98.9592 166.337 98.9364 166.314 98.9137C166.291 98.8909 166.269 98.8681 166.246 98.8454C166.223 98.8226 166.2 98.7999 166.178 98.7771C166.155 98.7543 166.132 98.7316 166.109 98.7088C166.087 98.6861 166.064 98.6633 166.041 98.6405C166.018 98.6178 165.996 98.595 165.973 98.5722C165.95 98.5495 165.927 98.5267 165.905 98.504C165.882 98.4812 165.859 98.4584 165.836 98.4357C165.814 98.4129 165.791 98.3902 165.768 98.3674C165.745 98.3446 165.723 98.3219 165.7 98.2991C165.677 98.2763 165.654 98.2536 165.632 98.2308C165.609 98.2081 165.586 98.1853 165.563 98.1625C165.541 98.1398 165.518 98.117 165.495 98.0943C165.472 98.0715 165.45 98.0487 165.427 98.026C165.404 98.0032 165.381 97.9804 165.359 97.9577C165.336 97.9349 165.313 97.9122 165.29 97.8894C165.268 97.8666 165.245 97.8439 165.222 97.8211C165.199 97.7984 165.177 97.7756 165.154 97.7528C165.131 97.7301 165.108 97.7073 165.086 97.6846C165.063 97.6618 165.04 97.639 165.017 97.6163C164.995 97.5935 164.972 97.5708 164.949 97.548C164.926 97.5252 164.904 97.5025 164.881 97.4797C164.6 97.199 164.297 96.9183 163.978 96.6375C174.261 91.5617 177.507 79.612 177.507 69.0886C177.507 60.2192 175.194 51.4712 169.37 45.8264C169.347 45.8036 169.325 45.7809 169.302 45.7581C169.279 45.7353 169.256 45.7126 169.234 45.6898C169.211 45.6671 169.188 45.6443 169.165 45.6215C169.143 45.5988 169.12 45.576 169.097 45.5532C169.074 45.5305 169.052 45.5077 169.029 45.485C169.006 45.4622 168.983 45.4394 168.961 45.4167C168.938 45.3939 168.915 45.3712 168.892 45.3484C168.87 45.3256 168.847 45.3029 168.824 45.2801C168.801 45.2573 168.779 45.2346 168.756 45.2118C168.733 45.1891 168.71 45.1663 168.688 45.1435C168.665 45.1208 168.642 45.098 168.619 45.0753C168.597 45.0525 168.574 45.0297 168.551 45.007C168.528 44.9842 168.506 44.9614 168.483 44.9387C168.46 44.9159 168.437 44.8932 168.415 44.8704C168.392 44.8476 168.369 44.8249 168.346 44.8021C168.324 44.7794 168.301 44.7566 168.278 44.7338C168.255 44.7111 168.233 44.6883 168.21 44.6655C168.187 44.6428 168.164 44.62 168.142 44.5973C168.119 44.5745 168.096 44.5517 168.073 44.529C168.051 44.5062 168.028 44.4835 168.005 44.4607C167.982 44.4379 167.96 44.4152 167.937 44.3924C167.914 44.3696 167.891 44.3469 167.869 44.3241C167.846 44.3014 167.823 44.2786 167.8 44.2558C167.778 44.2331 167.755 44.2103 167.732 44.1876C167.709 44.1648 167.687 44.142 167.664 44.1193C167.641 44.0965 167.618 44.0738 167.596 44.051C167.573 44.0282 167.55 44.0055 167.527 43.9827C167.505 43.9599 167.482 43.9372 167.459 43.9144C167.436 43.8917 167.414 43.8689 167.391 43.8461C167.368 43.8234 167.345 43.8006 167.323 43.7779C167.3 43.7551 167.277 43.7323 167.254 43.7096C167.232 43.6868 167.209 43.664 167.186 43.6413C167.163 43.6185 167.141 43.5958 167.118 43.573C167.095 43.5502 167.072 43.5275 167.05 43.5047C167.027 43.482 167.004 43.4592 166.981 43.4364C166.959 43.4137 166.936 43.3909 166.913 43.3681C166.89 43.3454 166.868 43.3226 166.845 43.2999C166.822 43.2771 166.799 43.2543 166.777 43.2316C166.754 43.2088 166.731 43.1861 166.708 43.1633C166.686 43.1405 166.663 43.1178 166.64 43.095C166.617 43.0722 166.595 43.0495 166.572 43.0267C166.549 43.004 166.526 42.9812 166.504 42.9584C166.481 42.9357 166.458 42.9129 166.435 42.8902C166.413 42.8674 166.39 42.8446 166.367 42.8219C166.344 42.7991 166.322 42.7763 166.299 42.7536C166.276 42.7308 166.253 42.7081 166.231 42.6853C166.208 42.6625 166.185 42.6398 166.162 42.617C166.14 42.5943 166.117 42.5715 166.094 42.5487C166.071 42.526 166.049 42.5032 166.026 42.4805C166.003 42.4577 165.98 42.4349 165.958 42.4122C165.935 42.3894 165.912 42.3666 165.889 42.3439C165.867 42.3211 165.844 42.2984 165.821 42.2756C165.798 42.2528 165.776 42.2301 165.753 42.2073C165.73 42.1846 165.707 42.1618 165.685 42.139C161.703 38.2468 156.077 35.8189 148.395 35.8189C128.785 35.8189 123.204 52.0099 123.204 65.8109C123.204 74.5893 125.433 83.2841 131.136 88.9366C131.158 88.9593 131.181 88.9821 131.204 89.0048C131.227 89.0276 131.249 89.0504 131.272 89.0731C131.295 89.0959 131.318 89.1187 131.34 89.1414C131.363 89.1642 131.386 89.1869 131.409 89.2097C131.431 89.2325 131.454 89.2552 131.477 89.278C131.5 89.3008 131.522 89.3235 131.545 89.3463C131.568 89.369 131.591 89.3918 131.613 89.4146C131.636 89.4373 131.659 89.4601 131.682 89.4828C131.704 89.5056 131.727 89.5284 131.75 89.5511C131.773 89.5739 131.795 89.5967 131.818 89.6194C131.841 89.6422 131.864 89.6649 131.886 89.6877C131.909 89.7105 131.932 89.7332 131.955 89.756C131.977 89.7787 132 89.8015 132.023 89.8243C132.046 89.847 132.068 89.8698 132.091 89.8926C132.114 89.9153 132.137 89.9381 132.159 89.9608C132.182 89.9836 132.205 90.0064 132.228 90.0291C132.25 90.0519 132.273 90.0746 132.296 90.0974C132.319 90.1202 132.341 90.1429 132.364 90.1657C132.387 90.1884 132.41 90.2112 132.432 90.234C132.455 90.2567 132.478 90.2795 132.501 90.3023C132.523 90.325 132.546 90.3478 132.569 90.3705C132.592 90.3933 132.614 90.4161 132.637 90.4388C132.66 90.4616 132.683 90.4843 132.705 90.5071C132.728 90.5299 132.751 90.5526 132.774 90.5754C132.796 90.5982 132.819 90.6209 132.842 90.6437C132.865 90.6664 132.887 90.6892 132.91 90.712C132.933 90.7347 132.956 90.7575 132.978 90.7802C133.001 90.803 133.024 90.8258 133.047 90.8485C133.069 90.8713 133.092 90.8941 133.115 90.9168C133.138 90.9396 133.16 90.9623 133.183 90.9851C133.206 91.0079 133.229 91.0306 133.251 91.0534C133.274 91.0761 133.297 91.0989 133.32 91.1217C133.342 91.1444 133.365 91.1672 133.388 91.19C133.411 91.2127 133.433 91.2355 133.456 91.2582C133.479 91.281 133.502 91.3038 133.524 91.3265C133.547 91.3493 133.57 91.372 133.593 91.3948C133.615 91.4176 133.638 91.4403 133.661 91.4631C133.684 91.4859 133.706 91.5086 133.729 91.5314C133.752 91.5541 133.775 91.5769 133.797 91.5997C133.82 91.6224 133.843 91.6452 133.866 91.6679C133.888 91.6907 133.911 91.7135 133.934 91.7362C133.957 91.759 133.979 91.7817 134.002 91.8045C134.025 91.8273 134.048 91.85 134.07 91.8728C134.093 91.8956 134.116 91.9183 134.139 91.9411C134.161 91.9638 134.184 91.9866 134.207 92.0094C134.23 92.0321 134.252 92.0549 134.275 92.0776C134.298 92.1004 134.321 92.1232 134.343 92.1459C134.366 92.1687 134.389 92.1915 134.412 92.2142C134.434 92.237 134.457 92.2597 134.48 92.2825C134.503 92.3053 134.525 92.328 134.548 92.3508C134.571 92.3735 134.594 92.3963 134.616 92.4191C134.639 92.4418 134.662 92.4646 134.685 92.4874C134.707 92.5101 134.73 92.5329 134.753 92.5556C134.776 92.5784 134.798 92.6012 134.821 92.6239C138.704 96.5161 144.217 98.982 151.754 99.0806C156.145 99.0806 158.966 100.644 161.279 102.639C161.4 102.768 161.521 102.889 161.643 103.011C161.666 103.033 161.688 103.056 161.711 103.079C161.734 103.102 161.757 103.125 161.779 103.147C161.802 103.17 161.825 103.193 161.848 103.216C161.87 103.238 161.893 103.261 161.923 103.291C161.946 103.314 161.969 103.337 161.992 103.36C162.014 103.382 162.037 103.405 162.06 103.428C162.083 103.451 162.105 103.474 162.136 103.504C162.158 103.527 162.181 103.549 162.204 103.572C162.227 103.595 162.249 103.618 162.272 103.64C162.295 103.663 162.318 103.686 162.34 103.709C162.363 103.732 162.386 103.754 162.416 103.785C162.439 103.807 162.462 103.83 162.485 103.853C162.507 103.876 162.53 103.898 162.553 103.921C162.576 103.944 162.598 103.967 162.629 103.997C162.651 104.02 162.674 104.043 162.697 104.065C162.72 104.088 162.742 104.111 162.765 104.134C162.788 104.156 162.811 104.179 162.833 104.202C162.856 104.225 162.879 104.247 162.909 104.278C162.932 104.301 162.955 104.323 162.977 104.346C163 104.369 163.023 104.392 163.046 104.414C163.068 104.437 163.091 104.46 163.114 104.483C163.137 104.505 163.159 104.528 163.182 104.551C163.205 104.574 163.228 104.596 163.25 104.619C163.273 104.642 163.296 104.665 163.319 104.687C163.341 104.71 163.364 104.733 163.395 104.763C163.417 104.786 163.44 104.809 163.463 104.832C163.486 104.854 163.508 104.877 163.531 104.9C163.554 104.923 163.577 104.945 163.599 104.968C163.622 104.991 163.645 105.014 163.668 105.036C163.69 105.059 163.713 105.082 163.736 105.105C163.759 105.128 163.781 105.15 163.804 105.173C163.827 105.196 163.85 105.219 163.88 105.249C163.903 105.272 163.925 105.294 163.948 105.317C163.971 105.34 163.994 105.363 164.016 105.386C164.039 105.408 164.062 105.431 164.085 105.454C164.107 105.477 164.13 105.499 164.16 105.53C164.183 105.552 164.206 105.575 164.229 105.598C164.251 105.621 164.274 105.643 164.297 105.666C164.32 105.689 164.342 105.712 164.373 105.742C164.396 105.765 164.418 105.788 164.441 105.81C164.464 105.833 164.487 105.856 164.509 105.879C164.532 105.901 164.555 105.924 164.578 105.947C164.6 105.97 164.623 105.992 164.653 106.023C164.676 106.046 164.699 106.068 164.722 106.091C164.744 106.114 164.767 106.137 164.79 106.159C164.813 106.182 164.835 106.205 164.866 106.235C164.888 106.258 164.911 106.281 164.934 106.304C164.957 106.326 164.979 106.349 165.002 106.372C165.025 106.395 165.048 106.417 165.07 106.44C165.093 106.463 165.116 106.486 165.146 106.516C165.169 106.539 165.192 106.562 165.214 106.584C165.237 106.607 165.26 106.63 165.283 106.653C165.306 106.675 165.328 106.698 165.351 106.721C165.374 106.744 165.396 106.766 165.419 106.789C167.755 109.156 170.288 111.159 174.511 111.159C176.028 111.159 177.219 110.917 178.341 110.598C179.296 110.279 179.456 109.961 179.456 108.762V106.531C179.456 105.992 179.41 105.689 179.228 105.575C179.205 105.552 179.183 105.522 179.16 105.507L179.008 105.348ZM148.456 89.9532C144.338 89.9532 141.085 88.8683 138.522 87.0777C134.942 82.0854 133.775 75.1204 133.775 69.1189C133.775 57.9506 137.763 44.6276 152.035 44.6276C156.1 44.6276 159.315 45.7126 161.855 47.488C165.48 52.5486 166.64 59.6274 166.64 65.5378C166.64 75.9853 163.053 89.9457 148.463 89.9457L148.456 89.9532Z" fill="#C9E8F9"/>
<path d="M233.728 40.4699C233.728 40.4699 233.683 40.4243 233.66 40.4016C233.637 40.3788 233.615 40.356 233.592 40.3333C233.569 40.3105 233.546 40.2878 233.524 40.265C233.501 40.2422 233.478 40.2195 233.455 40.1967C233.433 40.174 233.41 40.1512 233.387 40.1284C233.364 40.1057 233.342 40.0829 233.319 40.0601C233.296 40.0374 233.273 40.0146 233.251 39.9919C233.228 39.9691 233.205 39.9463 233.182 39.9236C233.16 39.9008 233.137 39.8781 233.114 39.8553C233.091 39.8325 233.069 39.8098 233.046 39.787C233.023 39.7643 233 39.7415 232.978 39.7187C232.955 39.696 232.932 39.6732 232.909 39.6504C232.887 39.6277 232.864 39.6049 232.841 39.5822C232.818 39.5594 232.796 39.5366 232.773 39.5139C232.75 39.4911 232.727 39.4684 232.705 39.4456C232.682 39.4228 232.659 39.4001 232.636 39.3773C232.614 39.3545 232.591 39.3318 232.568 39.309C232.545 39.2863 232.523 39.2635 232.5 39.2407C232.477 39.218 232.454 39.1952 232.432 39.1725C232.409 39.1497 232.386 39.1269 232.363 39.1042C232.341 39.0814 232.318 39.0586 232.295 39.0359C232.272 39.0131 232.25 38.9904 232.227 38.9676C232.204 38.9448 232.181 38.9221 232.159 38.8993C232.136 38.8766 232.113 38.8538 232.09 38.831C232.068 38.8083 232.045 38.7855 232.022 38.7627C231.999 38.74 231.977 38.7172 231.954 38.6945C231.931 38.6717 231.908 38.6489 231.886 38.6262C231.863 38.6034 231.84 38.5807 231.817 38.5579C231.795 38.5351 231.772 38.5124 231.749 38.4896C231.726 38.4668 231.704 38.4441 231.681 38.4213C231.658 38.3986 231.635 38.3758 231.613 38.353C231.59 38.3303 231.567 38.3075 231.544 38.2848C231.522 38.262 231.499 38.2392 231.476 38.2165C231.453 38.1937 231.431 38.1709 231.408 38.1482C231.385 38.1254 231.362 38.1027 231.34 38.0799C231.317 38.0571 231.294 38.0344 231.271 38.0116C231.249 37.9889 231.226 37.9661 231.203 37.9433C231.181 37.9206 231.158 37.8978 231.135 37.875C231.112 37.8523 231.089 37.8295 231.067 37.8068C231.044 37.784 231.021 37.7612 230.998 37.7385C230.976 37.7157 230.953 37.693 230.93 37.6702C230.907 37.6474 230.885 37.6247 230.862 37.6019C230.839 37.5792 230.817 37.5564 230.794 37.5336C230.771 37.5109 230.748 37.4881 230.726 37.4653C230.703 37.4426 230.68 37.4198 230.657 37.3971C230.635 37.3743 230.612 37.3515 230.589 37.3288C230.566 37.306 230.543 37.2833 230.521 37.2605C230.498 37.2377 230.475 37.215 230.453 37.1922C230.43 37.1694 230.407 37.1467 230.384 37.1239C230.362 37.1012 230.339 37.0784 230.316 37.0556C230.293 37.0329 230.271 37.0101 230.248 36.9874C230.225 36.9646 230.202 36.9418 230.18 36.9191C230.157 36.8963 230.134 36.8735 230.111 36.8508C229.937 36.6308 229.634 36.5625 229.133 36.5625H213.663C212.784 36.5625 212.465 36.8053 212.465 37.9206V40.3181C212.465 40.872 212.518 41.1679 212.715 41.3348C212.738 41.3576 212.761 41.3803 212.784 41.4031C212.806 41.4258 212.829 41.4486 212.852 41.4714C212.875 41.4941 212.897 41.5169 212.92 41.5396C212.943 41.5624 212.966 41.5852 212.988 41.6079C213.011 41.6307 213.034 41.6535 213.057 41.6762C213.079 41.699 213.102 41.7217 213.125 41.7445C213.148 41.7673 213.17 41.79 213.193 41.8128C213.216 41.8355 213.239 41.8583 213.261 41.8811C213.284 41.9038 213.307 41.9266 213.33 41.9494C213.352 41.9721 213.375 41.9949 213.398 42.0176C213.421 42.0404 213.443 42.0632 213.466 42.0859C213.489 42.1087 213.512 42.1314 213.534 42.1542C213.557 42.177 213.58 42.1997 213.603 42.2225C213.625 42.2453 213.648 42.268 213.671 42.2908C213.694 42.3135 213.716 42.3363 213.739 42.3591C213.762 42.3818 213.785 42.4046 213.807 42.4273C213.83 42.4501 213.853 42.4729 213.876 42.4956C213.898 42.5184 213.921 42.5411 213.944 42.5639C213.967 42.5867 213.989 42.6094 214.012 42.6322C214.035 42.655 214.058 42.6777 214.08 42.7005C214.103 42.7232 214.126 42.746 214.149 42.7688C214.171 42.7915 214.194 42.8143 214.217 42.837C214.24 42.8598 214.262 42.8826 214.285 42.9053C214.308 42.9281 214.331 42.9509 214.353 42.9736C214.376 42.9964 214.399 43.0191 214.422 43.0419C214.444 43.0647 214.467 43.0874 214.49 43.1102C214.513 43.1329 214.535 43.1557 214.558 43.1785C214.581 43.2012 214.604 43.224 214.626 43.2468C214.649 43.2695 214.672 43.2923 214.695 43.315C214.717 43.3378 214.74 43.3606 214.763 43.3833C214.786 43.4061 214.808 43.4288 214.831 43.4516C214.854 43.4744 214.877 43.4971 214.899 43.5199C214.922 43.5427 214.945 43.5654 214.968 43.5882C214.99 43.6109 215.013 43.6337 215.036 43.6565C215.059 43.6792 215.081 43.702 215.104 43.7247C215.127 43.7475 215.15 43.7703 215.172 43.793C215.195 43.8158 215.218 43.8386 215.241 43.8613C215.263 43.8841 215.286 43.9068 215.309 43.9296C215.332 43.9524 215.354 43.9751 215.377 43.9979C215.4 44.0206 215.423 44.0434 215.445 44.0662C215.468 44.0889 215.491 44.1117 215.514 44.1344C215.536 44.1572 215.559 44.18 215.582 44.2027C215.605 44.2255 215.627 44.2483 215.65 44.271C215.673 44.2938 215.696 44.3165 215.718 44.3393C215.741 44.3621 215.764 44.3848 215.787 44.4076C215.809 44.4303 215.832 44.4531 215.855 44.4759C215.878 44.4986 215.9 44.5214 215.923 44.5442C215.946 44.5669 215.969 44.5897 215.991 44.6124C216.014 44.6352 216.037 44.658 216.06 44.6807C216.082 44.7035 216.105 44.7262 216.128 44.749C216.151 44.7718 216.173 44.7945 216.196 44.8173C216.219 44.8401 216.242 44.8628 216.264 44.8856C216.287 44.9083 216.31 44.9311 216.333 44.9539C216.355 44.9766 216.378 44.9994 216.401 45.0221C216.56 45.2194 216.863 45.2725 217.417 45.2725H218.388V72.2448C218.388 84.4526 213.049 88.9973 204.753 88.9973C201.985 88.9973 199.642 88.4586 197.739 87.3736C196.146 84.6878 195.335 80.9852 195.335 76.2205V48.7019C195.335 45.7505 195.896 45.2725 197.966 45.2725H200.12C201.159 45.2725 201.394 45.1132 201.394 44.0738V41.6762C201.394 41.0844 201.303 40.743 201.075 40.5533C201.053 40.5306 201.03 40.5078 201.007 40.485C200.984 40.4623 200.962 40.4395 200.939 40.4167C200.916 40.394 200.893 40.3712 200.871 40.3485C200.848 40.3257 200.825 40.3029 200.802 40.2802C200.78 40.2574 200.757 40.2347 200.734 40.2119C200.711 40.1891 200.689 40.1664 200.666 40.1436C200.643 40.1208 200.62 40.0981 200.598 40.0753C200.575 40.0526 200.552 40.0298 200.529 40.007C200.507 39.9843 200.484 39.9615 200.461 39.9388C200.438 39.916 200.416 39.8932 200.393 39.8705C200.37 39.8477 200.347 39.8249 200.325 39.8022C200.302 39.7794 200.279 39.7567 200.256 39.7339C200.234 39.7111 200.211 39.6884 200.188 39.6656C200.165 39.6429 200.143 39.6201 200.12 39.5973C200.097 39.5746 200.074 39.5518 200.052 39.529C200.029 39.5063 200.006 39.4835 199.983 39.4608C199.961 39.438 199.938 39.4152 199.915 39.3925C199.892 39.3697 199.87 39.347 199.847 39.3242C199.824 39.3014 199.801 39.2787 199.779 39.2559C199.756 39.2332 199.733 39.2104 199.71 39.1876C199.688 39.1649 199.665 39.1421 199.642 39.1193C199.619 39.0966 199.597 39.0738 199.574 39.0511C199.551 39.0283 199.528 39.0055 199.506 38.9828C199.483 38.96 199.46 38.9373 199.437 38.9145C199.415 38.8917 199.392 38.869 199.369 38.8462C199.346 38.8234 199.324 38.8007 199.301 38.7779C199.278 38.7552 199.255 38.7324 199.233 38.7096C199.21 38.6869 199.187 38.6641 199.164 38.6414C199.142 38.6186 199.119 38.5958 199.096 38.5731C199.073 38.5503 199.051 38.5275 199.028 38.5048C199.005 38.482 198.982 38.4593 198.96 38.4365C198.937 38.4137 198.914 38.391 198.891 38.3682C198.869 38.3455 198.846 38.3227 198.823 38.2999C198.8 38.2772 198.778 38.2544 198.755 38.2316C198.732 38.2089 198.709 38.1861 198.687 38.1634C198.664 38.1406 198.641 38.1178 198.618 38.0951C198.596 38.0723 198.573 38.0496 198.55 38.0268C198.527 38.004 198.505 37.9813 198.482 37.9585C198.459 37.9357 198.436 37.913 198.414 37.8902C198.391 37.8675 198.368 37.8447 198.345 37.8219C198.323 37.7992 198.3 37.7764 198.277 37.7537C198.254 37.7309 198.232 37.7081 198.209 37.6854C198.186 37.6626 198.163 37.6399 198.141 37.6171C198.118 37.5943 198.095 37.5716 198.072 37.5488C198.05 37.526 198.027 37.5033 198.004 37.4805C197.981 37.4578 197.959 37.435 197.936 37.4122C197.913 37.3895 197.89 37.3667 197.868 37.344C197.845 37.3212 197.822 37.2984 197.799 37.2757C197.777 37.2529 197.754 37.2301 197.731 37.2074C197.708 37.1846 197.686 37.1619 197.663 37.1391C197.64 37.1163 197.617 37.0936 197.595 37.0708C197.572 37.0481 197.549 37.0253 197.526 37.0025C197.504 36.9798 197.481 36.957 197.458 36.9342C197.435 36.9115 197.413 36.8887 197.39 36.866C197.193 36.6383 196.867 36.5701 196.366 36.5701H180.1C179.145 36.5701 178.826 36.8129 178.826 37.9282V40.3257C178.826 40.8644 178.895 41.1679 179.107 41.3272C179.13 41.35 179.152 41.3727 179.175 41.3955C179.198 41.4183 179.221 41.441 179.243 41.4638C179.266 41.4865 179.289 41.5093 179.312 41.5321C179.334 41.5548 179.357 41.5776 179.38 41.6003C179.403 41.6231 179.425 41.6459 179.448 41.6686C179.471 41.6914 179.494 41.7141 179.516 41.7369C179.539 41.7597 179.562 41.7824 179.585 41.8052C179.607 41.828 179.63 41.8507 179.653 41.8735C179.676 41.8962 179.698 41.919 179.721 41.9418C179.744 41.9645 179.767 41.9873 179.789 42.01C179.812 42.0328 179.835 42.0556 179.858 42.0783C179.88 42.1011 179.903 42.1239 179.926 42.1466C179.949 42.1694 179.971 42.1921 179.994 42.2149C180.017 42.2377 180.04 42.2604 180.062 42.2832C180.085 42.3059 180.108 42.3287 180.131 42.3515C180.153 42.3742 180.176 42.397 180.199 42.4198C180.222 42.4425 180.244 42.4653 180.267 42.488C180.29 42.5108 180.313 42.5336 180.335 42.5563C180.358 42.5791 180.381 42.6018 180.404 42.6246C180.426 42.6474 180.449 42.6701 180.472 42.6929C180.495 42.7157 180.517 42.7384 180.54 42.7612C180.563 42.7839 180.586 42.8067 180.608 42.8295C180.631 42.8522 180.654 42.875 180.677 42.8977C180.699 42.9205 180.722 42.9433 180.745 42.966C180.768 42.9888 180.79 43.0116 180.813 43.0343C180.836 43.0571 180.859 43.0798 180.881 43.1026C180.904 43.1254 180.927 43.1481 180.95 43.1709C180.972 43.1936 180.995 43.2164 181.018 43.2392C181.041 43.2619 181.063 43.2847 181.086 43.3075C181.109 43.3302 181.132 43.353 181.154 43.3757C181.177 43.3985 181.2 43.4213 181.223 43.444C181.245 43.4668 181.268 43.4895 181.291 43.5123C181.314 43.5351 181.336 43.5578 181.359 43.5806C181.382 43.6033 181.405 43.6261 181.427 43.6489C181.45 43.6716 181.473 43.6944 181.496 43.7172C181.518 43.7399 181.541 43.7627 181.564 43.7854C181.587 43.8082 181.609 43.831 181.632 43.8537C181.655 43.8765 181.678 43.8992 181.7 43.922C181.723 43.9448 181.746 43.9675 181.769 43.9903C181.791 44.0131 181.814 44.0358 181.837 44.0586C181.86 44.0813 181.882 44.1041 181.905 44.1269C181.928 44.1496 181.951 44.1724 181.973 44.1951C181.996 44.2179 182.019 44.2407 182.042 44.2634C182.064 44.2862 182.087 44.309 182.11 44.3317C182.133 44.3545 182.155 44.3772 182.178 44.4C182.201 44.4228 182.224 44.4455 182.246 44.4683C182.269 44.491 182.292 44.5138 182.315 44.5366C182.337 44.5593 182.36 44.5821 182.383 44.6049C182.406 44.6276 182.428 44.6504 182.451 44.6731C182.474 44.6959 182.497 44.7187 182.519 44.7414C182.542 44.7642 182.565 44.7869 182.588 44.8097C182.61 44.8325 182.633 44.8552 182.656 44.878C182.679 44.9008 182.701 44.9235 182.724 44.9463C182.747 44.969 182.77 44.9918 182.792 45.0146C182.974 45.2194 183.3 45.2725 183.862 45.2725H184.832V73.1249C184.832 79.9913 186.432 85.3934 189.746 89.0807C189.769 89.1035 189.792 89.1262 189.814 89.149C189.837 89.1718 189.86 89.1945 189.883 89.2173C189.905 89.24 189.928 89.2628 189.951 89.2856C189.974 89.3083 189.996 89.3311 190.019 89.3539C190.042 89.3766 190.065 89.3994 190.087 89.4221C190.11 89.4449 190.133 89.4677 190.156 89.4904C190.178 89.5132 190.201 89.536 190.224 89.5587C190.247 89.5815 190.269 89.6042 190.292 89.627C190.315 89.6498 190.338 89.6725 190.36 89.6953C190.383 89.718 190.406 89.7408 190.429 89.7636C190.451 89.7863 190.474 89.8091 190.497 89.8319C190.52 89.8546 190.542 89.8774 190.565 89.9001C190.588 89.9229 190.611 89.9457 190.633 89.9684C190.656 89.9912 190.679 90.0139 190.702 90.0367C190.724 90.0595 190.747 90.0822 190.77 90.105C190.793 90.1278 190.815 90.1505 190.838 90.1733C190.861 90.196 190.884 90.2188 190.906 90.2416C190.929 90.2643 190.952 90.2871 190.975 90.3098C190.997 90.3326 191.02 90.3554 191.043 90.3781C191.066 90.4009 191.088 90.4236 191.111 90.4464C191.134 90.4692 191.157 90.4919 191.179 90.5147C191.202 90.5375 191.225 90.5602 191.248 90.583C191.27 90.6057 191.293 90.6285 191.316 90.6513C191.339 90.674 191.361 90.6968 191.384 90.7195C191.407 90.7423 191.43 90.7651 191.452 90.7878C191.475 90.8106 191.498 90.8334 191.521 90.8561C191.543 90.8789 191.566 90.9016 191.589 90.9244C191.612 90.9472 191.634 90.9699 191.657 90.9927C191.68 91.0154 191.703 91.0382 191.725 91.061C191.748 91.0837 191.771 91.1065 191.794 91.1292C191.816 91.152 191.839 91.1748 191.862 91.1975C191.885 91.2203 191.907 91.2431 191.93 91.2658C191.953 91.2886 191.976 91.3113 191.998 91.3341C192.021 91.3569 192.044 91.3796 192.067 91.4024C192.089 91.4251 192.112 91.4479 192.135 91.4707C192.157 91.4934 192.18 91.5162 192.203 91.539C192.226 91.5617 192.249 91.5845 192.271 91.6072C192.294 91.63 192.317 91.6528 192.339 91.6755C192.362 91.6983 192.385 91.721 192.408 91.7438C192.43 91.7666 192.453 91.7893 192.476 91.8121C192.499 91.8349 192.521 91.8576 192.544 91.8804C192.567 91.9031 192.59 91.9259 192.612 91.9487C192.635 91.9714 192.658 91.9942 192.681 92.0169C192.703 92.0397 192.726 92.0625 192.749 92.0852C192.772 92.108 192.794 92.1308 192.817 92.1535C192.84 92.1763 192.863 92.199 192.885 92.2218C192.908 92.2446 192.931 92.2673 192.954 92.2901C192.976 92.3128 192.999 92.3356 193.022 92.3584C193.045 92.3811 193.067 92.4039 193.09 92.4267C193.113 92.4494 193.136 92.4722 193.158 92.4949C193.181 92.5177 193.204 92.5405 193.227 92.5632C193.249 92.586 193.272 92.6087 193.295 92.6315C193.318 92.6543 193.34 92.677 193.363 92.6998C193.386 92.7226 193.409 92.7453 193.431 92.7681C196.7 96.4478 201.667 98.4205 208.446 98.4205C221.125 98.4205 227.98 91.3189 227.98 76.4026V48.3226C227.98 45.6064 228.542 45.2118 230.695 45.2118H232.849C233.888 45.2118 234.047 45.0525 234.047 44.0131V41.6155C234.047 41.0161 233.971 40.6671 233.759 40.4774C233.736 40.4547 233.713 40.4319 233.691 40.4092L233.728 40.4699Z" fill="#C9E8F9"/>
<path d="M278.757 82.093C278.757 82.093 278.712 82.0474 278.689 82.0247C278.674 81.9943 278.644 81.9791 278.621 81.9564C278.606 81.926 278.575 81.9109 278.553 81.8881C278.537 81.8578 278.507 81.8426 278.484 81.8198C278.469 81.7895 278.439 81.7743 278.416 81.7515C278.401 81.7212 278.371 81.706 278.348 81.6833C278.333 81.6529 278.302 81.6377 278.28 81.615C278.264 81.5846 278.234 81.5694 278.211 81.5467C278.196 81.5163 278.166 81.5012 278.143 81.4784C278.128 81.448 278.098 81.4329 278.075 81.4101C278.06 81.3798 278.029 81.3646 278.007 81.3418C277.991 81.3115 277.961 81.2963 277.938 81.2735C277.923 81.2432 277.893 81.228 277.87 81.2053C277.855 81.1749 277.825 81.1597 277.802 81.137C277.787 81.1066 277.756 81.0915 277.734 81.0687C277.718 81.0383 277.688 81.0232 277.665 81.0004C277.65 80.9701 277.62 80.9549 277.597 80.9321C277.582 80.9018 277.552 80.8866 277.529 80.8638C277.514 80.8335 277.483 80.8183 277.461 80.7956C277.445 80.7652 277.415 80.75 277.392 80.7273C277.377 80.6969 277.347 80.6817 277.324 80.659C277.309 80.6286 277.279 80.6135 277.256 80.5907C277.241 80.5604 277.21 80.5452 277.188 80.5224C277.172 80.4921 277.142 80.4769 277.119 80.4541C277.104 80.4238 277.074 80.4086 277.051 80.3858C277.036 80.3555 277.006 80.3403 276.983 80.3176C276.968 80.2872 276.937 80.272 276.915 80.2493C276.899 80.2189 276.869 80.2038 276.846 80.181C276.831 80.1506 276.801 80.1355 276.778 80.1127C276.763 80.0824 276.733 80.0672 276.71 80.0444C276.695 80.0141 276.664 79.9989 276.642 79.9761C276.626 79.9458 276.596 79.9306 276.573 79.9079C276.558 79.8775 276.528 79.8623 276.505 79.8396C276.49 79.8092 276.46 79.794 276.437 79.7713C276.422 79.7409 276.391 79.7258 276.369 79.703C276.353 79.6727 276.323 79.6575 276.3 79.6347C276.285 79.6044 276.255 79.5892 276.232 79.5664C276.217 79.5361 276.187 79.5209 276.164 79.4981C276.149 79.4678 276.118 79.4526 276.096 79.4299C276.08 79.3995 276.05 79.3843 276.027 79.3616C276.012 79.3312 275.982 79.3161 275.959 79.2933C275.944 79.263 275.914 79.2478 275.891 79.225C275.876 79.1947 275.845 79.1795 275.823 79.1567C275.808 79.1264 275.777 79.1112 275.754 79.0884C275.739 79.0581 275.709 79.0429 275.686 79.0202C275.671 78.9898 275.641 78.9746 275.618 78.9519C275.603 78.9215 275.572 78.9064 275.55 78.8836C275.534 78.8532 275.504 78.8381 275.481 78.8153C275.466 78.785 275.436 78.7698 275.413 78.747C275.398 78.7167 275.368 78.7015 275.345 78.6787C275.33 78.6484 275.299 78.6332 275.277 78.6105C275.262 78.5801 275.231 78.5649 275.208 78.5422C275.193 78.5118 275.163 78.4966 275.14 78.4739C275.125 78.4435 275.095 78.4284 275.072 78.4056C274.905 78.1628 274.609 78.049 274.116 78.049H271.728C270.689 78.049 270.37 78.3677 270.211 79.3237L269.574 85.7044C269.013 88.8986 268.459 89.2932 264.471 89.2932H252.815V72.0476H259.329L259.367 73.4967C259.451 74.0354 259.557 74.3541 259.784 74.5437C259.807 74.5665 259.83 74.5893 259.853 74.612C259.875 74.6348 259.898 74.6576 259.921 74.6803C259.944 74.7031 259.966 74.7258 259.989 74.7486C260.012 74.7714 260.035 74.7941 260.057 74.8169C260.08 74.8396 260.103 74.8624 260.125 74.8852C260.148 74.9079 260.171 74.9307 260.194 74.9534C260.216 74.9762 260.239 74.999 260.262 75.0217C260.285 75.0445 260.307 75.0673 260.33 75.09C260.353 75.1128 260.376 75.1355 260.399 75.1583C260.421 75.1811 260.444 75.2038 260.467 75.2266C260.49 75.2493 260.512 75.2721 260.535 75.2949C260.558 75.3176 260.58 75.3404 260.603 75.3632C260.626 75.3859 260.649 75.4087 260.671 75.4314C260.694 75.4542 260.717 75.477 260.74 75.4997C260.762 75.5225 260.785 75.5452 260.808 75.568C260.831 75.5908 260.853 75.6135 260.876 75.6363C260.899 75.6591 260.922 75.6818 260.944 75.7046C260.967 75.7273 260.99 75.7501 261.013 75.7729C261.035 75.7956 261.058 75.8184 261.081 75.8411C261.104 75.8639 261.126 75.8867 261.149 75.9094C261.172 75.9322 261.195 75.955 261.217 75.9777C261.24 76.0005 261.263 76.0232 261.286 76.046C261.308 76.0688 261.331 76.0915 261.354 76.1143C261.377 76.137 261.399 76.1598 261.422 76.1826C261.445 76.2053 261.468 76.2281 261.49 76.2509C261.513 76.2736 261.536 76.2964 261.559 76.3191C261.581 76.3419 261.604 76.3647 261.627 76.3874C261.65 76.4102 261.672 76.4329 261.695 76.4557C261.718 76.4785 261.741 76.5012 261.763 76.524C261.786 76.5467 261.809 76.5695 261.832 76.5923C261.854 76.615 261.877 76.6378 261.9 76.6606C261.923 76.6833 261.945 76.7061 261.968 76.7288C261.991 76.7516 262.014 76.7744 262.036 76.7971C262.059 76.8199 262.082 76.8426 262.105 76.8654C262.127 76.8882 262.15 76.9109 262.173 76.9337C262.196 76.9565 262.218 76.9792 262.241 77.002C262.264 77.0247 262.287 77.0475 262.309 77.0703C262.332 77.093 262.355 77.1158 262.378 77.1385C262.4 77.1613 262.423 77.1841 262.446 77.2068C262.469 77.2296 262.491 77.2524 262.514 77.2751C262.537 77.2979 262.56 77.3206 262.582 77.3434C262.605 77.3662 262.628 77.3889 262.651 77.4117C262.673 77.4344 262.696 77.4572 262.719 77.48C262.742 77.5027 262.764 77.5255 262.787 77.5483C262.81 77.571 262.833 77.5938 262.855 77.6165C262.878 77.6393 262.901 77.6621 262.924 77.6848C262.946 77.7076 262.969 77.7303 262.992 77.7531C263.015 77.7759 263.037 77.7986 263.06 77.8214C263.083 77.8442 263.106 77.8669 263.128 77.8897C263.151 77.9124 263.174 77.9352 263.197 77.958C263.219 77.9807 263.242 78.0035 263.265 78.0262C263.288 78.049 263.31 78.0718 263.333 78.0945C263.356 78.1173 263.379 78.14 263.401 78.1628C263.424 78.1856 263.447 78.2083 263.47 78.2311C263.674 78.4587 264.001 78.5346 264.562 78.5346H266.791C267.747 78.5346 267.906 78.1325 267.906 77.2599V61.9415C267.906 61.3876 267.853 61.0614 267.64 60.8793C267.618 60.8565 267.595 60.8338 267.572 60.811C267.549 60.7882 267.527 60.7655 267.504 60.7427C267.481 60.72 267.458 60.6972 267.436 60.6744C267.413 60.6517 267.39 60.6289 267.367 60.6061C267.345 60.5834 267.322 60.5606 267.299 60.5379C267.276 60.5151 267.254 60.4923 267.231 60.4696C267.208 60.4468 267.185 60.4241 267.163 60.4013C267.14 60.3785 267.117 60.3558 267.094 60.333C267.072 60.3102 267.049 60.2875 267.026 60.2647C267.003 60.242 266.981 60.2192 266.958 60.1964C266.935 60.1737 266.912 60.1509 266.89 60.1282C266.867 60.1054 266.844 60.0826 266.821 60.0599C266.799 60.0371 266.776 60.0144 266.753 59.9916C266.73 59.9688 266.708 59.9461 266.685 59.9233C266.662 59.9005 266.639 59.8778 266.617 59.855C266.594 59.8323 266.571 59.8095 266.548 59.7867C266.526 59.764 266.503 59.7412 266.48 59.7185C266.457 59.6957 266.435 59.6729 266.412 59.6502C266.389 59.6274 266.366 59.6046 266.344 59.5819C266.321 59.5591 266.298 59.5364 266.275 59.5136C266.253 59.4908 266.23 59.4681 266.207 59.4453C266.184 59.4226 266.162 59.3998 266.139 59.377C266.116 59.3543 266.093 59.3315 266.071 59.3087C266.048 59.286 266.025 59.2632 266.002 59.2405C265.98 59.2177 265.957 59.1949 265.934 59.1722C265.911 59.1494 265.889 59.1267 265.866 59.1039C265.843 59.0811 265.82 59.0584 265.798 59.0356C265.775 59.0128 265.752 58.9901 265.729 58.9673C265.707 58.9446 265.684 58.9218 265.661 58.899C265.638 58.8763 265.616 58.8535 265.593 58.8308C265.57 58.808 265.547 58.7852 265.525 58.7625C265.502 58.7397 265.479 58.717 265.456 58.6942C265.434 58.6714 265.411 58.6487 265.388 58.6259C265.365 58.6031 265.343 58.5804 265.32 58.5576C265.297 58.5349 265.274 58.5121 265.252 58.4893C265.229 58.4666 265.206 58.4438 265.183 58.4211C265.161 58.3983 265.138 58.3755 265.115 58.3528C265.092 58.33 265.07 58.3072 265.047 58.2845C265.024 58.2617 265.001 58.239 264.979 58.2162C264.956 58.1934 264.933 58.1707 264.91 58.1479C264.888 58.1252 264.865 58.1024 264.842 58.0796C264.819 58.0569 264.797 58.0341 264.774 58.0113C264.751 57.9886 264.728 57.9658 264.706 57.9431C264.683 57.9203 264.66 57.8975 264.637 57.8748C264.615 57.852 264.592 57.8293 264.569 57.8065C264.546 57.7837 264.524 57.761 264.501 57.7382C264.478 57.7154 264.455 57.6927 264.433 57.6699C264.41 57.6472 264.387 57.6244 264.364 57.6016C264.342 57.5789 264.319 57.5561 264.296 57.5334C264.273 57.5106 264.251 57.4878 264.228 57.4651C264.205 57.4423 264.182 57.4195 264.16 57.3968C264.137 57.374 264.114 57.3513 264.092 57.3285C264.069 57.3057 264.046 57.283 264.023 57.2602C264.001 57.2375 263.978 57.2147 263.955 57.1919C263.781 56.9795 263.462 56.9036 262.878 56.9036H260.808C259.769 56.9036 259.534 57.063 259.375 58.1783L259.299 61.0538C259.14 62.8899 258.26 63.3679 257.229 63.3679H252.83V45.2498H265.108C266.397 45.2498 267.451 45.2498 268.315 45.318L268.543 48.7702C268.588 49.5668 268.717 50.0069 268.983 50.2497C269.005 50.2725 269.028 50.2952 269.051 50.318C269.074 50.3407 269.096 50.3635 269.119 50.3863C269.142 50.409 269.165 50.4318 269.187 50.4545C269.21 50.4773 269.233 50.5001 269.256 50.5228C269.278 50.5456 269.301 50.5684 269.324 50.5911C269.347 50.6139 269.369 50.6366 269.392 50.6594C269.415 50.6822 269.438 50.7049 269.46 50.7277C269.483 50.7504 269.506 50.7732 269.529 50.796C269.551 50.8187 269.574 50.8415 269.597 50.8643C269.62 50.887 269.642 50.9098 269.665 50.9325C269.688 50.9553 269.711 50.9781 269.733 51.0008C269.756 51.0236 269.779 51.0463 269.802 51.0691C269.824 51.0919 269.847 51.1146 269.87 51.1374C269.893 51.1602 269.915 51.1829 269.938 51.2057C269.961 51.2284 269.984 51.2512 270.006 51.274C270.029 51.2967 270.052 51.3195 270.075 51.3422C270.097 51.365 270.12 51.3878 270.143 51.4105C270.166 51.4333 270.188 51.456 270.211 51.4788C270.234 51.5016 270.257 51.5243 270.279 51.5471C270.302 51.5699 270.325 51.5926 270.348 51.6154C270.37 51.6381 270.393 51.6609 270.416 51.6837C270.439 51.7064 270.461 51.7292 270.484 51.7519C270.507 51.7747 270.53 51.7975 270.552 51.8202C270.575 51.843 270.598 51.8658 270.621 51.8885C270.643 51.9113 270.666 51.934 270.689 51.9568C270.712 51.9796 270.734 52.0023 270.757 52.0251C270.78 52.0478 270.803 52.0706 270.825 52.0934C270.848 52.1161 270.871 52.1389 270.894 52.1617C270.916 52.1844 270.939 52.2072 270.962 52.2299C270.985 52.2527 271.007 52.2755 271.03 52.2982C271.053 52.321 271.076 52.3437 271.098 52.3665C271.121 52.3893 271.144 52.412 271.167 52.4348C271.189 52.4576 271.212 52.4803 271.235 52.5031C271.258 52.5258 271.28 52.5486 271.303 52.5714C271.326 52.5941 271.349 52.6169 271.371 52.6396C271.394 52.6624 271.417 52.6852 271.44 52.7079C271.462 52.7307 271.485 52.7534 271.508 52.7762C271.531 52.799 271.553 52.8217 271.576 52.8445C271.599 52.8673 271.622 52.89 271.644 52.9128C271.667 52.9355 271.69 52.9583 271.713 52.9811C271.735 53.0038 271.758 53.0266 271.781 53.0493C271.804 53.0721 271.826 53.0949 271.849 53.1176C271.872 53.1404 271.895 53.1632 271.917 53.1859C271.94 53.2087 271.963 53.2314 271.986 53.2542C272.008 53.277 272.031 53.2997 272.054 53.3225C272.077 53.3452 272.099 53.368 272.122 53.3908C272.145 53.4135 272.168 53.4363 272.19 53.4591C272.213 53.4818 272.236 53.5046 272.259 53.5273C272.281 53.5501 272.304 53.5729 272.327 53.5956C272.35 53.6184 272.372 53.6411 272.395 53.6639C272.418 53.6867 272.441 53.7094 272.463 53.7322C272.486 53.755 272.509 53.7777 272.532 53.8005C272.554 53.8232 272.577 53.846 272.6 53.8688C272.623 53.8915 272.645 53.9143 272.668 53.937C272.903 54.2102 273.267 54.2861 273.806 54.2861H276.202C277.476 54.2861 277.559 53.8839 277.4 52.3741L276.922 44.0813C276.801 42.2301 276.626 41.2893 276.134 40.8189C276.111 40.7961 276.088 40.7733 276.065 40.7506C276.043 40.7278 276.02 40.7051 275.997 40.6823C275.974 40.6595 275.952 40.6368 275.929 40.614C275.906 40.5912 275.883 40.5685 275.861 40.5457C275.838 40.523 275.815 40.5002 275.792 40.4774C275.77 40.4547 275.747 40.4319 275.724 40.4092C275.701 40.3864 275.679 40.3636 275.656 40.3409C275.633 40.3181 275.61 40.2954 275.588 40.2726C275.565 40.2498 275.542 40.2271 275.519 40.2043C275.497 40.1815 275.474 40.1588 275.451 40.136C275.428 40.1133 275.406 40.0905 275.383 40.0677C275.36 40.045 275.337 40.0222 275.315 39.9995C275.292 39.9767 275.269 39.9539 275.246 39.9312C275.224 39.9084 275.201 39.8856 275.178 39.8629C275.155 39.8401 275.133 39.8174 275.11 39.7946C275.087 39.7718 275.064 39.7491 275.042 39.7263C275.019 39.7036 274.996 39.6808 274.973 39.658C274.951 39.6353 274.928 39.6125 274.905 39.5897C274.882 39.567 274.86 39.5442 274.837 39.5215C274.814 39.4987 274.791 39.4759 274.769 39.4532C274.746 39.4304 274.723 39.4077 274.7 39.3849C274.678 39.3621 274.655 39.3394 274.632 39.3166C274.609 39.2938 274.587 39.2711 274.564 39.2483C274.541 39.2256 274.518 39.2028 274.496 39.18C274.473 39.1573 274.45 39.1345 274.427 39.1118C274.405 39.089 274.382 39.0662 274.359 39.0435C274.336 39.0207 274.314 38.9979 274.291 38.9752C274.268 38.9524 274.245 38.9297 274.223 38.9069C274.2 38.8841 274.177 38.8614 274.154 38.8386C274.132 38.8159 274.109 38.7931 274.086 38.7703C274.063 38.7476 274.041 38.7248 274.018 38.702C273.995 38.6793 273.972 38.6565 273.95 38.6338C273.927 38.611 273.904 38.5882 273.881 38.5655C273.859 38.5427 273.836 38.52 273.813 38.4972C273.79 38.4744 273.768 38.4517 273.745 38.4289C273.722 38.4062 273.699 38.3834 273.677 38.3606C273.654 38.3379 273.631 38.3151 273.608 38.2923C273.586 38.2696 273.563 38.2468 273.54 38.2241C273.517 38.2013 273.495 38.1785 273.472 38.1558C273.449 38.133 273.426 38.1103 273.404 38.0875C273.381 38.0647 273.358 38.042 273.335 38.0192C273.313 37.9964 273.29 37.9737 273.267 37.9509C273.244 37.9282 273.222 37.9054 273.199 37.8826C273.176 37.8599 273.153 37.8371 273.131 37.8144C273.108 37.7916 273.085 37.7688 273.062 37.7461C273.04 37.7233 273.017 37.7005 272.994 37.6778C272.971 37.655 272.949 37.6323 272.926 37.6095C272.903 37.5867 272.88 37.564 272.858 37.5412C272.835 37.5185 272.812 37.4957 272.789 37.4729C272.767 37.4502 272.744 37.4274 272.721 37.4046C272.698 37.3819 272.676 37.3591 272.653 37.3364C272.63 37.3136 272.607 37.2908 272.585 37.2681C272.562 37.2453 272.539 37.2226 272.516 37.1998C272.494 37.177 272.471 37.1543 272.448 37.1315C271.993 36.6232 271.235 36.5776 269.893 36.5776H237.603C236.565 36.5776 236.246 36.8204 236.246 37.8523V40.3257C236.246 40.8796 236.337 41.1982 236.557 41.3803C236.58 41.4031 236.603 41.4258 236.625 41.4486C236.648 41.4714 236.671 41.4941 236.694 41.5169C236.716 41.5396 236.739 41.5624 236.762 41.5852C236.785 41.6079 236.807 41.6307 236.83 41.6535C236.853 41.6762 236.875 41.699 236.898 41.7217C236.921 41.7445 236.944 41.7673 236.966 41.79C236.989 41.8128 237.012 41.8355 237.035 41.8583C237.057 41.8811 237.08 41.9038 237.103 41.9266C237.126 41.9493 237.149 41.9721 237.171 41.9949C237.194 42.0176 237.217 42.0404 237.239 42.0632C237.262 42.0859 237.285 42.1087 237.308 42.1314C237.33 42.1542 237.353 42.177 237.376 42.1997C237.399 42.2225 237.421 42.2452 237.444 42.268C237.467 42.2908 237.49 42.3135 237.512 42.3363C237.535 42.3591 237.558 42.3818 237.581 42.4046C237.603 42.4273 237.626 42.4501 237.649 42.4729C237.672 42.4956 237.694 42.5184 237.717 42.5411C237.74 42.5639 237.763 42.5867 237.785 42.6094C237.808 42.6322 237.831 42.655 237.854 42.6777C237.876 42.7005 237.899 42.7232 237.922 42.746C237.945 42.7688 237.967 42.7915 237.99 42.8143C238.013 42.837 238.036 42.8598 238.058 42.8826C238.081 42.9053 238.104 42.9281 238.127 42.9509C238.149 42.9736 238.172 42.9964 238.195 43.0191C238.218 43.0419 238.24 43.0647 238.263 43.0874C238.286 43.1102 238.309 43.1329 238.331 43.1557C238.354 43.1785 238.377 43.2012 238.4 43.224C238.422 43.2468 238.445 43.2695 238.468 43.2923C238.491 43.315 238.513 43.3378 238.536 43.3606C238.559 43.3833 238.582 43.4061 238.604 43.4288C238.627 43.4516 238.65 43.4744 238.673 43.4971C238.695 43.5199 238.718 43.5427 238.741 43.5654C238.764 43.5882 238.786 43.6109 238.809 43.6337C238.832 43.6565 238.855 43.6792 238.877 43.702C238.9 43.7247 238.923 43.7475 238.946 43.7703C238.968 43.793 238.991 43.8158 239.014 43.8385C239.037 43.8613 239.059 43.8841 239.082 43.9068C239.105 43.9296 239.128 43.9524 239.15 43.9751C239.173 43.9979 239.196 44.0206 239.219 44.0434C239.241 44.0662 239.264 44.0889 239.287 44.1117C239.31 44.1344 239.332 44.1572 239.355 44.18C239.378 44.2027 239.401 44.2255 239.423 44.2483C239.446 44.271 239.469 44.2938 239.492 44.3165C239.514 44.3393 239.537 44.3621 239.56 44.3848C239.583 44.4076 239.605 44.4303 239.628 44.4531C239.651 44.4759 239.674 44.4986 239.696 44.5214C239.719 44.5442 239.742 44.5669 239.765 44.5897C239.787 44.6124 239.81 44.6352 239.833 44.658C239.856 44.6807 239.878 44.7035 239.901 44.7262C239.924 44.749 239.947 44.7718 239.969 44.7945C239.992 44.8173 240.015 44.8401 240.038 44.8628C240.06 44.8856 240.083 44.9083 240.106 44.9311C240.129 44.9539 240.151 44.9766 240.174 44.9994C240.197 45.0221 240.22 45.0449 240.242 45.0677C240.432 45.2877 240.735 45.356 241.198 45.356H242.244V86.3721C242.085 88.8455 241.046 89.1642 237.3 89.1642C236.58 89.1642 236.185 89.5663 236.185 90.5982V92.8288C236.185 93.3675 236.299 93.6861 236.519 93.8758C236.542 93.8986 236.565 93.9213 236.587 93.9441C236.61 93.9668 236.633 93.9896 236.656 94.0124C236.678 94.0351 236.701 94.0579 236.724 94.0807C236.747 94.1034 236.769 94.1262 236.792 94.1489C236.815 94.1717 236.838 94.1945 236.86 94.2172C236.883 94.24 236.906 94.2627 236.929 94.2855C236.951 94.3083 236.974 94.331 236.997 94.3538C237.02 94.3766 237.042 94.3993 237.065 94.4221C237.088 94.4448 237.111 94.4676 237.133 94.4904C237.156 94.5131 237.179 94.5359 237.202 94.5586C237.224 94.5814 237.247 94.6042 237.27 94.6269C237.293 94.6497 237.315 94.6724 237.338 94.6952C237.361 94.718 237.384 94.7407 237.406 94.7635C237.429 94.7863 237.452 94.809 237.475 94.8318C237.497 94.8545 237.52 94.8773 237.543 94.9001C237.566 94.9228 237.588 94.9456 237.611 94.9683C237.634 94.9911 237.657 95.0139 237.679 95.0366C237.702 95.0594 237.725 95.0822 237.748 95.1049C237.77 95.1277 237.793 95.1504 237.816 95.1732C237.839 95.196 237.861 95.2187 237.884 95.2415C237.907 95.2642 237.93 95.287 237.952 95.3098C237.975 95.3325 237.998 95.3553 238.021 95.3781C238.043 95.4008 238.066 95.4236 238.089 95.4463C238.112 95.4691 238.134 95.4919 238.157 95.5146C238.18 95.5374 238.203 95.5602 238.225 95.5829C238.248 95.6057 238.271 95.6284 238.294 95.6512C238.316 95.674 238.339 95.6967 238.362 95.7195C238.385 95.7422 238.407 95.765 238.43 95.7878C238.453 95.8105 238.476 95.8333 238.498 95.856C238.521 95.8788 238.544 95.9016 238.567 95.9243C238.589 95.9471 238.612 95.9698 238.635 95.9926C238.658 96.0154 238.68 96.0381 238.703 96.0609C238.726 96.0837 238.749 96.1064 238.771 96.1292C238.794 96.1519 238.817 96.1747 238.84 96.1975C238.862 96.2202 238.885 96.243 238.908 96.2658C238.931 96.2885 238.953 96.3113 238.976 96.334C238.999 96.3568 239.022 96.3796 239.044 96.4023C239.067 96.4251 239.09 96.4478 239.113 96.4706C239.135 96.4934 239.158 96.5161 239.181 96.5389C239.204 96.5616 239.226 96.5844 239.249 96.6072C239.272 96.6299 239.295 96.6527 239.317 96.6755C239.34 96.6982 239.363 96.721 239.386 96.7437C239.408 96.7665 239.431 96.7893 239.454 96.812C239.477 96.8348 239.499 96.8576 239.522 96.8803C239.545 96.9031 239.568 96.9258 239.59 96.9486C239.613 96.9714 239.636 96.9941 239.659 97.0169C239.681 97.0396 239.704 97.0624 239.727 97.0852C239.75 97.1079 239.772 97.1307 239.795 97.1535C239.818 97.1762 239.841 97.199 239.863 97.2217C239.886 97.2445 239.909 97.2673 239.932 97.29C239.954 97.3128 239.977 97.3355 240 97.3583C240.023 97.3811 240.045 97.4038 240.068 97.4266C240.091 97.4493 240.114 97.4721 240.136 97.4949C240.159 97.5176 240.182 97.5404 240.205 97.5632C240.409 97.7908 240.743 97.8666 241.213 97.8666H275.58C277.172 97.8666 277.734 97.7073 277.893 95.7119L278.932 83.1855C278.977 82.6241 278.909 82.2599 278.704 82.0398L278.757 82.093Z" fill="#C9E8F9"/>
<path d="M45.6583 83.2841C45.1199 82.9579 43.99 82.5406 42.3975 83.3676C40.0846 84.5891 35.2769 87.1232 27.944 87.1232C16.0005 87.1232 10.1918 80.3024 10.1918 66.2586C10.1918 54.8475 15.0147 43.3378 25.7904 43.3378C31.6446 43.3378 36.9073 48.2012 37.0135 48.2922L38.5453 49.6124C39.2732 50.3407 40.0771 50.4773 40.532 50.4849C41.2373 50.4773 41.9122 50.1662 42.443 49.6048L46.1284 44.6428C46.6744 44.1269 46.9777 43.4592 47.0081 42.746C47.0308 42.0328 46.7502 41.3424 46.2422 40.8644L43.8535 38.611C42.8904 37.6019 41.2904 37.564 40.3121 38.4972L39.5235 39.2104C38.9927 38.8234 38.1737 38.2468 36.9225 37.4653C32.782 34.8781 27.9288 33.7476 23.2803 34.2787C9.35763 35.8796 0 48.793 0 66.4255C0 85.6058 10.0629 96.6072 27.6179 96.6072C34.4352 96.6072 40.3576 95.0746 45.1805 92.0777C46.6213 91.2355 47.1067 90.4009 47.1067 88.7621V86.2887C47.1067 84.445 46.1967 83.618 45.6583 83.2917V83.2841Z" fill="white"/>
<path d="M89.671 76.3647H87.3581C85.5002 76.3647 84.4537 77.2296 84.1428 79.1036L83.521 85.3706C83.2581 86.8678 82.0903 87.6164 80.0176 87.6164H67.2096V44.8856C67.2096 43.7323 67.3082 43.2999 67.3689 43.1481C67.475 43.1178 67.7329 43.0798 68.3016 43.0798H70.3718C71.0922 43.0798 73.2761 43.0798 73.2761 40.2574V37.8675C73.2761 35.9176 72.2752 34.8857 70.3718 34.8857H54.1059C52.2101 34.8857 51.2015 35.9176 51.2015 37.8675V40.2574C51.2015 43.0798 53.3855 43.0798 54.1059 43.0798H56.1003C56.8738 43.0798 57.0785 43.1709 57.0633 43.1481C57.0937 43.2012 57.2681 43.5123 57.2681 44.8856V85.7272C57.2681 86.931 56.1635 87.5329 53.9542 87.5329C52.6272 87.5329 51.2167 88.3372 51.2167 90.5982V92.8288C51.2167 94.6724 52.2708 95.7346 54.1211 95.7346H87.5249C89.6634 95.7346 91.1345 95.1125 91.3772 92.0928L92.4161 79.5588C92.454 79.0429 92.5374 77.958 91.7943 77.1613C91.0663 76.3798 90.0198 76.3798 89.6785 76.3798L89.671 76.3647Z" fill="white"/>
<path d="M115.522 34.8781H99.1802C97.2844 34.8781 96.2759 35.91 96.2759 37.8599V40.2498C96.2759 43.0722 98.4598 43.0722 99.1802 43.0722H101.175C101.948 43.0722 102.153 43.1633 102.138 43.1405C102.168 43.1936 102.342 43.5047 102.342 44.878V85.7196C102.342 87.1005 102.153 87.3964 102.153 87.404C102.13 87.4191 101.933 87.5254 101.099 87.5254H99.1878C97.3679 87.5254 96.3669 88.5269 96.3669 90.3478V92.9046C96.3669 94.7483 97.3451 95.7271 99.1878 95.7271H115.613C116.44 95.7271 118.35 95.4463 118.35 92.8212V90.2643C118.35 89.5891 118.35 87.5178 115.613 87.5178H113.543C112.724 87.5178 112.496 87.4115 112.504 87.4419C112.481 87.4115 112.299 87.1081 112.299 85.712V44.8704C112.299 43.7172 112.398 43.2847 112.458 43.1329C112.565 43.1026 112.822 43.0647 113.391 43.0647H115.545C117.441 43.0647 118.366 42.139 118.366 40.2422V37.8523C118.366 35.3865 116.834 34.8705 115.545 34.8705L115.522 34.8781Z" fill="white"/>
<path d="M176.225 100.279C175.376 99.6648 174.42 99.9455 173.92 100.112C173.063 100.325 172.419 100.446 171.66 100.446C169.855 100.446 168.999 99.5738 167.368 97.7604C166.117 96.3644 164.646 94.718 162.249 93.3675C173.859 86.539 175.194 71.6227 175.194 65.1357C175.194 45.6367 165.108 33.9904 148.213 33.9904C138.742 33.9904 131.568 37.5412 126.904 44.5366C122.347 51.3802 121.391 59.7716 121.391 65.6137C121.391 84.9002 131.265 96.5465 147.811 96.7589C153.461 96.7589 156.168 99.6193 159.027 102.639C161.893 105.666 164.866 108.8 170.538 108.8C172.396 108.8 173.791 108.466 174.883 108.155C176.741 107.533 177.112 106.402 177.112 104.779V102.548C177.112 101.979 177.112 100.909 176.225 100.272V100.279ZM148.221 42.4425C153.271 42.4425 165.017 44.6959 165.017 65.5454C165.017 72.3966 163.402 88.3296 148.463 88.3296C133.524 88.3296 131.591 72.2297 131.591 65.3102C131.591 58.3907 133.214 42.4425 148.221 42.4425Z" fill="white"/>
<path d="M229.08 34.8781H213.61C212.321 34.8781 210.789 35.3941 210.789 37.8599V40.2498C210.789 42.177 211.684 43.0722 213.61 43.0722H215.688C216.386 43.0722 216.606 43.1481 216.613 43.1329C216.644 43.1861 216.772 43.4895 216.772 44.5593V72.2372C216.772 85.7955 209.917 87.366 204.761 87.366C199.604 87.366 193.151 85.8182 193.151 72.4042V44.8856C193.151 43.7399 193.249 43.2999 193.303 43.1405C193.409 43.1178 193.644 43.0798 194.152 43.0798H196.306C197.026 43.0798 199.21 43.0798 199.21 40.2574V37.8675C199.21 35.9176 198.209 34.8857 196.306 34.8857H180.04C178.144 34.8857 177.135 35.9176 177.135 37.8675V40.2574C177.135 43.0798 179.319 43.0798 180.04 43.0798H182.034C182.807 43.0798 183.012 43.1709 182.997 43.1481C183.027 43.2012 183.202 43.5123 183.202 44.8856V73.1249C183.202 88.2765 190.626 96.2885 204.677 96.2885C218.729 96.2885 225.834 88.1096 225.834 72.647V44.5669C225.834 43.6868 225.903 43.2999 225.948 43.1481C226.077 43.1178 226.35 43.0874 226.919 43.0874H229.072C230.999 43.0874 231.893 42.1921 231.893 40.265V37.875C231.893 35.8948 230.945 34.8933 229.072 34.8933L229.08 34.8781Z" fill="white"/>
<path d="M276.149 77.1537C275.413 76.3571 274.389 76.3571 274.056 76.3571H271.667C269.862 76.3571 268.846 77.222 268.535 79.096L267.913 85.363C267.651 86.8602 266.483 87.6088 264.41 87.6088H250.571V69.8018H257.16C257.335 69.8018 257.403 69.8245 257.411 69.8245C257.426 69.8397 257.562 70.0142 257.608 70.5301L257.684 73.4815L257.699 73.6864C257.987 75.5225 258.92 76.3419 260.74 76.3419H262.969C263.993 76.3419 265.707 75.9625 265.707 73.436V58.1176C265.707 56.1373 264.789 55.2117 262.81 55.2117H260.732C258.844 55.2117 257.957 55.9856 257.691 57.8824L257.6 60.8489C257.547 61.4711 257.403 61.6456 257.403 61.6456C257.403 61.6456 257.327 61.6759 257.145 61.6759H250.556V42.9888H261.21C266.412 42.9888 266.412 43.0343 266.602 45.2194L266.837 48.7854C266.912 50.1966 267.314 52.0858 269.976 52.0858H272.372C273.085 52.0858 273.988 51.9947 274.64 51.274C275.406 50.4242 275.284 49.2861 275.193 48.4515L274.716 40.1436C274.435 35.91 273.472 34.8781 269.824 34.8781H237.535C235.071 34.8781 234.555 36.4563 234.555 37.784V40.2574C234.555 42.1314 235.556 43.1633 237.376 43.1633H240.121C240.349 43.1785 240.455 43.2012 240.485 43.2012C240.515 43.2695 240.614 43.5502 240.614 44.3241V86.2583C240.538 87.4343 240.538 87.5254 237.293 87.5254C235.966 87.5254 234.555 88.3296 234.555 90.5906V92.8212C234.555 94.6649 235.609 95.7271 237.459 95.7271H271.826C274.071 95.7271 275.519 95.1201 275.762 92.0852L276.801 79.5513C276.831 79.1188 276.922 77.9883 276.156 77.1613L276.149 77.1537Z" fill="white"/>
<path d="M45.2792 83.9063C44.8773 83.6635 44.0052 83.3448 42.7312 84.0049C40.3653 85.2492 35.4514 87.844 27.9365 87.844C15.6821 87.844 9.46385 80.5831 9.46385 66.2586C9.46385 54.4909 14.5067 42.617 25.7828 42.617C31.9328 42.617 37.3927 47.6701 37.4761 47.7459L39.0458 49.0964C39.5842 49.6351 40.1302 49.7565 40.4942 49.7565H40.5169C41.0326 49.7565 41.5179 49.5213 41.9881 49.0206L45.5825 44.1572C46.0147 43.7627 46.2574 43.2543 46.2801 42.7232C46.2953 42.2149 46.0981 41.7293 45.7417 41.3879L43.3227 39.1042C42.6326 38.3834 41.4952 38.353 40.7899 39.0283L39.5615 40.1436C39.4856 40.0905 39.4022 40.0298 39.3036 39.9539C38.7956 39.5822 37.9387 38.96 36.5282 38.0799C32.5243 35.5761 27.8379 34.4836 23.3562 34.9995C9.82026 36.5473 0.720459 49.1799 0.720459 66.4255C0.720459 85.1506 10.5255 95.8864 27.618 95.8864C34.2987 95.8864 40.0923 94.3917 44.8166 91.4555C46.0299 90.7499 46.3787 90.1429 46.3787 88.7621V86.2887C46.3787 84.8016 45.6887 84.1567 45.2792 83.9063Z" fill="#5CA1CB"/>
<path d="M89.671 77.0854H87.3581C85.8339 77.0854 85.1135 77.6772 84.8633 79.1719L84.2339 85.4844C83.7789 88.1096 83.741 88.3296 80.0252 88.3296H66.4968V44.878C66.4968 42.3515 66.7395 42.3515 68.3016 42.3515H70.3718C71.6761 42.3515 72.5482 41.9949 72.5482 40.2498V37.8599C72.5482 36.2969 71.8733 35.5989 70.3718 35.5989H54.1059C52.5969 35.5989 51.9296 36.2969 51.9296 37.8599V40.2498C51.9296 41.9949 52.8016 42.3515 54.1059 42.3515H56.1003C57.6245 42.3515 57.9885 42.3515 57.9885 44.878V85.7196C57.9885 87.8592 57.9885 88.2461 53.9467 88.2461C53.34 88.2461 51.9296 88.4737 51.9296 90.583V92.8136C51.9296 94.2779 52.6424 94.9911 54.1059 94.9911H87.5098C89.4283 94.9911 90.4369 94.5283 90.6416 92.0094L91.6805 79.4754C91.7336 78.8077 91.7109 78.1249 91.2483 77.6241C90.7933 77.131 90.126 77.0703 89.6634 77.0703L89.671 77.0854Z" fill="#5CA1CB"/>
<path d="M115.522 35.5989H99.1803C97.6712 35.5989 97.0039 36.2969 97.0039 37.8599V40.2498C97.0039 41.9949 97.876 42.3515 99.1803 42.3515H101.175C102.699 42.3515 103.063 42.3515 103.063 44.878V85.7196C103.063 88.2461 102.608 88.2461 101.099 88.2461H99.1879C97.7774 88.2461 97.0873 88.9366 97.0873 90.3478V92.9046C97.0873 94.3538 97.7319 95.0063 99.1879 95.0063H115.613C116.531 95.0063 117.63 94.6269 117.63 92.8288V90.2719C117.63 89.058 117.289 88.2537 115.613 88.2537H113.543C111.95 88.2537 111.579 88.2537 111.579 85.7272V44.8856C111.579 42.3591 111.821 42.3591 113.384 42.3591H115.537C117.031 42.3591 117.638 41.7521 117.638 40.2574V37.8675C117.638 36.3273 116.97 35.6065 115.537 35.6065L115.522 35.5989Z" fill="#5CA1CB"/>
<path d="M174.155 100.803C173.215 101.038 172.51 101.175 171.66 101.175C169.454 101.175 168.354 99.9455 166.83 98.246C165.419 96.6755 163.728 94.7787 160.695 93.3978C173.078 87.1081 174.474 71.7137 174.474 65.1433C174.474 46.0919 164.653 34.7264 148.213 34.7264C123.992 34.7264 122.112 58.3755 122.112 65.6288C122.112 84.4677 131.712 95.8409 147.811 96.0457C153.772 96.0457 156.577 99.0123 159.55 102.153C162.31 105.074 165.169 108.094 170.53 108.094C172.297 108.094 173.632 107.775 174.64 107.487C176.104 106.994 176.377 106.197 176.377 104.794V102.563C176.377 102.055 176.377 101.296 175.785 100.871C175.202 100.454 174.496 100.689 174.132 100.81L174.155 100.803ZM148.221 41.7141C164.471 41.7141 165.738 59.9537 165.738 65.5378C165.738 86.7515 153.658 89.0428 148.463 89.0428C143.269 89.0428 130.87 86.7287 130.87 65.295C130.87 43.8613 143.003 41.7066 148.228 41.7066L148.221 41.7141Z" fill="#5CA1CB"/>
<path d="M229.08 35.5989H213.61C212.177 35.5989 211.51 36.3197 211.51 37.8599V40.2498C211.51 41.7824 212.079 42.3515 213.61 42.3515H215.688C217.114 42.3515 217.493 42.3515 217.493 44.5593V72.2373C217.493 82.9048 213.33 88.0868 204.761 88.0868C196.192 88.0868 192.431 82.9579 192.431 72.3966V44.878C192.431 42.3515 192.658 42.3515 194.16 42.3515H196.313C197.617 42.3515 198.489 41.9949 198.489 40.2498V37.8599C198.489 36.2969 197.815 35.5989 196.313 35.5989H180.047C178.538 35.5989 177.871 36.2969 177.871 37.8599V40.2498C177.871 41.9949 178.743 42.3515 180.047 42.3515H182.042C183.566 42.3515 183.93 42.3515 183.93 44.878V73.1174C183.93 87.7985 191.111 95.5601 204.685 95.5601C218.259 95.5601 225.122 87.6316 225.122 72.6394V44.5593C225.122 42.3515 225.296 42.3515 226.926 42.3515H229.08C230.612 42.3515 231.181 41.7824 231.181 40.2498V37.8599C231.181 36.7446 230.93 35.5989 229.08 35.5989Z" fill="#5CA1CB"/>
<path d="M275.618 77.6469C275.095 77.0854 274.314 77.0854 274.056 77.0854H271.667C270.219 77.0854 269.498 77.6924 269.256 79.1719L268.626 85.4844C268.171 88.1096 268.133 88.3296 264.418 88.3296H249.85V69.0734H257.161C257.6 69.0734 258.207 69.0734 258.328 70.5074L258.419 73.5726C258.654 75.0597 259.284 75.6135 260.747 75.6135H262.977C264.994 75.6135 264.994 74.0278 264.994 73.436V58.1176C264.994 56.547 264.387 55.9401 262.818 55.9401H260.74C259.216 55.9401 258.632 56.456 258.404 58.0948L258.328 60.9096C258.199 62.3967 257.593 62.3967 257.153 62.3967H249.843V42.268H261.218C266.7 42.268 267.094 42.4577 267.337 45.1739L267.572 48.7474C267.671 50.629 268.346 51.3574 269.991 51.3574H272.388C272.987 51.3574 273.661 51.2891 274.116 50.7808C274.625 50.2118 274.587 49.453 274.488 48.4819L274.01 40.1815C273.752 36.2742 273.123 35.5913 269.84 35.5913H237.55C236.496 35.5913 235.291 35.8417 235.291 37.7688V40.2422C235.291 41.7293 235.958 42.4198 237.391 42.4198H240.159C240.925 42.4577 241.35 42.4956 241.35 44.309V86.2887C241.251 87.8213 241.228 88.2385 237.308 88.2385C236.701 88.2385 235.291 88.4662 235.291 90.5754V92.806C235.291 94.2703 236.003 94.9835 237.467 94.9835H271.834C273.851 94.9835 274.844 94.5359 275.049 92.0018L276.088 79.4754C276.134 78.8912 276.118 78.1552 275.633 77.6317L275.618 77.6469Z" fill="#5CA1CB"/>
<path d="M35.9215 3.81634H29.9839V0.318661H46.1436V3.81634H40.206V18.8768H35.9139V3.81634H35.9215Z" fill="#00486D"/>
<path d="M70.7586 0.318661V18.8768H66.4665V11.2669H58.0416V18.8768H53.7495V0.318661H58.0416V7.63267H66.4665V0.318661H70.7586Z" fill="#00486D"/>
<path d="M94.8124 15.4323V18.8768H80.4498V0.318661H94.4635V3.76323H84.7116V7.792H93.3185V11.1303H84.7116V15.4247H94.8048L94.8124 15.4323Z" fill="#00486D"/>
<path d="M115.158 9.59774C115.158 4.00601 119.45 0 125.229 0C128.436 0 131.113 1.16842 132.857 3.28524L130.105 5.82693C128.861 4.39296 127.299 3.65701 125.441 3.65701C121.968 3.65701 119.503 6.09248 119.503 9.59774C119.503 13.103 121.968 15.5385 125.441 15.5385C127.299 15.5385 128.861 14.7949 130.105 13.3382L132.857 15.8799C131.105 18.0271 128.429 19.1955 125.198 19.1955C119.45 19.1955 115.158 15.1895 115.158 9.59774Z" fill="#00486D"/>
<path d="M141.039 0.318661H145.331V15.3792H154.628V18.8768H141.039V0.318661Z" fill="#00486D"/>
<path d="M160.854 9.59774C160.854 4.08189 165.146 0 171.001 0C176.855 0 181.147 4.05912 181.147 9.59774C181.147 15.1364 176.824 19.1955 171.001 19.1955C165.177 19.1955 160.854 15.1136 160.854 9.59774ZM176.802 9.59774C176.802 6.06972 174.314 3.65701 171.001 3.65701C167.687 3.65701 165.199 6.06972 165.199 9.59774C165.199 13.1258 167.687 15.5385 171.001 15.5385C174.314 15.5385 176.802 13.1258 176.802 9.59774Z" fill="#00486D"/>
<path d="M188.214 17.0483L189.67 13.8162C191.232 14.9543 193.568 15.7509 195.79 15.7509C198.33 15.7509 199.369 14.9012 199.369 13.7631C199.369 10.2882 188.586 12.6781 188.586 5.78141C188.586 2.62515 191.126 0 196.404 0C198.74 0 201.121 0.553862 202.842 1.64641L201.515 4.90889C199.794 3.93014 198.019 3.45215 196.374 3.45215C193.826 3.45215 192.848 4.40813 192.848 5.57655C192.848 8.99836 203.631 6.63876 203.631 13.452C203.631 16.5552 201.06 19.2031 195.76 19.2031C192.817 19.2031 189.852 18.3306 188.207 17.0559L188.214 17.0483Z" fill="#00486D"/>
<path d="M226.236 15.4323V18.8768H211.874V0.318661H225.887V3.76323H216.136V7.792H224.742V11.1303H216.136V15.4247H226.229L226.236 15.4323Z" fill="#00486D"/>
<path d="M238.787 3.81634H232.849V0.318661H249.009V3.81634H243.071V18.8768H238.779V3.81634H238.787Z" fill="#00486D"/>
</svg>
