<svg width="1984" height="1984" viewBox="0 0 1984 1984" fill="none" xmlns="http://www.w3.org/2000/svg">
<rect x="0.5" y="0.5" width="1983" height="1983" rx="991.5" fill="#FCFCFC"/>
<rect x="0.5" y="0.5" width="1983" height="1983" rx="991.5" stroke="#F3F3F3"/>
<rect x="100.5" y="100.5" width="1783" height="1783" rx="891.5" fill="#FCFCFC"/>
<rect x="100.5" y="100.5" width="1783" height="1783" rx="891.5" stroke="#F3F3F3"/>
<rect x="200.5" y="200.5" width="1583" height="1583" rx="791.5" fill="#FCFCFC"/>
<rect x="200.5" y="200.5" width="1583" height="1583" rx="791.5" stroke="#F3F3F3"/>
<rect x="300.5" y="300.5" width="1383" height="1383" rx="691.5" fill="#FCFCFC"/>
<rect x="300.5" y="300.5" width="1383" height="1383" rx="691.5" stroke="#F3F3F3"/>
<rect x="400.25" y="400.25" width="1183.5" height="1183.5" rx="591.75" fill="#FCFCFC"/>
<rect x="400.25" y="400.25" width="1183.5" height="1183.5" rx="591.75" stroke="#F3F3F3" stroke-width="0.5"/>
<rect x="500.25" y="500.25" width="983.5" height="983.5" rx="491.75" fill="#FCFCFC"/>
<rect x="500.25" y="500.25" width="983.5" height="983.5" rx="491.75" stroke="#F3F3F3" stroke-width="0.5"/>
<rect x="600.25" y="600.25" width="783.5" height="783.5" rx="391.75" fill="#F8F8F8"/>
<rect x="600.25" y="600.25" width="783.5" height="783.5" rx="391.75" stroke="#F3F3F3" stroke-width="0.5"/>
<rect x="700.25" y="700.25" width="583.5" height="583.5" rx="291.75" fill="#FCFCFC"/>
<rect x="700.25" y="700.25" width="583.5" height="583.5" rx="291.75" stroke="#F3F3F3" stroke-width="0.5"/>
</svg>
