<svg class="w-full h-auto" viewBox="0 0 887 887" fill="none" xmlns="http://www.w3.org/2000/svg">
    <path d="M388.36 506.61L306.57 424.82C289.09 407.34 260.76 407.34 243.28 424.82L243.26 424.84C225.78 442.32 225.78 470.65 243.26 488.13L356.71 601.58C374.19 619.06 402.52 619.06 420 601.58L646.22 375.33C663.69 357.86 663.69 329.53 646.22 312.05C628.74 294.57 600.4 294.56 582.92 312.05L388.35 506.62L388.36 506.61Z"
          fill="currentColor"/>
    <path d="M850.71 357.53L805.76 312.58C796.8 303.62 791.76 291.46 791.76 278.79V215.23C791.76 148.44 737.62 94.3 670.84 94.3H607.31C594.63 94.3 582.48 89.26 573.52 80.3L528.57 35.35C481.41 -11.81 404.68 -11.78 357.52 35.35L312.57 80.3C303.61 89.26 291.45 94.3 278.78 94.3H215.25C148.47 94.3 94.3298 148.44 94.3298 215.22V278.78C94.3298 291.46 89.2898 303.61 80.3298 312.57L35.3798 357.52C-11.7802 404.65 -11.7802 481.39 35.3798 528.54L80.3298 573.49C89.2898 582.45 94.3298 594.61 94.3298 607.28V670.81C94.3298 737.61 148.48 791.76 215.28 791.76H278.8C291.48 791.76 303.63 796.8 312.59 805.76L357.51 850.68C404.75 897.91 481.33 897.91 528.56 850.68L573.48 805.76C582.44 796.8 594.6 791.76 607.27 791.76H670.82C737.61 791.76 791.75 737.62 791.75 670.83V607.28C791.75 594.6 796.79 582.45 805.75 573.49L850.7 528.54C897.86 481.38 897.86 404.65 850.7 357.52L850.71 357.53ZM813.99 491.83L758.18 547.64C746.43 559.39 739.83 575.32 739.83 591.93V670.83C739.83 708.94 708.94 739.83 670.83 739.83H591.9C575.29 739.83 559.36 746.43 547.61 758.18L491.81 813.98C464.86 840.93 421.18 840.93 394.23 813.98L338.42 758.17C326.67 746.42 310.74 739.82 294.13 739.82H215.23C177.12 739.82 146.23 708.93 146.23 670.82V591.92C146.23 575.31 139.63 559.38 127.88 547.63L72.0698 491.82C45.1198 464.87 45.1198 421.19 72.0698 394.24L127.88 338.43C139.63 326.68 146.23 310.75 146.23 294.14V215.21C146.23 177.1 177.12 146.21 215.23 146.21H294.13C310.74 146.21 326.67 139.61 338.42 127.86L394.23 72.05C421.18 45.1 464.86 45.1 491.81 72.05L547.62 127.86C559.37 139.61 575.3 146.21 591.91 146.21H670.84C708.95 146.21 739.84 177.1 739.84 215.21V294.14C739.84 310.75 746.44 326.68 758.19 338.43L813.99 394.23C840.94 421.18 840.94 464.86 813.99 491.81V491.83Z"
          fill="currentColor"/>
</svg>
