<svg
        viewBox="0 0 412 412"
        fill="none"
        xmlns="http://www.w3.org/2000/svg"
        class="w-full h-auto"
>
    <path
            d="M180.217 235.12L142.257 197.16C134.147 189.05 120.997 189.05 112.887 197.16C104.777 205.28 104.777 218.43 112.887 226.54L165.537 279.19C173.647 287.3 186.797 287.3 194.917 279.19L299.907 174.18C308.017 166.07 308.017 152.92 299.907 144.81C291.797 136.69 278.637 136.69 270.527 144.81L180.217 235.12Z"
            fill="currentColor"
    />
    <path
            d="M394.807 165.93L373.947 145.07C369.787 140.91 367.447 135.27 367.447 129.39V99.89C367.447 68.89 342.317 43.77 311.327 43.77H281.847C275.967 43.77 270.328 41.43 266.168 37.27L245.307 16.41C223.417 -5.48 187.807 -5.46 165.917 16.41L145.057 37.27C140.897 41.43 135.257 43.77 129.377 43.77H99.8975C68.8975 43.77 43.7775 68.9 43.7775 99.89V129.39C43.7775 135.27 41.4375 140.91 37.2775 145.07L16.4175 165.93C-5.4725 187.8 -5.4725 223.42 16.4175 245.31L37.2775 266.17C41.4375 270.33 43.7775 275.97 43.7775 281.85V311.33C43.7775 342.33 68.9075 367.47 99.9175 367.47H129.397C135.277 367.47 140.917 369.81 145.077 373.97L165.927 394.82C187.847 416.74 223.397 416.74 245.317 394.82L266.168 373.97C270.328 369.81 275.967 367.47 281.847 367.47H311.347C342.347 367.47 367.467 342.34 367.467 311.35V281.85C367.467 275.97 369.807 270.33 373.967 266.17L394.827 245.31C416.717 223.42 416.717 187.81 394.827 165.93H394.807ZM377.767 228.26L351.867 254.16C346.417 259.61 343.357 267.01 343.357 274.72V311.34C343.357 329.03 329.017 343.37 311.327 343.37H274.697C266.987 343.37 259.597 346.43 254.137 351.88L228.237 377.78C215.727 390.29 195.457 390.29 182.947 377.78L157.047 351.88C151.597 346.43 144.197 343.37 136.487 343.37H99.8674C82.1774 343.37 67.8374 329.03 67.8374 311.34V274.72C67.8374 267.01 64.7774 259.62 59.3274 254.16L33.4274 228.26C20.9174 215.75 20.9174 195.48 33.4274 182.97L59.3274 157.07C64.7774 151.62 67.8374 144.22 67.8374 136.51V99.88C67.8374 82.19 82.1774 67.85 99.8674 67.85H136.487C144.197 67.85 151.587 64.79 157.047 59.34L182.947 33.44C195.457 20.93 215.727 20.93 228.237 33.44L254.137 59.34C259.587 64.79 266.987 67.85 274.697 67.85H311.327C329.017 67.85 343.357 82.19 343.357 99.88V136.51C343.357 144.22 346.417 151.61 351.867 157.07L377.767 182.97C390.277 195.48 390.277 215.75 377.767 228.26Z"
            fill="currentColor"
    />
</svg>
