<svg width="408" height="539" fill="none" xmlns="http://www.w3.org/2000/svg"><path d="M203.41 23.59c.53-.28 1.08-.69 1.67-1.21 21.45-19.53 46.62-26.24 75.5-20.16 6.07 1.29 11.7 2.81 16.9 4.58 6.4 2.15 11.05 4.34 13.96 6.56 6.7 5.08 5.53 22.75 4.64 31.16-1.86 17.52-4.53 32.99-8.02 46.4-.39 1.53-3.9 14.2-10.5 38.03-1.51 5.44-2.48 12.97-2.92 16.98-1.46 13.02-.17 25.93 3.88 38.74 1.65 5.2 7.39 16.93 17.22 35.16 9.31 17.28 15.75 29.51 19.34 36.73 18.52 37.31 33.16 70.6 43.93 99.86 9.73 26.51 17.74 53.77 23.99 81.78 1.97 8.76 3.3 15.79 4.03 21.07.85 6.1.85 11.43 0 15.99-.58 3.16-2.31 6.53-5.19 10.06-6.78 8.38-15.06 13.47-24.83 15.25-5.99 1.08-12.44 1.98-19.35 2.72-1.43.16-3.38.53-5.85 1.15-.63.16-1.23.39-1.78.72-5.41 3.19-8.22 4.51-12 7.92-4.7 4.23-8.4 7.36-11.1 9.36-11.46 8.49-28.47 13.49-42.34 8.22-12.14-4.61-21.59-8.96-32.47-7.06-4.73.82-10.68 3.21-17.85 7.19-5.83 3.22-12.53 5.6-20.06 7.12-18.02 3.66-30.96-4.94-47.94-12.7-5.24-2.39-11.87-2.81-19.94-1.29-2.94.57-10.41 3.05-22.37 7.44-3.95 1.46-9.03 1.93-15.2 1.42-13.03-1.08-23.76-5.44-32.15-13.07-7.7-7-13.9-11.92-18.6-14.76-2.61-1.57-7.81-2.36-15.61-2.34-2.19 0-6.43-.79-12.74-2.37-10.53-2.64-18.82-8.77-24.86-18.4-5.38-8.54-5.16-16.1-3.18-26.49 3.35-17.55 7.52-34.87 12.47-51.98 17.33-59.86 41.51-117.29 72.55-172.31 10.77-19.12 18.44-33.98 22.99-44.56 4.61-10.72 6.37-21.87 5.27-33.44-.6-6.32-1.64-13.62-3.1-21.87-.99-5.57-2.7-12.72-5.16-21.45-3.55-12.66-6.29-22.8-8.21-30.42-3.51-13.9-5.8-29.95-6.89-48.18-.44-7.26.79-13.08 3.7-17.44.11-.17.24-.31.39-.42l5.63-4.48c.11-.09.25-.17.39-.24 7.25-2.89 15-5.05 23.29-6.46.24-.05 3.8-.55 10.71-1.54 9.18-1.32 18.16.06 25.57 1.12 8.57 1.23 18.14 5.49 25.6 10.05 4.95 3.03 9.53 6.82 13.71 11.37.74.8 1.92 1.01 2.89.52m-46.08 24.51c.8 5.69 3.27 11.32 7.41 16.87 2.63 3.54 6.89 4.86 10.77 3.43 2.86-1.05 6.21-1.57 8.71-.97 1.24.3 2.25 1.21 2.69 2.41 1.6 4.29 3.74 9.25 6.4 14.84.99 2.06 2.03 3.63 3.14 4.7 2.8 2.66 7.17 4.98 10.02 2.47 3.46-3.03 6.4-6.23 8.84-9.56.64-.88 2.11-4.81 4.36-11.79.16-.5.42-.94.8-1.32 1.97-1.97 4.13-3.43 6.53-4.37.97-.38 2.06-.35 3 .09l8.22 3.85c.22.11.47.14.72.09 5.02-.9 6.01-3.11 8.35-7.14.27-.44.44-.91.55-1.4 1.35-6.05 3.46-11.37 6.3-15.94a4.94 4.94 0 0 1 3.88-2.31c4.78-.27 9.7.64 14.76 2.7.9.36 1.87.46 2.8.27 8.63-1.75 15.08-6.45 19.37-14.1 4.84-8.63-5.19-9.73-10.44-9.5-.41.02-.8-.02-1.19-.11-12.97-3.16-25.61-3.47-37.96-.93-12.36 2.56-23.02 8.79-32 18.68-4.8 5.28-12.01 10.82-18 4.23-3.07-3.36-5.9-7.72-9.56-10.82-4.72-3.96-9.21-6.9-13.51-8.8-17.78-7.92-40.77-6.21-59.24-.47-.98.3-1.46 1.38-1.04 2.31 3.27 7.3 8.3 13.16 15.08 17.61 3.14 2.06 6.18 2.56 9.1 1.49 6.02-2.22 10.61-3.3 13.77-3.29.47.02.94.09 1.38.27 1.64.61 3.46 2.36 5.47 5.22.27.38.44.82.5 1.29m-47.01 4.72c-.47 4.67-.19 8.96.83 12.89 2.33 8.9 5.64 20.5 9.95 34.81 2.66 8.82 4.61 16.37 5.85 22.67 3.65 18.36 6.57 35.68 2.81 53.87-.31 1.54.69 3.03 2.23 3.33 4.84.93 10.17 2.97 14.87 3.32 2.34.17 7.64.97 15.86 2.44 4.2.75 8.65.49 11.73.5 3.07 0 5.79 1.13 7.39 4.26 5.08 9.89 17.74 14.7 28.36 12.33 6.71-1.49 12.04-5.79 15.99-12.86a6.627 6.627 0 0 1 4.62-3.27c5.58-.96 10.5-.35 16.45-1.45 6.59-1.21 14.36-2.81 23.33-4.8.55-.11 1.1-.16 1.67-.14 2.41.13 4.53-.2 6.35-.99.94-.41 1.46-1.43 1.26-2.44-2.55-12.31-2.91-24.46-1.07-36.46 1.81-11.84 3.87-21.79 6.21-29.86 7.14-24.72 11.07-37.25 13.71-55.57.14-.97-.97-1.62-1.75-1.02-1.9 1.46-4.17 2.83-6.79 4.09-1.9.91-4.45 1.54-7.67 1.87-4.76.52-8.95.83-12.58.94-1.6.05-3.08.9-3.93 2.26-3.25 5.19-6.6 9.89-10.08 14.09-3.14 3.79-5.97 6.13-8.51 7.03-4.37 1.56-9.32 2.74-14.87 3.57a4.86 4.86 0 0 0-3.43 2.31c-2.77 4.62-6.65 9.4-11.64 14.32-3.29 3.24-7.03 4.95-11.23 5.13-6.78.27-10.97-.33-15.55-5.06-3.08-3.19-5.99-5.99-8.74-8.43-.83-.74-2.39-2.99-4.64-6.76-.28-.46-.68-.83-1.15-1.07-2.64-1.3-4.54-1.95-5.72-1.95-8.08-.05-14.28-2.77-18.6-8.16-1.23-1.53-2.69-4.1-4.4-7.74-.86-1.87-2.48-4.42-4.83-7.64a2.995 2.995 0 0 0-2.75-1.23c-10.71 1.15-19.97-2.94-28.57-9.59a.632.632 0 0 0-1.01.44m15.75 143.87c-.6-.24-1.27 0-1.59.55-5.49 9.72-9.42 18.11-15 27.74-14.32 24.73-27.74 50.57-40.24 77.51-19.17 41.3-34.5 84.54-46.01 129.7-2.41 9.42-4.5 19.15-6.27 29.21-.47 2.63-.55 4.56-.22 5.82 1.84 7.19 8.92 13.41 15.53 15.39 4.53 1.35 8.24 2.11 11.13 2.28 7.59.42 12.3.85 14.12 1.27 7 1.65 13.68 5.17 20.05 10.55 5.05 4.25 9.25 9.42 15.25 12.89 6.7 3.9 15.91 6.19 24.01 4.4 4.92-1.1 7.86-1.82 8.82-2.19 7.2-2.66 12.39-4.39 15.57-5.19 11.87-2.99 22.99-1.93 33.38 3.16 9.29 4.54 14.94 7.17 16.92 7.85 10.52 3.6 20.47 3.29 29.86-.91 12.86-5.77 21.12-9.12 24.76-10.08 8.76-2.31 18.1-1.57 28.02 2.22 8.29 3.16 14.23 4.91 17.86 5.25 11.12 1.05 20.83-2.26 29.17-9.97 1.31-1.21 4.01-3.66 8.1-7.37 6.67-6.05 14.64-9.61 23.07-10.58 10.86-1.26 16.82-2 17.85-2.22 8.47-1.82 17.15-5.38 20.28-13.44.96-2.5.96-6.38 0-11.62-1.7-9.23-3.11-16.19-4.25-20.9-6.05-25.14-13.82-50.96-23.33-77.47-8.16-22.72-18.74-47.53-31.76-74.42-15.36-31.71-30.58-60.61-45.63-86.71a3.489 3.489 0 0 0-3.59-1.7l-42.04 6.97c-.52.08-1.01.33-1.38.72-4.97 5.11-9.34 8.84-13.11 11.18-12.99 8.03-27.11 8.6-42.37 1.67-5.24-2.37-9.4-6.16-12.52-11.37a3.626 3.626 0 0 0-2.23-1.67c-6.49-1.71-12.42-2.75-17.77-3.14-8.91-.64-17.06-2.45-24.43-5.39l-.01.01z" fill="#000"/><path d="M151.469 112.37c-3.6 2.1-8.58.26-11.11-4.09-2.53-4.35-1.669-9.58 1.941-11.68 3.6-2.1 8.58-.26 11.11 4.09 2.53 4.35 1.669 9.58-1.941 11.68zM259.52 114.2c-3.8-1.58-5.45-6.28-3.7-10.51 1.75-4.23 6.27-6.37 10.06-4.79 3.8 1.58 5.45 6.28 3.7 10.51-1.75 4.23-6.27 6.37-10.06 4.79zM164.98 125a3.615 3.615 0 0 1-1.4-4.92l1.7-3.02c2.25-4.04 7.17-5.58 10.97-3.46 3.8 2.14 5.06 7.12 2.8 11.16l-1.68 3.02c-.97 1.75-3.18 2.36-4.92 1.38l-7.47-4.17v.01zM236.29 128.96c-4 .39-7.6-2.99-8.05-7.55-.44-4.56 2.43-8.59 6.43-8.97 4-.39 7.6 2.99 8.05 7.55.44 4.56-2.43 8.59-6.43 8.97zM242.09 154.19c-2.36 3.74-4.75 6.1-7.15 7.08-2.26.91-6.1 1.62-11.49 2.11-.94.09-1.82.44-2.58.99-3.96 2.97-6.54 6.98-7.74 12.04-1.02 4.34-3.85 5.85-7.63 8.68-1.19.9-2.8.99-4.09.27-5.31-2.99-8.32-7.01-9.01-12.09-.46-3.29-1.02-5.27-1.68-5.91-4.45-4.36-8.66-4.53-14.53-4.37-.5.02-.99-.06-1.46-.24-7.88-2.72-11.12-12.12-1.79-16.46 2.28-1.05 6.23-1.78 11.84-2.19 1.81-.14 3.51-.83 5.09-2.09.79-.61 1.6-2.26 2.45-4.94 1.15-3.6 2.86-8.44 5.11-14.5.08-.22.22-.42.39-.6l3.3-3.24a3.795 3.795 0 0 1 4.37-.66c7.86 4.06 5.9 17.03 13.98 24.09.39.35.85.58 1.34.72 8.44 2.31 13.33 3.63 14.7 3.99 3.6.94 5.86 2.85 6.78 5.72.17.53.09 1.12-.2 1.59m-31.76.63c0-2.92-2.36-5.28-5.28-5.28-2.92 0-5.28 2.36-5.28 5.28 0 2.92 2.36 5.28 5.28 5.28 2.92 0 5.28-2.36 5.28-5.28z" fill="#000"/></svg>