<svg
        viewBox="0 0 408 539"
        fill="none"
        xmlns="http://www.w3.org/2000/svg"
        class="w-full h-auto text-white group-hover:text-pblue700"
>
    <path
            d="M203.41 23.59C203.94 23.31 204.49 22.9 205.08 22.38C226.53 2.85 251.7 -3.85999 280.58 2.22001C286.65 3.51001 292.28 5.03001 297.48 6.80001C303.88 8.95001 308.53 11.14 311.44 13.36C318.14 18.44 316.97 36.11 316.08 44.52C314.22 62.04 311.55 77.51 308.06 90.92C307.67 92.45 304.16 105.12 297.56 128.95C296.05 134.39 295.08 141.92 294.64 145.93C293.18 158.95 294.47 171.86 298.52 184.67C300.17 189.87 305.91 201.6 315.74 219.83C325.05 237.11 331.49 249.34 335.08 256.56C353.6 293.87 368.24 327.16 379.01 356.42C388.74 382.93 396.75 410.19 403 438.2C404.97 446.96 406.3 453.99 407.03 459.27C407.88 465.37 407.88 470.7 407.03 475.26C406.45 478.42 404.72 481.79 401.84 485.32C395.06 493.7 386.78 498.79 377.01 500.57C371.02 501.65 364.57 502.55 357.66 503.29C356.23 503.45 354.28 503.82 351.81 504.44C351.18 504.6 350.58 504.83 350.03 505.16C344.62 508.35 341.81 509.67 338.03 513.08C333.33 517.31 329.63 520.44 326.93 522.44C315.47 530.93 298.46 535.93 284.59 530.66C272.45 526.05 263 521.7 252.12 523.6C247.39 524.42 241.44 526.81 234.27 530.79C228.44 534.01 221.74 536.39 214.21 537.91C196.19 541.57 183.25 532.97 166.27 525.21C161.03 522.82 154.4 522.4 146.33 523.92C143.39 524.49 135.92 526.97 123.96 531.36C120.01 532.82 114.93 533.29 108.76 532.78C95.7298 531.7 84.9998 527.34 76.6098 519.71C68.9098 512.71 62.7098 507.79 58.0098 504.95C55.3998 503.38 50.1998 502.59 42.3998 502.61C40.2098 502.61 35.9699 501.82 29.6599 500.24C19.1299 497.6 10.8399 491.47 4.79987 481.84C-0.58013 473.3 -0.360184 465.74 1.61982 455.35C4.96982 437.8 9.13979 420.48 14.0898 403.37C31.4198 343.51 55.5998 286.08 86.6398 231.06C97.4098 211.94 105.08 197.08 109.63 186.5C114.24 175.78 116 164.63 114.9 153.06C114.3 146.74 113.26 139.44 111.8 131.19C110.81 125.62 109.1 118.47 106.64 109.74C103.09 97.08 100.35 86.94 98.4299 79.32C94.9199 65.42 92.6299 49.37 91.5399 31.14C91.0999 23.88 92.3298 18.06 95.2398 13.7C95.3498 13.53 95.4798 13.39 95.6298 13.28L101.26 8.80001C101.37 8.71001 101.51 8.63001 101.65 8.56001C108.9 5.67001 116.65 3.51001 124.94 2.10001C125.18 2.05001 128.74 1.55001 135.65 0.560006C144.83 -0.759995 153.81 0.620006 161.22 1.68001C169.79 2.91001 179.36 7.17001 186.82 11.73C191.77 14.76 196.35 18.55 200.53 23.1C201.27 23.9 202.45 24.11 203.42 23.62M157.34 48.13C158.14 53.82 160.61 59.45 164.75 65C167.38 68.54 171.64 69.86 175.52 68.43C178.38 67.38 181.73 66.86 184.23 67.46C185.47 67.76 186.48 68.67 186.92 69.87C188.52 74.16 190.66 79.12 193.32 84.71C194.31 86.77 195.35 88.34 196.46 89.41C199.26 92.07 203.63 94.39 206.48 91.88C209.94 88.85 212.88 85.65 215.32 82.32C215.96 81.44 217.43 77.51 219.68 70.53C219.84 70.03 220.1 69.59 220.48 69.21C222.45 67.24 224.61 65.78 227.01 64.84C227.98 64.46 229.07 64.49 230.01 64.93L238.23 68.78C238.45 68.89 238.7 68.92 238.95 68.87C243.97 67.97 244.96 65.76 247.3 61.73C247.57 61.29 247.74 60.82 247.85 60.33C249.2 54.28 251.31 48.96 254.15 44.39C255 43.04 256.45 42.17 258.03 42.08C262.81 41.81 267.73 42.72 272.79 44.78C273.69 45.14 274.66 45.24 275.59 45.05C284.22 43.3 290.67 38.6 294.96 30.95C299.8 22.32 289.77 21.22 284.52 21.45C284.11 21.47 283.72 21.43 283.33 21.34C270.36 18.18 257.72 17.87 245.37 20.41C233.01 22.97 222.35 29.2 213.37 39.09C208.57 44.37 201.36 49.91 195.37 43.32C192.3 39.96 189.47 35.6 185.81 32.5C181.09 28.54 176.6 25.6 172.3 23.7C154.52 15.78 131.53 17.49 113.06 23.23C112.08 23.53 111.6 24.61 112.02 25.54C115.29 32.84 120.32 38.7 127.1 43.15C130.24 45.21 133.28 45.71 136.2 44.64C142.22 42.42 146.81 41.34 149.97 41.35C150.44 41.37 150.91 41.44 151.35 41.62C152.99 42.23 154.81 43.98 156.82 46.84C157.09 47.22 157.26 47.66 157.32 48.13M110.31 52.85C109.84 57.52 110.12 61.81 111.14 65.74C113.47 74.64 116.78 86.24 121.09 100.55C123.75 109.37 125.7 116.92 126.94 123.22C130.59 141.58 133.51 158.9 129.75 177.09C129.44 178.63 130.44 180.12 131.98 180.42C136.82 181.35 142.15 183.39 146.85 183.74C149.19 183.91 154.49 184.71 162.71 186.18C166.91 186.93 171.36 186.67 174.44 186.68C177.51 186.68 180.23 187.81 181.83 190.94C186.91 200.83 199.57 205.64 210.19 203.27C216.9 201.78 222.23 197.48 226.18 190.41C227.15 188.68 228.85 187.49 230.8 187.14C236.38 186.18 241.3 186.79 247.25 185.69C253.84 184.48 261.61 182.88 270.58 180.89C271.13 180.78 271.68 180.73 272.25 180.75C274.66 180.88 276.78 180.55 278.6 179.76C279.54 179.35 280.06 178.33 279.86 177.32C277.31 165.01 276.95 152.86 278.79 140.86C280.6 129.02 282.66 119.07 285 111C292.14 86.28 296.07 73.75 298.71 55.43C298.85 54.46 297.74 53.81 296.96 54.41C295.06 55.87 292.79 57.24 290.17 58.5C288.27 59.41 285.72 60.04 282.5 60.37C277.74 60.89 273.55 61.2 269.92 61.31C268.32 61.36 266.84 62.21 265.99 63.57C262.74 68.76 259.39 73.46 255.91 77.66C252.77 81.45 249.94 83.79 247.4 84.69C243.03 86.25 238.08 87.43 232.53 88.26C231.1 88.48 229.84 89.33 229.1 90.57C226.33 95.19 222.45 99.97 217.46 104.89C214.17 108.13 210.43 109.84 206.23 110.02C199.45 110.29 195.26 109.69 190.68 104.96C187.6 101.77 184.69 98.97 181.94 96.53C181.11 95.79 179.55 93.54 177.3 89.77C177.02 89.31 176.62 88.94 176.15 88.7C173.51 87.4 171.61 86.75 170.43 86.75C162.35 86.7 156.15 83.98 151.83 78.59C150.6 77.06 149.14 74.49 147.43 70.85C146.57 68.98 144.95 66.43 142.6 63.21C141.97 62.33 140.92 61.87 139.85 61.98C129.14 63.13 119.88 59.04 111.28 52.39C110.89 52.09 110.32 52.34 110.27 52.83M126.02 196.7C125.42 196.46 124.75 196.7 124.43 197.25C118.94 206.97 115.01 215.36 109.43 224.99C95.1099 249.72 81.6898 275.56 69.1898 302.5C50.0198 343.8 34.6899 387.04 23.1799 432.2C20.7699 441.62 18.6799 451.35 16.9099 461.41C16.4399 464.04 16.3598 465.97 16.6898 467.23C18.5298 474.42 25.6098 480.64 32.2198 482.62C36.7498 483.97 40.4598 484.73 43.3498 484.9C50.9398 485.32 55.6498 485.75 57.4698 486.17C64.4698 487.82 71.1498 491.34 77.5198 496.72C82.5698 500.97 86.7698 506.14 92.7698 509.61C99.4698 513.51 108.68 515.8 116.78 514.01C121.7 512.91 124.64 512.19 125.6 511.82C132.8 509.16 137.99 507.43 141.17 506.63C153.04 503.64 164.16 504.7 174.55 509.79C183.84 514.33 189.49 516.96 191.47 517.64C201.99 521.24 211.94 520.93 221.33 516.73C234.19 510.96 242.45 507.61 246.09 506.65C254.85 504.34 264.19 505.08 274.11 508.87C282.4 512.03 288.34 513.78 291.97 514.12C303.09 515.17 312.8 511.86 321.14 504.15C322.45 502.94 325.15 500.49 329.24 496.78C335.91 490.73 343.88 487.17 352.31 486.2C363.17 484.94 369.13 484.2 370.16 483.98C378.63 482.16 387.31 478.6 390.44 470.54C391.4 468.04 391.4 464.16 390.44 458.92C388.74 449.69 387.33 442.73 386.19 438.02C380.14 412.88 372.37 387.06 362.86 360.55C354.7 337.83 344.12 313.02 331.1 286.13C315.74 254.42 300.52 225.52 285.47 199.42C284.75 198.16 283.32 197.49 281.88 197.72L239.84 204.69C239.32 204.77 238.83 205.02 238.46 205.41C233.49 210.52 229.12 214.25 225.35 216.59C212.36 224.62 198.24 225.19 182.98 218.26C177.74 215.89 173.58 212.1 170.46 206.89C169.97 206.06 169.17 205.46 168.23 205.22C161.74 203.51 155.81 202.47 150.46 202.08C141.55 201.44 133.4 199.63 126.03 196.69L126.02 196.7Z"
            fill="currentColor"
    />
    <path
            d="M151.469 112.37C147.869 114.47 142.889 112.63 140.359 108.28C137.829 103.93 138.69 98.7 142.3 96.6C145.9 94.5 150.88 96.34 153.41 100.69C155.94 105.04 155.079 110.27 151.469 112.37Z"
            fill="currentColor"
    />
    <path
            d="M259.52 114.2C255.72 112.62 254.07 107.92 255.82 103.69C257.57 99.46 262.09 97.32 265.88 98.9C269.68 100.48 271.33 105.18 269.58 109.41C267.83 113.64 263.31 115.78 259.52 114.2Z"
            fill="currentColor"
    />
    <path
            d="M164.98 125C163.23 124.03 162.61 121.82 163.58 120.08L165.28 117.06C167.53 113.02 172.45 111.48 176.25 113.6C180.05 115.74 181.31 120.72 179.05 124.76L177.37 127.78C176.4 129.53 174.19 130.14 172.45 129.16L164.98 124.99V125Z"
            fill="currentColor"
    />
    <path
            d="M236.29 128.96C232.29 129.35 228.69 125.97 228.24 121.41C227.8 116.85 230.67 112.82 234.67 112.44C238.67 112.05 242.27 115.43 242.72 119.99C243.16 124.55 240.29 128.58 236.29 128.96Z"
            fill="currentColor"
    />
    <path
            d="M242.09 154.19C239.73 157.93 237.34 160.29 234.94 161.27C232.68 162.18 228.84 162.89 223.45 163.38C222.51 163.47 221.63 163.82 220.87 164.37C216.91 167.34 214.33 171.35 213.13 176.41C212.11 180.75 209.28 182.26 205.5 185.09C204.31 185.99 202.7 186.08 201.41 185.36C196.1 182.37 193.09 178.35 192.4 173.27C191.94 169.98 191.38 168 190.72 167.36C186.27 163 182.06 162.83 176.19 162.99C175.69 163.01 175.2 162.93 174.73 162.75C166.85 160.03 163.61 150.63 172.94 146.29C175.22 145.24 179.17 144.51 184.78 144.1C186.59 143.96 188.29 143.27 189.87 142.01C190.66 141.4 191.47 139.75 192.32 137.07C193.47 133.47 195.18 128.63 197.43 122.57C197.51 122.35 197.65 122.15 197.82 121.97L201.12 118.73C202.28 117.6 204.04 117.33 205.49 118.07C213.35 122.13 211.39 135.1 219.47 142.16C219.86 142.51 220.32 142.74 220.81 142.88C229.25 145.19 234.14 146.51 235.51 146.87C239.11 147.81 241.37 149.72 242.29 152.59C242.46 153.12 242.38 153.71 242.09 154.18M210.33 154.81C210.33 151.89 207.97 149.53 205.05 149.53C202.13 149.53 199.77 151.89 199.77 154.81C199.77 157.73 202.13 160.09 205.05 160.09C207.97 160.09 210.33 157.73 210.33 154.81Z"
            fill="currentColor"
    />
</svg>