<svg class="w-full h-auto" viewBox="0 0 866 1146" fill="none" xmlns="http://www.w3.org/2000/svg">
    <path d="M431.72 50.47C432.86 49.87 434.02 49 435.26 47.9C480.81 6.42004 534.28 -7.83995 595.63 5.09005C608.52 7.83005 620.48 11.07 631.53 14.81C645.12 19.39 655.01 24.03 661.19 28.74C675.42 39.53 672.95 77.06 671.04 94.93C667.1 132.13 661.42 164.99 654.01 193.48C653.18 196.72 645.73 223.64 631.7 274.26C628.49 285.82 626.42 301.81 625.49 310.33C622.38 337.98 625.12 365.4 633.74 392.62C637.25 403.67 649.44 428.59 670.31 467.29C690.08 503.99 703.77 529.97 711.39 545.3C750.73 624.55 781.82 695.25 804.7 757.4C825.37 813.71 842.37 871.61 855.66 931.09C859.83 949.69 862.67 964.62 864.21 975.84C866.01 988.8 866.01 1000.12 864.21 1009.8C862.97 1016.51 859.3 1023.66 853.19 1031.17C838.8 1048.97 821.2 1059.79 800.46 1063.56C787.74 1065.86 774.04 1067.77 759.35 1069.34C756.31 1069.67 752.17 1070.48 746.93 1071.78C745.59 1072.11 744.33 1072.61 743.16 1073.32C731.67 1080.1 725.69 1082.9 717.68 1090.15C707.69 1099.13 699.85 1105.78 694.1 1110.02C669.75 1128.05 633.62 1138.67 604.17 1127.49C578.39 1117.7 558.32 1108.45 535.21 1112.5C525.16 1114.24 512.53 1119.31 497.31 1127.76C484.92 1134.61 470.69 1139.65 454.7 1142.89C416.43 1150.67 388.94 1132.4 352.88 1115.91C341.76 1110.83 327.67 1109.93 310.53 1113.17C304.28 1114.37 288.42 1119.65 263.01 1128.97C254.63 1132.08 243.84 1133.08 230.72 1131.98C203.03 1129.68 180.26 1120.42 162.43 1104.23C146.07 1089.37 132.91 1078.92 122.92 1072.87C117.38 1069.53 106.32 1067.86 89.7603 1067.89C85.1203 1067.89 76.1003 1066.22 62.7103 1062.85C40.3303 1057.24 22.7303 1044.22 9.91029 1023.78C-1.50971 1005.65 -1.03971 989.58 3.16029 967.51C10.2703 930.24 19.1203 893.44 29.6403 857.1C66.4403 729.96 117.81 607.97 183.73 491.12C206.61 450.51 222.9 418.95 232.56 396.48C242.34 373.7 246.09 350.03 243.75 325.45C242.48 312.03 240.28 296.53 237.17 279C235.07 267.18 231.43 251.98 226.22 233.45C218.67 206.57 212.86 185.03 208.79 168.83C201.34 139.31 196.47 105.21 194.16 66.51C193.23 51.08 195.83 38.72 202.01 29.47C202.24 29.1 202.51 28.8 202.84 28.57L214.8 19.05C215.03 18.85 215.33 18.68 215.63 18.55C231.03 12.41 247.49 7.83005 265.09 4.82005C265.59 4.72005 273.17 3.65005 287.83 1.55005C307.33 -1.25995 326.4 1.68005 342.13 3.92005C360.33 6.52005 380.67 15.58 396.5 25.26C407.02 31.71 416.74 39.75 425.62 49.41C427.19 51.11 429.7 51.55 431.77 50.51M333.89 102.57C335.59 114.66 340.84 126.62 349.62 138.4C355.2 145.91 364.25 148.72 372.5 145.68C378.58 143.44 385.69 142.34 391 143.61C393.64 144.24 395.78 146.18 396.71 148.72C400.12 157.84 404.66 168.36 410.3 180.25C412.4 184.62 414.61 187.96 416.98 190.24C422.92 195.88 432.21 200.83 438.25 195.48C445.6 189.03 451.84 182.26 457.02 175.18C458.39 173.31 461.49 164.96 466.27 150.13C466.6 149.06 467.17 148.13 467.97 147.32C472.14 143.15 476.75 140.04 481.83 138.04C483.9 137.24 486.2 137.31 488.21 138.24L505.68 146.42C506.15 146.65 506.68 146.72 507.22 146.62C517.87 144.72 519.98 140.01 524.95 131.46C525.52 130.53 525.89 129.52 526.12 128.49C528.99 115.63 533.47 104.34 539.51 94.63C541.31 91.76 544.39 89.92 547.76 89.72C557.91 89.15 568.36 91.09 579.12 95.46C581.02 96.23 583.09 96.43 585.06 96.03C603.4 92.32 617.09 82.34 626.2 66.07C636.49 47.74 615.18 45.4 604.03 45.9C603.16 45.93 602.33 45.87 601.49 45.67C573.94 38.96 547.09 38.29 520.87 43.7C494.62 49.14 471.98 62.37 452.91 83.37C442.72 94.59 427.4 106.35 414.67 92.35C408.16 85.2 402.15 75.95 394.37 69.37C384.35 60.95 374.8 54.71 365.68 50.67C327.91 33.84 279.08 37.48 239.84 49.67C237.77 50.3 236.73 52.61 237.64 54.58C244.59 70.08 255.27 82.53 269.67 91.98C276.35 96.35 282.79 97.42 289.01 95.15C301.8 90.44 311.55 88.14 318.26 88.17C319.26 88.2 320.26 88.37 321.2 88.74C324.67 90.04 328.55 93.75 332.82 99.83C333.39 100.63 333.75 101.57 333.89 102.57ZM234.04 112.59C233.04 122.51 233.64 131.63 235.81 139.97C240.75 158.87 247.8 183.52 256.95 213.91C262.59 232.65 266.74 248.67 269.37 262.07C277.12 301.08 283.33 337.85 275.35 376.48C274.68 379.75 276.82 382.93 280.09 383.56C290.38 385.53 301.7 389.87 311.68 390.61C316.66 390.98 327.91 392.68 345.38 395.79C354.3 397.39 363.75 396.83 370.29 396.86C376.8 396.86 382.58 399.26 385.99 405.91C396.78 426.92 423.66 437.14 446.24 432.09C460.5 428.92 471.82 419.8 480.2 404.77C482.27 401.1 485.88 398.56 490.02 397.82C501.88 395.78 512.33 397.09 524.95 394.75C538.94 392.18 555.44 388.77 574.51 384.56C575.68 384.33 576.85 384.23 578.05 384.26C583.16 384.53 587.67 383.83 591.54 382.16C593.54 381.29 594.65 379.12 594.21 376.98C588.8 350.83 588.03 325.02 591.94 299.54C595.78 274.39 600.15 253.25 605.13 236.12C620.29 183.62 628.64 157.01 634.25 118.1C634.55 116.03 632.18 114.66 630.54 115.93C626.5 119.04 621.69 121.94 616.11 124.61C612.07 126.55 606.66 127.88 599.81 128.58C589.69 129.68 580.81 130.35 573.09 130.58C569.68 130.68 566.54 132.48 564.74 135.39C557.83 146.41 550.71 156.4 543.33 165.31C536.65 173.36 530.64 178.33 525.26 180.24C515.98 183.55 505.46 186.05 493.67 187.82C490.63 188.29 487.96 190.09 486.39 192.73C480.51 202.55 472.26 212.7 461.68 223.15C454.7 230.03 446.75 233.67 437.84 234.04C423.45 234.61 414.53 233.34 404.81 223.29C398.26 216.51 392.09 210.57 386.24 205.39C384.47 203.82 381.16 199.04 376.39 191.03C375.79 190.06 374.95 189.26 373.95 188.76C368.34 185.99 364.3 184.62 361.79 184.62C344.62 184.52 331.47 178.74 322.28 167.29C319.68 164.05 316.57 158.57 312.93 150.86C311.09 146.89 307.65 141.48 302.68 134.63C301.34 132.76 299.11 131.79 296.84 132.03C274.1 134.47 254.43 125.78 236.16 111.66C235.33 111.03 234.12 111.56 234.02 112.59M267.48 418.16C266.21 417.66 264.78 418.16 264.11 419.33C252.45 439.97 244.11 457.8 232.25 478.24C201.83 530.77 173.34 585.64 146.79 642.88C106.08 730.61 73.5203 822.45 49.0703 918.36C43.9603 938.36 39.5203 959.04 35.7503 980.41C34.7503 985.99 34.5803 990.09 35.2803 992.77C39.1903 1008.03 54.2203 1021.26 68.2803 1025.46C77.9003 1028.33 85.7803 1029.93 91.9203 1030.3C108.05 1031.2 118.04 1032.1 121.91 1033.01C136.77 1036.52 150.96 1044 164.49 1055.42C175.21 1064.44 184.13 1075.42 196.88 1082.8C211.11 1091.08 230.68 1095.96 247.88 1092.15C258.33 1089.81 264.58 1088.28 266.62 1087.51C281.92 1081.87 292.94 1078.19 299.68 1076.49C324.89 1070.14 348.5 1072.38 370.58 1083.2C390.32 1092.85 402.31 1098.43 406.51 1099.86C428.85 1107.51 449.99 1106.84 469.93 1097.92C497.25 1085.66 514.78 1078.55 522.53 1076.51C541.13 1071.6 560.97 1073.17 582.04 1081.22C599.64 1087.93 612.26 1091.64 619.98 1092.37C643.59 1094.61 664.23 1087.56 681.93 1071.2C684.7 1068.63 690.45 1063.42 699.13 1055.54C713.29 1042.68 730.22 1035.14 748.12 1033.06C771.2 1030.39 783.85 1028.82 786.02 1028.35C804.02 1024.48 822.45 1016.93 829.1 999.8C831.14 994.49 831.14 986.24 829.1 975.12C825.49 955.52 822.49 940.72 820.08 930.74C807.22 877.34 790.72 822.5 770.52 766.2C753.19 717.94 730.71 665.24 703.06 608.14C670.43 540.78 638.11 479.4 606.15 423.96C604.61 421.29 601.57 419.85 598.54 420.35L509.24 435.14C508.14 435.31 507.1 435.84 506.3 436.68C495.75 447.53 486.46 455.45 478.45 460.42C450.87 477.49 420.88 478.69 388.45 463.96C377.33 458.92 368.48 450.87 361.87 439.81C360.83 438.04 359.13 436.77 357.13 436.27C343.34 432.63 330.75 430.43 319.39 429.59C300.45 428.22 283.16 424.38 267.49 418.14L267.48 418.16Z"
          fill="currentColor"/>
    <path d="M436.65 1145.11C412.7 1145.11 392.28 1135.23 369.33 1124.14C363.97 1121.55 358.42 1118.87 352.69 1116.24C341.72 1111.23 327.55 1110.32 310.57 1113.53C304.39 1114.72 288.42 1120.03 263.11 1129.31C254.71 1132.42 243.79 1133.44 230.66 1132.34C203.01 1130.04 179.96 1120.67 162.15 1104.49C145.86 1089.7 132.59 1079.16 122.7 1073.18C117.22 1069.88 106.15 1068.25 89.7303 1068.26C85.0303 1068.26 75.9003 1066.56 62.5903 1063.21C40.2203 1057.6 22.3803 1044.4 9.57029 1023.97C-1.76971 1005.96 -1.56971 990.21 2.77029 967.43C9.81029 930.55 18.7203 893.39 29.2603 856.99C65.9003 730.42 117.75 607.26 183.38 490.93C206.21 450.4 222.63 418.57 232.19 396.32C241.91 373.69 245.67 349.85 243.35 325.47C242.1 312.24 239.89 296.62 236.78 279.05C234.66 267.15 230.98 251.84 225.83 233.53C218.32 206.78 212.45 185.04 208.4 168.9C200.98 139.49 196.06 105.04 193.76 66.51C192.82 51.04 195.48 38.51 201.67 29.24C201.93 28.82 202.24 28.49 202.6 28.24L214.54 18.74C214.77 18.55 215.08 18.36 215.46 18.19C230.84 12.05 247.5 7.43005 265.01 4.44005C265.34 4.37005 268.6 3.91005 275.11 2.98005L287.76 1.17005C306.59 -1.53995 325.33 1.14005 340.39 3.29005L342.16 3.54005C358.38 5.86005 378.24 13.66 396.67 24.93C407.19 31.38 417.02 39.52 425.87 49.14C427.31 50.7 429.65 51.12 431.57 50.16C432.63 49.6 433.76 48.77 435.03 47.64C457.74 26.96 482.78 12.87 509.44 5.75005C536.1 -1.36995 565.13 -1.69995 595.72 4.74005C608.53 7.46005 620.63 10.74 631.66 14.47C645.23 19.04 655.24 23.74 661.42 28.45C674.49 38.36 674.07 70.1 671.42 94.98C667.49 132.04 661.76 165.22 654.38 193.59C653.55 196.79 646.53 222.19 632.07 274.38C628.84 286.03 626.8 301.94 625.87 310.39C622.78 337.88 625.55 365.51 634.1 392.52C637.6 403.55 649.89 428.65 670.64 467.13C690.73 504.42 704.17 529.94 711.72 545.15C750.84 623.96 782.24 695.33 805.04 757.28C825.64 813.4 842.8 871.86 856.02 931.02C860.14 949.39 863.02 964.46 864.57 975.8C866.37 988.74 866.37 1000.2 864.57 1009.88C863.32 1016.65 859.59 1023.9 853.47 1031.42C839.07 1049.23 821.25 1060.17 800.51 1063.95C787.95 1066.23 774.49 1068.12 759.37 1069.73C756.28 1070.07 752.12 1070.89 747 1072.16C745.65 1072.5 744.42 1073 743.33 1073.65C741.07 1074.98 739.03 1076.16 737.14 1077.25C729.42 1081.7 724.32 1084.64 717.91 1090.44C707.63 1099.69 699.91 1106.2 694.3 1110.33C671.28 1127.38 634.44 1139.4 604.01 1127.84C601.34 1126.83 598.73 1125.82 596.17 1124.83C573.65 1116.13 555.86 1109.26 535.25 1112.86C525.27 1114.58 512.56 1119.7 497.46 1128.08C485.11 1134.91 470.73 1140.01 454.74 1143.25C448.45 1144.53 442.44 1145.11 436.65 1145.11ZM329.12 1110.9C338.22 1110.9 346.21 1112.45 353 1115.55C358.75 1118.18 364.29 1120.86 369.66 1123.45C398.04 1137.17 422.55 1149.02 454.6 1142.5C470.52 1139.28 484.82 1134.2 497.11 1127.41C512.28 1118.99 525.07 1113.84 535.13 1112.11C555.94 1108.47 574.72 1115.72 596.45 1124.11C599.01 1125.1 601.62 1126.11 604.29 1127.12C634.46 1138.58 671.02 1126.63 693.87 1109.7C699.46 1105.58 707.16 1099.08 717.42 1089.85C723.89 1084 729.02 1081.04 736.78 1076.57C738.67 1075.48 740.71 1074.31 742.96 1072.98C744.11 1072.29 745.42 1071.76 746.83 1071.4C751.98 1070.12 756.18 1069.3 759.3 1068.95C774.4 1067.34 787.84 1065.45 800.38 1063.18C820.94 1059.44 838.6 1048.59 852.89 1030.92C858.93 1023.49 862.61 1016.36 863.83 1009.71C865.62 1000.11 865.62 988.72 863.83 975.87C862.28 964.55 859.4 949.5 855.29 931.15C842.08 872.02 824.94 813.6 804.34 757.51C781.54 695.58 750.16 624.23 711.05 545.45C703.5 530.25 690.06 504.73 669.98 467.45C649.21 428.93 636.9 403.79 633.38 392.71C624.8 365.6 622.02 337.86 625.12 310.27C626.05 301.8 628.1 285.85 631.34 274.14C645.8 221.95 652.82 196.56 653.65 193.36C661.02 165.03 666.75 131.89 670.67 94.86C672.82 74.65 674.43 39.22 660.96 29.01C654.84 24.35 644.9 19.68 631.41 15.14C620.4 11.41 608.34 8.15005 595.55 5.43005C534.6 -7.40996 480.75 6.96005 435.51 48.15C434.19 49.33 433.01 50.19 431.89 50.78C429.67 51.89 426.97 51.41 425.3 49.6C416.5 40.03 406.72 31.93 396.26 25.52C377.92 14.3 358.15 6.54005 342.03 4.23005L340.26 3.98005C325.25 1.84005 306.56 -0.829955 287.84 1.86005L275.19 3.67005C268.9 4.57005 265.44 5.06005 265.12 5.13005C247.66 8.11005 231.04 12.72 215.73 18.84C215.43 18.97 215.18 19.12 215 19.28L203.04 28.81C202.74 29.02 202.5 29.28 202.29 29.62C196.19 38.75 193.57 51.13 194.5 66.43C196.79 104.92 201.71 139.32 209.12 168.69C213.18 184.82 219.04 206.56 226.55 233.3C231.7 251.62 235.39 266.96 237.51 278.89C240.63 296.49 242.84 312.13 244.09 325.37C246.42 349.88 242.65 373.84 232.87 396.59C223.31 418.86 206.87 450.71 184.03 491.27C118.43 607.55 66.6003 730.66 29.9803 857.18C19.4503 893.56 10.5403 930.69 3.51029 967.55C-0.799711 990.14 -1.00971 1005.75 10.2103 1023.55C22.9203 1043.81 40.6103 1056.9 62.7803 1062.46C76.0303 1065.8 85.1103 1067.49 89.7403 1067.49C89.9003 1067.49 90.0703 1067.49 90.2303 1067.49C106.5 1067.49 117.56 1069.18 123.1 1072.52C133.03 1078.53 146.34 1089.1 162.67 1103.92C180.36 1119.98 203.26 1129.29 230.74 1131.58C243.76 1132.67 254.58 1131.67 262.87 1128.6C288.22 1119.3 304.23 1113.98 310.45 1112.79C317.11 1111.53 323.35 1110.9 329.14 1110.9H329.12ZM436.57 1105.46C426.72 1105.46 416.64 1103.7 406.36 1100.19C402.21 1098.78 390.44 1093.32 370.38 1083.51C348.5 1072.78 324.73 1070.53 299.74 1076.82C293.04 1078.51 281.93 1082.22 266.72 1087.83C264.7 1088.59 258.73 1090.07 247.94 1092.49C232.24 1095.96 212.6 1092.37 196.67 1083.1C188.17 1078.18 181.29 1071.6 174.64 1065.23C171.29 1062.02 167.83 1058.71 164.23 1055.68C150.79 1044.33 136.52 1036.82 121.81 1033.35C117.97 1032.46 107.91 1031.55 91.8903 1030.65C85.7003 1030.28 77.7103 1028.65 68.1603 1025.79C55.1303 1021.89 39.0503 1009.01 34.9103 992.83C34.2003 990.11 34.3503 986.02 35.3703 980.31C39.1203 959.06 43.6103 938.18 48.7003 918.23C73.0603 822.67 105.94 729.96 146.44 642.68C172.85 585.75 201.61 530.35 231.92 478.01C238.3 467.02 243.77 456.56 249.07 446.44C253.65 437.69 258.39 428.64 263.78 419.1C264.54 417.78 266.19 417.2 267.62 417.77C283.24 424 300.66 427.84 319.41 429.2C330.87 430.04 343.59 432.29 357.22 435.89C359.33 436.42 361.1 437.74 362.19 439.6C368.73 450.54 377.62 458.61 388.61 463.59C420.74 478.18 450.9 477 478.26 460.07C486.21 455.13 495.56 447.17 506.04 436.38C506.88 435.5 508 434.91 509.19 434.73L598.48 419.94C601.67 419.42 604.88 420.94 606.48 423.73C638.47 479.22 671.08 541.19 703.41 607.93C730.88 664.66 753.58 717.85 770.88 766.03C790.93 821.91 807.61 877.29 820.45 930.61C822.84 940.54 825.88 955.48 829.47 975.01C831.51 986.16 831.51 994.54 829.45 999.89C823.91 1014.18 809.73 1023.59 786.1 1028.68C783.93 1029.15 771.52 1030.69 748.16 1033.4C730.07 1035.49 713.2 1043.23 699.38 1055.78L697.57 1057.43C689.86 1064.43 684.76 1069.06 682.19 1071.45C664.5 1087.8 643.56 1094.96 619.95 1092.72C612.23 1091.99 599.43 1088.22 581.91 1081.54C561.01 1073.56 541.06 1071.98 522.63 1076.84C514.82 1078.89 497.14 1086.09 470.09 1098.23C459.33 1103.05 448.13 1105.45 436.61 1105.45L436.57 1105.46ZM326.86 1072.59C342.12 1072.59 356.79 1076.01 370.71 1082.83C390.74 1092.63 402.48 1098.07 406.6 1099.48C428.72 1107.05 449.96 1106.4 469.74 1097.56C496.83 1085.41 514.55 1078.2 522.4 1076.13C540.99 1071.22 561.09 1072.81 582.14 1080.85C599.59 1087.51 612.33 1091.25 619.98 1091.98C643.38 1094.19 664.12 1087.11 681.64 1070.9C684.22 1068.51 689.31 1063.88 697.03 1056.88L698.84 1055.23C712.78 1042.58 729.79 1034.77 748.04 1032.66C771.37 1029.96 783.76 1028.42 785.91 1027.96C809.27 1022.93 823.28 1013.67 828.72 999.64C830.72 994.41 830.72 986.18 828.7 975.16C825.11 955.65 822.08 940.72 819.69 930.8C806.86 877.5 790.19 822.16 770.14 766.3C752.85 718.15 730.16 664.98 702.7 608.27C670.38 541.55 637.78 479.59 605.8 424.12C604.35 421.6 601.45 420.22 598.57 420.7L509.27 435.49C508.24 435.65 507.27 436.15 506.54 436.92C496.01 447.75 486.62 455.76 478.62 460.72C451.03 477.78 420.64 478.98 388.26 464.28C377.14 459.24 368.14 451.06 361.51 439.99C360.52 438.3 358.92 437.1 357 436.62C343.41 433.03 330.74 430.79 319.33 429.95C300.51 428.59 283.01 424.73 267.32 418.47C266.24 418.04 264.98 418.47 264.41 419.48C259.03 429 254.3 438.05 249.71 446.8C244.41 456.92 238.93 467.39 232.54 478.39C202.24 530.71 173.49 586.09 147.09 643C106.61 730.24 73.7403 822.9 49.4003 918.42C44.3103 938.34 39.8303 959.21 36.0803 980.44C35.0803 986.04 34.9203 990.03 35.6103 992.64C39.6903 1008.56 55.5203 1021.23 68.3503 1025.07C77.8503 1027.91 85.7703 1029.53 91.9103 1029.9C107.97 1030.8 118.08 1031.71 121.96 1032.61C136.79 1036.11 151.17 1043.68 164.7 1055.1C168.32 1058.14 171.79 1061.47 175.15 1064.68C181.77 1071.02 188.62 1077.57 197.04 1082.45C212.81 1091.63 232.25 1095.19 247.77 1091.76C258.38 1089.39 264.49 1087.87 266.45 1087.13C281.69 1081.51 292.83 1077.79 299.55 1076.1C308.83 1073.77 317.94 1072.6 326.85 1072.6L326.86 1072.59ZM434.49 433.69C414.29 433.69 394.23 422.84 385.6 406.03C382.59 400.16 377.42 397.18 370.24 397.18C368.88 397.18 367.41 397.19 365.84 397.21C359.84 397.29 352.37 397.38 345.26 396.1C328.36 393.1 316.72 391.31 311.6 390.93C305.49 390.48 298.82 388.67 292.36 386.92C288.24 385.8 283.98 384.65 279.96 383.88C278.27 383.55 276.82 382.59 275.86 381.16C274.91 379.74 274.57 378.03 274.92 376.36C282.8 338.21 276.88 302.04 268.94 262.09C266.33 248.83 262.15 232.64 256.52 213.97C247.41 183.71 240.3 158.83 235.38 140.02C233.2 131.64 232.6 122.38 233.6 112.5C233.66 111.88 234.04 111.35 234.62 111.1C235.2 110.85 235.84 110.93 236.34 111.31C257.09 127.35 276.28 133.8 296.75 131.61C299.19 131.36 301.54 132.42 302.94 134.37C308.04 141.38 311.4 146.71 313.23 150.66C316.91 158.45 319.95 163.8 322.53 167.01C331.6 178.32 344.79 184.1 361.75 184.2C364.35 184.2 368.38 185.57 374.07 188.38C375.11 188.9 376.01 189.73 376.66 190.79C382.51 200.61 385.21 203.97 386.44 205.07C392.33 210.29 398.59 216.32 405.03 222.99C414.48 232.76 423.11 234.21 437.77 233.63C446.54 233.27 454.48 229.64 461.37 222.85C471.89 212.46 480.19 202.25 486.03 192.5C487.66 189.75 490.41 187.9 493.57 187.41C505.37 185.64 515.97 183.09 525.09 179.85C530.36 177.98 536.38 173 542.99 165.04C550.2 156.32 557.4 146.27 564.37 135.16C566.24 132.14 569.48 130.28 573.03 130.18C580.67 129.95 589.65 129.27 599.72 128.18C606.44 127.49 611.88 126.17 615.9 124.24C621.39 121.61 626.22 118.7 630.26 115.6C631.14 114.92 632.29 114.84 633.26 115.41C634.23 115.97 634.73 117.01 634.57 118.12C629.51 153.19 622.08 178.81 609.76 221.27C608.38 226.01 606.94 230.97 605.44 236.19C600.54 253.07 596.1 274.39 592.26 299.56C588.38 324.85 589.14 350.86 594.53 376.87C595 379.18 593.78 381.54 591.64 382.47C587.73 384.16 583.13 384.87 577.98 384.6C576.82 384.57 575.69 384.66 574.53 384.89C554.85 389.23 538.64 392.56 524.96 395.08C518.37 396.3 512.33 396.53 506.48 396.76C500.93 396.97 495.69 397.18 490.02 398.15C485.96 398.87 482.48 401.33 480.47 404.91C472.06 419.98 460.55 429.23 446.26 432.41C442.39 433.28 438.43 433.69 434.49 433.69ZM369.64 396.44C369.84 396.44 370.04 396.44 370.24 396.44C377.73 396.44 383.12 399.55 386.27 405.69C396.44 425.49 422.72 436.9 446.1 431.68C460.18 428.55 471.52 419.42 479.82 404.55C481.95 400.78 485.62 398.18 489.9 397.42C495.62 396.44 501.13 396.22 506.46 396.02C512.28 395.79 518.3 395.56 524.83 394.35C538.5 391.84 554.7 388.51 574.38 384.17C575.59 383.93 576.77 383.83 578.01 383.86C583.05 384.12 587.54 383.43 591.34 381.79C593.16 381 594.19 379 593.79 377.03C588.39 350.93 587.62 324.83 591.52 299.45C595.37 274.25 599.81 252.89 604.72 235.98C606.23 230.76 607.67 225.8 609.04 221.06C621.35 178.63 628.78 153.03 633.83 118.01C633.97 117.05 633.43 116.37 632.89 116.05C632.35 115.73 631.49 115.6 630.73 116.19C626.65 119.33 621.77 122.26 616.23 124.91C612.13 126.87 606.61 128.22 599.81 128.92C589.73 130.02 580.73 130.69 573.07 130.93C569.78 131.03 566.77 132.76 565.03 135.56C558.04 146.7 550.83 156.78 543.59 165.52C536.89 173.59 530.76 178.65 525.36 180.56C516.19 183.82 505.54 186.38 493.7 188.16C490.76 188.61 488.21 190.34 486.69 192.89C480.82 202.69 472.49 212.95 461.92 223.39C454.89 230.32 446.79 234.02 437.83 234.38C422.94 234.97 414.16 233.49 404.52 223.51C398.09 216.85 391.85 210.84 385.97 205.63C384.12 203.99 380.78 199.13 376.05 191.18C375.47 190.25 374.68 189.51 373.77 189.05C368.26 186.33 364.23 184.95 361.78 184.95C344.59 184.85 331.2 178.97 321.98 167.48C319.36 164.22 316.29 158.82 312.58 150.98C310.77 147.07 307.43 141.78 302.36 134.81C301.12 133.07 299.01 132.14 296.86 132.36C276.19 134.58 256.82 128.08 235.91 111.91C235.63 111.7 235.27 111.66 234.95 111.8C234.63 111.94 234.41 112.24 234.38 112.59C233.39 122.38 233.98 131.55 236.14 139.84C241.06 158.64 248.17 183.51 257.28 213.76C262.91 232.45 267.09 248.67 269.71 261.95C277.66 301.98 283.6 338.22 275.69 376.51C275.39 377.99 275.69 379.49 276.52 380.75C277.36 382.01 278.64 382.86 280.14 383.15C284.18 383.92 288.46 385.08 292.59 386.2C299.01 387.94 305.65 389.74 311.69 390.19C316.84 390.57 328.5 392.36 345.42 395.37C352.46 396.63 359.88 396.54 365.86 396.46C367.21 396.44 368.48 396.43 369.67 396.43L369.64 396.44ZM432 198.12C426.76 198.12 420.94 194.53 416.67 190.47C414.29 188.19 412.08 184.89 409.91 180.38C404.25 168.47 399.68 157.85 396.3 148.82C395.4 146.37 393.36 144.55 390.85 143.94C386.03 142.79 379.2 143.56 372.57 146C364.07 149.13 354.93 146.22 349.26 138.59C340.48 126.81 335.17 114.69 333.46 102.58C333.34 101.65 332.99 100.76 332.46 100.01C328.24 94.01 324.39 90.32 321.01 89.06C320.18 88.73 319.23 88.55 318.19 88.52C318.14 88.52 318.1 88.52 318.05 88.52C311.37 88.52 301.62 90.86 289.08 95.48C282.79 97.78 276.17 96.7 269.41 92.27C255 82.81 244.18 70.17 237.25 54.71C236.78 53.67 236.77 52.48 237.24 51.45C237.71 50.41 238.6 49.63 239.69 49.29C285.37 35.1 332.51 35.48 365.79 50.31C374.84 54.32 384.53 60.63 394.57 69.07C399.59 73.31 403.87 78.65 408.01 83.82C410.36 86.76 412.59 89.53 414.92 92.09C418.7 96.25 422.98 98.35 427.65 98.35C435.03 98.35 443.42 93.22 452.6 83.1C471.64 62.13 494.57 48.74 520.76 43.31C546.87 37.92 574.05 38.59 601.54 45.28C602.31 45.46 603.1 45.54 603.97 45.5C608.44 45.3 623.39 45.22 627.96 52.64C630.09 56.11 629.6 60.68 626.48 66.23C617.35 82.5201 603.42 92.66 585.08 96.37C583.04 96.79 580.91 96.58 578.92 95.78C568.22 91.43 557.73 89.5 547.72 90.06C544.48 90.25 541.51 92.02 539.77 94.79C533.76 104.45 529.27 115.81 526.43 128.54C526.17 129.7 525.77 130.71 525.21 131.63L524.34 133.13C519.87 140.88 517.4 145.15 507.22 146.96C506.6 147.08 505.99 146.99 505.45 146.73L487.99 138.55C486.09 137.67 483.88 137.6 481.91 138.36C476.94 140.32 472.32 143.42 468.18 147.56C467.43 148.31 466.88 149.21 466.57 150.21C461.82 164.96 458.69 173.42 457.26 175.37C452.05 182.5 445.72 189.35 438.44 195.73C436.53 197.42 434.32 198.12 432 198.12ZM385.94 142.67C387.79 142.67 389.5 142.85 391.03 143.21C393.78 143.87 396.02 145.87 397.01 148.56C400.37 157.56 404.94 168.16 410.59 180.05C412.72 184.48 414.88 187.71 417.19 189.93C423.12 195.57 432.12 200.32 437.95 195.16C445.19 188.81 451.49 182 456.66 174.91C457.61 173.62 459.97 168.24 465.86 149.97C466.21 148.85 466.81 147.85 467.65 147.01C471.87 142.79 476.57 139.64 481.64 137.64C483.8 136.8 486.23 136.88 488.31 137.85L505.78 146.03C506.18 146.23 506.63 146.29 507.09 146.2C516.93 144.44 519.33 140.28 523.69 132.73L524.56 131.22C525.08 130.37 525.44 129.44 525.69 128.35C528.55 115.54 533.07 104.11 539.13 94.37C541 91.39 544.19 89.49 547.67 89.28C557.79 88.72 568.39 90.66 579.19 95.05C581.03 95.79 583.02 95.99 584.92 95.6C603.03 91.94 616.79 81.92 625.81 65.83C628.78 60.54 629.28 56.22 627.3 53C623.84 47.38 612.98 45.81 603.98 46.21C603.04 46.25 602.18 46.17 601.34 45.97C573.96 39.3 546.89 38.64 520.88 44C494.85 49.4 472.05 62.71 453.12 83.56C443.79 93.84 435.21 99.05 427.62 99.05C422.73 99.05 418.27 96.86 414.34 92.54C412 89.97 409.77 87.19 407.4 84.24C403.28 79.1 399.03 73.79 394.07 69.6C384.08 61.21 374.46 54.94 365.47 50.95C332.36 36.19 285.41 35.83 239.9 49.96C239.02 50.23 238.29 50.87 237.91 51.71C237.53 52.55 237.54 53.52 237.92 54.36C244.79 69.69 255.52 82.22 269.81 91.61C276.36 95.9 282.75 96.96 288.81 94.74C301.43 90.09 311.27 87.74 318.05 87.74C318.1 87.74 318.15 87.74 318.19 87.74C319.33 87.78 320.36 87.98 321.27 88.33C324.78 89.65 328.75 93.42 333.06 99.55C333.66 100.4 334.05 101.4 334.19 102.45C335.88 114.43 341.15 126.43 349.85 138.11C355.31 145.47 364.12 148.27 372.3 145.26C376.98 143.54 381.77 142.63 385.93 142.63L385.94 142.67Z"
          fill="currentColor"/>
    <path d="M321.41 239.03C313.77 243.5 303.18 239.59 297.81 230.35C292.43 221.12 294.26 210 301.92 205.55C309.56 201.08 320.15 204.99 325.52 214.23C330.9 223.46 329.07 234.58 321.41 239.03Z"
          fill="currentColor"/>
    <path d="M550.9 242.92C542.84 239.56 539.33 229.58 543.05 220.59C546.78 211.61 556.36 207.07 564.43 210.43C572.49 213.79 576 223.77 572.28 232.76C568.55 241.74 558.97 246.28 550.9 242.92Z"
          fill="currentColor"/>
    <path d="M350.1 265.88C346.39 263.81 345.06 259.13 347.13 255.43L350.74 249.02C355.52 240.44 365.97 237.16 374.05 241.67C382.13 246.21 384.8 256.8 379.99 265.38L376.42 271.79C374.35 275.5 369.67 276.8 365.97 274.73L350.11 265.88H350.1Z"
          fill="currentColor"/>
    <path d="M501.57 274.27C493.07 275.09 485.42 267.91 484.46 258.23C483.52 248.54 489.63 239.99 498.13 239.17C506.63 238.35 514.28 245.53 515.24 255.21C516.18 264.9 510.07 273.45 501.57 274.27Z"
          fill="currentColor"/>
    <path d="M513.88 327.86C508.87 335.81 503.79 340.82 498.68 342.89C493.87 344.83 485.72 346.33 474.27 347.36C472.27 347.56 470.4 348.3 468.79 349.46C460.37 355.77 454.9 364.29 452.36 375.04C450.19 384.26 444.18 387.46 436.16 393.47C433.62 395.37 430.22 395.57 427.48 394.04C416.19 387.69 409.81 379.15 408.34 368.36C407.37 361.38 406.17 357.17 404.77 355.8C395.32 346.55 386.37 346.18 373.91 346.52C372.84 346.55 371.81 346.39 370.8 346.02C354.07 340.24 347.19 320.27 366.99 311.05C371.83 308.81 380.21 307.28 392.14 306.41C395.98 306.11 399.59 304.64 402.96 301.97C404.63 300.67 406.37 297.16 408.17 291.48C410.61 283.83 414.25 273.55 419.02 260.69C419.19 260.22 419.49 259.79 419.86 259.42L426.87 252.54C429.34 250.14 433.08 249.57 436.15 251.14C452.85 259.76 448.67 287.31 465.84 302.3C466.67 303.03 467.64 303.54 468.68 303.84C486.61 308.75 497 311.55 499.9 312.32C507.55 314.32 512.36 318.36 514.29 324.48C514.66 325.62 514.49 326.85 513.86 327.85M446.4 329.19C446.4 322.98 441.39 317.97 435.18 317.97C428.97 317.97 423.96 322.98 423.96 329.19C423.96 335.4 428.97 340.41 435.18 340.41C441.39 340.41 446.4 335.4 446.4 329.19Z"
          fill="currentColor"/>
</svg>
