<svg
        viewBox="0 0 465 457"
        fill="none"
        xmlns="http://www.w3.org/2000/svg"
        class="w-full h-auto"
>
    <path
            d="M237.31 150.389C237.31 145.829 233.62 142.139 229.06 142.139C224.5 142.139 220.81 145.829 220.81 150.389C220.85 166.709 232.16 180.849 248.08 184.459V198.969C248.17 203.529 251.94 207.149 256.5 207.059C260.93 206.969 264.5 203.399 264.59 198.969V184.469C283.4 180.249 295.23 161.569 291.01 142.759C288.05 129.579 277.76 119.289 264.59 116.339V80.1988C271.14 83.1988 275.34 89.7388 275.36 96.9388C275.36 101.499 279.05 105.189 283.61 105.189C288.17 105.189 291.86 101.499 291.86 96.9388C291.82 80.6188 280.51 66.4788 264.59 62.8788V48.3688C264.59 43.8088 260.9 40.1188 256.34 40.1188C251.78 40.1188 248.09 43.8088 248.09 48.3688V63.2088C229.46 68.1588 218.38 87.2788 223.33 105.909C226.55 118.009 236 127.459 248.09 130.669V167.149C241.54 164.149 237.34 157.609 237.32 150.409L237.31 150.389ZM275.35 150.389C275.33 157.589 271.13 164.129 264.58 167.129V133.649C271.13 136.649 275.33 143.189 275.35 150.389ZM238.39 96.9187C238.41 90.1587 242.14 83.9588 248.08 80.7588V113.069C242.13 109.869 238.41 103.669 238.39 96.9088V96.9187Z"
            fill="currentColor"
    />
    <path
            d="M461.16 295.049C455.52 281.989 440.36 275.989 427.3 281.629C427.2 281.669 427.09 281.719 426.99 281.769L338.81 320.039C339.4 304.099 326.96 290.709 311.02 290.119C310.66 290.109 310.29 290.099 309.93 290.099H264.01C243 290.819 212.85 281.899 192.35 277.039C160.67 269.479 127.33 273.579 98.42 288.599C98.42 288.559 65.96 305.669 66.05 305.489C66.04 294.209 56.9 285.069 45.62 285.059H21.44C10.16 285.069 1.02 294.209 1 305.489V435.109C1.02 446.389 10.16 455.529 21.44 455.539H45.62C56.9 455.529 66.04 446.389 66.05 435.109V429.249C92.41 413.189 122.55 404.369 153.41 403.689C172.2 404.049 190.82 407.199 208.68 413.039C220.93 417.319 256.98 414.669 269.97 415.379C281.48 415.369 292.8 412.469 302.9 406.949L449.77 327.179C461.28 321.009 466.21 307.099 461.14 295.059L461.16 295.049ZM49.55 435.109C49.55 437.279 47.79 439.039 45.63 439.039H21.45C19.28 439.039 17.52 437.279 17.52 435.109V305.489C17.52 303.319 19.28 301.559 21.45 301.559H45.63C47.8 301.559 49.55 303.319 49.55 305.489V435.109ZM441.93 312.659L295.01 392.459C287.33 396.659 278.73 398.859 269.98 398.869H226.38C215.46 397.819 204.7 395.589 194.27 392.209C154.69 382.369 112.89 387.079 76.49 405.489L66.06 410.759V324.179L106.07 303.239C131.43 290.059 160.7 286.459 188.5 293.099L225.06 301.999C248.18 308.449 285.91 306.309 309.94 306.609C316.83 306.699 322.34 312.359 322.24 319.239C322.16 325.259 317.79 330.359 311.85 331.369C285.76 336.709 244.56 335.069 217.61 335.269C213.04 335.279 209.35 338.989 209.36 343.549C209.37 348.099 213.05 351.779 217.6 351.799C245.79 351.619 287.09 353.209 314.38 347.679C315.56 349.269 429.31 298.279 433.89 296.769C438.4 294.789 443.67 296.849 445.64 301.359C447.47 305.519 445.87 310.399 441.93 312.669V312.659Z"
            fill="currentColor"
    />
    <path
            d="M256.33 246.949C324.39 246.869 379.55 191.719 379.62 123.659C372.85 -39.9113 139.78 -39.8613 133.03 123.659C133.11 191.719 188.26 246.869 256.32 246.949H256.33ZM256.33 16.8688C315.28 16.9388 363.05 64.7088 363.12 123.659C357.25 265.329 155.39 265.289 149.54 123.659C149.61 64.7088 197.38 16.9388 256.33 16.8688Z"
            fill="currentColor"
    />
    <path
            d="M237.31 150.389C237.31 145.829 233.62 142.139 229.06 142.139C224.5 142.139 220.81 145.829 220.81 150.389C220.85 166.709 232.16 180.849 248.08 184.459V198.969C248.17 203.529 251.94 207.149 256.5 207.059C260.93 206.969 264.5 203.399 264.59 198.969V184.469C283.4 180.249 295.23 161.569 291.01 142.759C288.05 129.579 277.76 119.289 264.59 116.339V80.1988C271.14 83.1988 275.34 89.7388 275.36 96.9388C275.36 101.499 279.05 105.189 283.61 105.189C288.17 105.189 291.86 101.499 291.86 96.9388C291.82 80.6188 280.51 66.4788 264.59 62.8788V48.3688C264.59 43.8088 260.9 40.1188 256.34 40.1188C251.78 40.1188 248.09 43.8088 248.09 48.3688V63.2088C229.46 68.1588 218.38 87.2788 223.33 105.909C226.55 118.009 236 127.459 248.09 130.669V167.149C241.54 164.149 237.34 157.609 237.32 150.409L237.31 150.389ZM275.35 150.389C275.33 157.589 271.13 164.129 264.58 167.129V133.649C271.13 136.649 275.33 143.189 275.35 150.389ZM238.39 96.9187C238.41 90.1587 242.14 83.9588 248.08 80.7588V113.069C242.13 109.869 238.41 103.669 238.39 96.9088V96.9187Z"
            stroke="currentColor"
            stroke-width="2"
            stroke-miterlimit="10"
    />
    <path
            d="M461.16 295.049C455.52 281.989 440.36 275.989 427.3 281.629C427.2 281.669 427.09 281.719 426.99 281.769L338.81 320.039C339.4 304.099 326.96 290.709 311.02 290.119C310.66 290.109 310.29 290.099 309.93 290.099H264.01C243 290.819 212.85 281.899 192.35 277.039C160.67 269.479 127.33 273.579 98.42 288.599C98.42 288.559 65.96 305.669 66.05 305.489C66.04 294.209 56.9 285.069 45.62 285.059H21.44C10.16 285.069 1.02 294.209 1 305.489V435.109C1.02 446.389 10.16 455.529 21.44 455.539H45.62C56.9 455.529 66.04 446.389 66.05 435.109V429.249C92.41 413.189 122.55 404.369 153.41 403.689C172.2 404.049 190.82 407.199 208.68 413.039C220.93 417.319 256.98 414.669 269.97 415.379C281.48 415.369 292.8 412.469 302.9 406.949L449.77 327.179C461.28 321.009 466.21 307.099 461.14 295.059L461.16 295.049ZM49.55 435.109C49.55 437.279 47.79 439.039 45.63 439.039H21.45C19.28 439.039 17.52 437.279 17.52 435.109V305.489C17.52 303.319 19.28 301.559 21.45 301.559H45.63C47.8 301.559 49.55 303.319 49.55 305.489V435.109ZM441.93 312.659L295.01 392.459C287.33 396.659 278.73 398.859 269.98 398.869H226.38C215.46 397.819 204.7 395.589 194.27 392.209C154.69 382.369 112.89 387.079 76.49 405.489L66.06 410.759V324.179L106.07 303.239C131.43 290.059 160.7 286.459 188.5 293.099L225.06 301.999C248.18 308.449 285.91 306.309 309.94 306.609C316.83 306.699 322.34 312.359 322.24 319.239C322.16 325.259 317.79 330.359 311.85 331.369C285.76 336.709 244.56 335.069 217.61 335.269C213.04 335.279 209.35 338.989 209.36 343.549C209.37 348.099 213.05 351.779 217.6 351.799C245.79 351.619 287.09 353.209 314.38 347.679C315.56 349.269 429.31 298.279 433.89 296.769C438.4 294.789 443.67 296.849 445.64 301.359C447.47 305.519 445.87 310.399 441.93 312.669V312.659Z"
            stroke="currentColor"
            stroke-width="2"
            stroke-miterlimit="10"
    />
    <path
            d="M256.33 246.949C324.39 246.869 379.55 191.719 379.62 123.659C372.85 -39.9113 139.78 -39.8613 133.03 123.659C133.11 191.719 188.26 246.869 256.32 246.949H256.33ZM256.33 16.8688C315.28 16.9388 363.05 64.7088 363.12 123.659C357.25 265.329 155.39 265.289 149.54 123.659C149.61 64.7088 197.38 16.9388 256.33 16.8688Z"
            stroke="currentColor"
            stroke-width="2"
            stroke-miterlimit="10"
    />
</svg>