<svg
        viewBox="0 0 422 518"
        fill="none"
        xmlns="http://www.w3.org/2000/svg"
        class="w-full h-auto"
>
    <path
            d="M123 163V99C123 50.4 162.4 11 211 11C259.6 11 299 50.4 299 99V163M123 163C118.582 163 115 166.582 115 171C115 175.418 118.582 179 123 179C127.418 179 131 175.418 131 171C131 166.582 127.418 163 123 163ZM299 163C294.582 163 291 166.582 291 171C291 175.418 294.582 179 299 179C303.418 179 307 175.418 307 171C307 166.582 303.418 163 299 163ZM171 115H251M123 115H27L11 475C11 492.7 25.3 507 43 507H379C396.7 507 411 492.7 411 475L395 115H299M275 299L239.3 247.5C226.4 227.2 196.6 227.9 184.6 248.7L163 286.2M275 299L243 299M275 299L283 267M219 411H281.7C306.7 411 322.1 383.5 309 362.2L294.7 338.9M219 411L235 387M219 411L235 435M141.8 323L118.7 363C106.4 384.3 121.8 411 146.4 411H171M155 346.9L141.6 323L115 322.9"
            stroke="currentColor"
            stroke-width="21"
            stroke-linecap="round"
            stroke-linejoin="round"
    />
</svg>
